<svg width="16" height="16" viewBox="0 0 16 16" fill="none" xmlns="http://www.w3.org/2000/svg">
<path d="M0 8C0 3.58125 3.58125 0 8 0C12.4187 0 16 3.58125 16 8C16 12.4187 12.4187 16 8 16C3.58125 16 0 12.4187 0 8ZM5.46875 6.50313L6.94063 7.97188L5.46875 9.46875C5.17812 9.7625 5.17812 10.2375 5.46875 10.5031C5.7625 10.8219 6.2375 10.8219 6.50313 10.5031L7.97188 9.05937L9.46875 10.5031C9.7625 10.8219 10.2375 10.8219 10.5031 10.5031C10.8219 10.2375 10.8219 9.7625 10.5031 9.46875L9.05937 7.97188L10.5031 6.50313C10.8219 6.2375 10.8219 5.7625 10.5031 5.46875C10.2375 5.17812 9.7625 5.17812 9.46875 5.46875L7.97188 6.94063L6.50313 5.46875C6.2375 5.17812 5.7625 5.17812 5.46875 5.46875C5.17812 5.7625 5.17812 6.2375 5.46875 6.50313Z" fill="#E74A3B"/>
</svg>
