<svg aria-hidden="true" style="position: absolute; width: 0; height: 0; overflow: hidden;" version="1.1" xmlns="http://www.w3.org/2000/svg" xmlns:xlink="http://www.w3.org/1999/xlink">
<defs>
<symbol id="icon-add" viewBox="0 0 24 24">
<path stroke-linejoin="round" stroke-linecap="round" stroke-miterlimit="4" stroke-width="1.5" d="M6 12h12M12 18v-12"></path>
</symbol>
<symbol id="icon-arrow-3" viewBox="0 0 24 24">
<path stroke-linejoin="round" stroke-linecap="round" stroke-miterlimit="4" stroke-width="1.5" d="M10.45 6.72l-3.72-3.72-3.72 3.72M6.73 21v-18M13.55 17.28l3.72 3.72 3.72-3.72M17.27 3v18"></path>
</symbol>
<symbol id="icon-arrow-down" viewBox="0 0 24 24">
<path stroke-linejoin="round" stroke-linecap="round" stroke-miterlimit="10" stroke-width="1.5" d="M19.92 8.95l-6.52 6.52c-0.77 0.77-2.030 0.77-2.8 0l-6.52-6.52"></path>
</symbol>
<symbol id="icon-arrow-right" viewBox="0 0 24 24">
<path stroke-linejoin="round" stroke-linecap="round" stroke-miterlimit="10" stroke-width="1.5" d="M14.43 5.93l6.070 6.070-6.070 6.070M3.5 12h16.83"></path>
</symbol>
<symbol id="icon-arrow-right-1" viewBox="0 0 24 24">
<path stroke-linejoin="round" stroke-linecap="round" stroke-miterlimit="10" stroke-width="1.5" d="M6 12v-2.67c0-3.31 2.35-4.67 5.22-3.010l4.62 2.68c2.87 1.66 2.87 4.37 0 6.030l-4.62 2.68c-2.87 1.63-5.22 0.28-5.22-3.040v-2.67z"></path>
</symbol>
<symbol id="icon-bubble" viewBox="0 0 24 24">
<path stroke-linejoin="miter" stroke-linecap="butt" stroke-miterlimit="10" stroke-width="1.5" d="M15.59 12.26c2.833 0 5.13-2.297 5.13-5.13s-2.297-5.13-5.13-5.13v0c-2.833 0-5.13 2.297-5.13 5.13s2.297 5.13 5.13 5.13v0zM6.36 19.44c1.701 0 3.080-1.379 3.080-3.080s-1.379-3.080-3.080-3.080v0c-1.701 0-3.080 1.379-3.080 3.080s1.379 3.080 3.080 3.080v0zM16.62 22c1.414 0 2.56-1.146 2.56-2.56s-1.146-2.56-2.56-2.56v0c-1.414 0-2.56 1.146-2.56 2.56s1.146 2.56 2.56 2.56v0z"></path>
</symbol>
<symbol id="icon-close-circle" viewBox="0 0 24 24">
<path stroke-linejoin="round" stroke-linecap="round" stroke-miterlimit="4" stroke-width="1.5" d="M12 22c5.5 0 10-4.5 10-10s-4.5-10-10-10-10 4.5-10 10 4.5 10 10 10zM9.17 14.83l5.66-5.66M14.83 14.83l-5.66-5.66"></path>
</symbol>
<symbol id="icon-direct-inbox" viewBox="0 0 24 24">
<path stroke-linejoin="round" stroke-linecap="round" stroke-miterlimit="4" stroke-width="1.5" d="M7 4.13c-3.54 0.52-5 2.6-5 6.87v4c0 5 2 7 7 7h6c5 0 7-2 7-7v-4c0-4.27-1.46-6.35-5-6.87"></path>
<path stroke-linejoin="round" stroke-linecap="round" stroke-miterlimit="4" stroke-width="1.5" d="M12 2v7l2-2M12 9l-2-2M1.98 13h4.41c0.38 0 0.72 0.21 0.89 0.55l1.17 2.34c0.335 0.663 1.010 1.11 1.79 1.11h3.53c0.78-0 1.455-0.447 1.785-1.099l0.005-0.011 1.17-2.34c0.168-0.328 0.503-0.549 0.89-0.55h4.36"></path>
</symbol>
<symbol id="icon-edit-2" viewBox="0 0 24 24">
<path stroke-linejoin="round" stroke-linecap="round" stroke-miterlimit="10" stroke-width="1.5" d="M13.26 3.6l-8.21 8.69c-0.31 0.33-0.61 0.98-0.67 1.43l-0.37 3.24c-0.13 1.17 0.71 1.97 1.87 1.77l3.22-0.55c0.45-0.080 1.080-0.41 1.39-0.75l8.21-8.69c1.42-1.5 2.060-3.21-0.15-5.3-2.2-2.070-3.87-1.34-5.29 0.16z"></path>
<path stroke-linejoin="round" stroke-linecap="round" stroke-miterlimit="10" stroke-width="1.5" d="M11.89 5.050c0.442 2.749 2.661 4.866 5.424 5.148l0.026 0.002M3 22h18"></path>
</symbol>
<symbol id="icon-eye" viewBox="0 0 24 24">
<path stroke-linejoin="round" stroke-linecap="round" stroke-miterlimit="4" stroke-width="1.95" d="M1.001 12s3.999-8 10.999-8c6.999 0 11 8 11 8s-4 8-11 8c-7 0-11-8-11-8z"></path>
<path stroke-linejoin="round" stroke-linecap="round" stroke-miterlimit="4" stroke-width="1.95" d="M12 15c1.657 0 3-1.343 3-3s-1.343-3-3-3v0c-1.657 0-3 1.343-3 3s1.343 3 3 3v0z"></path>
</symbol>
<symbol id="icon-eye-off" viewBox="0 0 24 24">
<path stroke-linejoin="round" stroke-linecap="round" stroke-miterlimit="4" stroke-width="1.95" d="M17.94 17.94c-1.631 1.253-3.692 2.022-5.931 2.059l-0.009 0c-7 0-11-8-11-8 1.284-2.364 2.983-4.343 5.016-5.908l0.043-0.032M9.9 4.24c0.624-0.153 1.341-0.24 2.079-0.24 0.008 0 0.015 0 0.023 0h-0.001c7 0 11 7.999 11 7.999-0.606 1.136-1.331 2.205-2.16 3.19M14.12 14.12c-0.55 0.596-1.335 0.968-2.207 0.968-1.657 0-3-1.343-3-3 0-0.872 0.372-1.657 0.966-2.205l0.002-0.002M1.001 1.001l21.999 21.999"></path>
</symbol>
<symbol id="icon-logout" viewBox="0 0 24 24">
<path stroke-linejoin="round" stroke-linecap="round" stroke-miterlimit="4" stroke-width="1.5" d="M8.9 7.56c0.31-3.6 2.16-5.070 6.21-5.070h0.13c4.47 0 6.26 1.79 6.26 6.26v6.52c0 4.47-1.79 6.26-6.26 6.26h-0.13c-4.020 0-5.87-1.45-6.2-4.99M15 12h-11.38M5.85 8.65l-3.35 3.35 3.35 3.35"></path>
</symbol>
<symbol id="icon-menu" viewBox="0 0 24 24">
<path stroke-linejoin="round" stroke-linecap="round" stroke-miterlimit="10" stroke-width="1.5" d="M17.54 8.31c1.359 0 2.46-1.101 2.46-2.46s-1.101-2.46-2.46-2.46v0c-1.359 0-2.46 1.101-2.46 2.46s1.101 2.46 2.46 2.46v0zM6.46 8.31c1.359 0 2.46-1.101 2.46-2.46s-1.101-2.46-2.46-2.46v0c-1.359 0-2.46 1.101-2.46 2.46s1.101 2.46 2.46 2.46v0zM17.54 20.61c1.359 0 2.46-1.101 2.46-2.46s-1.101-2.46-2.46-2.46v0c-1.359 0-2.46 1.101-2.46 2.46s1.101 2.46 2.46 2.46v0zM6.46 20.61c1.359 0 2.46-1.101 2.46-2.46s-1.101-2.46-2.46-2.46v0c-1.359 0-2.46 1.101-2.46 2.46s1.101 2.46 2.46 2.46v0z"></path>
</symbol>
<symbol id="icon-milk" viewBox="0 0 24 24">
<path stroke-linejoin="round" stroke-linecap="round" stroke-miterlimit="4" stroke-width="1.5" d="M18 15v4c0 1.65-1.35 3-3 3h-6c-1.65 0-3-1.35-3-3v-5.020l3.89 0.020c0.73 0 1.45 0.17 2.11 0.5s1.38 0.5 2.12 0.5h3.88z"></path>
<path stroke-linejoin="round" stroke-linecap="round" stroke-miterlimit="4" stroke-width="1.5" d="M18 10.83v4.17h-3.88c-0.74 0-1.46-0.17-2.12-0.5-0.615-0.315-1.341-0.5-2.11-0.5h-0l-3.89-0.020v-3.15c0-0.46 0.26-1.090 0.59-1.42l2.12-2.12c0.18-0.18 0.29-0.44 0.29-0.7v-1.59h6v1.59c0 0.26 0.11 0.52 0.29 0.7l2.12 2.12c0.33 0.33 0.59 0.96 0.59 1.42zM18 16v-1M6 14.98v-1M14.5 5h-5c-0.83 0-1.5-0.68-1.5-1.5s0.67-1.5 1.5-1.5h5c0.83 0 1.5 0.68 1.5 1.5s-0.67 1.5-1.5 1.5z"></path>
</symbol>
<symbol id="icon-profile-circle" viewBox="0 0 24 24">
<path stroke-linejoin="round" stroke-linecap="round" stroke-miterlimit="4" stroke-width="1.5" d="M12 22c5.523 0 10-4.477 10-10s-4.477-10-10-10-10 4.477-10 10 4.477 10 10 10z"></path>
<path stroke-linejoin="round" stroke-linecap="round" stroke-miterlimit="4" stroke-width="1.5" d="M12.12 12.78c-0.036-0.005-0.078-0.008-0.12-0.008s-0.084 0.003-0.125 0.008l0.005-0.001c-1.758-0.060-3.16-1.5-3.16-3.267 0-0.001 0-0.002 0-0.003v0c0-1.81 1.46-3.28 3.28-3.28 0.002 0 0.004 0 0.006 0 1.809 0 3.276 1.467 3.276 3.276 0 1.769-1.402 3.211-3.156 3.274l-0.006 0zM18.74 19.38c-1.763 1.624-4.126 2.62-6.722 2.62-0.006 0-0.012 0-0.019-0h0.001c-2.6 0-4.96-0.99-6.74-2.62 0.1-0.94 0.7-1.86 1.77-2.58 2.74-1.82 7.22-1.82 9.94 0 1.070 0.72 1.67 1.64 1.77 2.58z"></path>
</symbol>
<symbol id="icon-setting-2" viewBox="0 0 24 24">
<path stroke-linejoin="round" stroke-linecap="round" stroke-miterlimit="10" stroke-width="1.5" d="M2 12.88v-1.76c0-1.040 0.85-1.9 1.9-1.9 1.81 0 2.55-1.28 1.64-2.85-0.52-0.9-0.21-2.070 0.7-2.59l1.73-0.99c0.79-0.47 1.81-0.19 2.28 0.6l0.11 0.19c0.9 1.57 2.38 1.57 3.29 0l0.11-0.19c0.47-0.79 1.49-1.070 2.28-0.6l1.73 0.99c0.91 0.52 1.22 1.69 0.7 2.59-0.91 1.57-0.17 2.85 1.64 2.85 1.040 0 1.9 0.85 1.9 1.9v1.76c0 1.040-0.85 1.9-1.9 1.9-1.81 0-2.55 1.28-1.64 2.85 0.52 0.91 0.21 2.070-0.7 2.59l-1.73 0.99c-0.79 0.47-1.81 0.19-2.28-0.6l-0.11-0.19c-0.9-1.57-2.38-1.57-3.29 0l-0.11 0.19c-0.47 0.79-1.49 1.070-2.28 0.6l-1.73-0.99c-0.573-0.334-0.951-0.946-0.951-1.646 0-0.347 0.093-0.673 0.256-0.953l-0.005 0.009c0.91-1.57 0.17-2.85-1.64-2.85-1.050 0-1.9-0.86-1.9-1.9z"></path>
<path stroke-linejoin="round" stroke-linecap="round" stroke-miterlimit="10" stroke-width="1.5" d="M12 15c1.657 0 3-1.343 3-3s-1.343-3-3-3v0c-1.657 0-3 1.343-3 3s1.343 3 3 3v0z"></path>
</symbol>
</defs>
</svg>
