<svg width="36" height="36" viewBox="0 0 36 36" fill="none" xmlns="http://www.w3.org/2000/svg">
<g clip-path="url(#clip0_35_803)">
<path d="M36 18C36 21.5601 34.9443 25.0402 32.9665 28.0003C30.9886 30.9603 28.1774 33.2674 24.8883 34.6298C21.5992 35.9922 17.98 36.3487 14.4884 35.6541C10.9967 34.9596 7.78943 33.2453 5.27209 30.7279C2.75474 28.2106 1.04041 25.0033 0.345873 21.5116C-0.348661 18.02 0.00779909 14.4008 1.37018 11.1117C2.73255 7.82263 5.03966 5.01141 7.99974 3.03355C10.9598 1.05568 14.4399 0 18 0C22.7739 0 27.3523 1.89642 30.7279 5.27208C34.1036 8.64773 36 13.2261 36 18Z" fill="#F4F4F4"/>
<path d="M18.0002 1.22424C21.8713 1.22526 25.623 2.56474 28.6194 5.01564C31.6159 7.46654 33.6727 10.8781 34.4413 14.6721C35.21 18.4662 34.6431 22.4092 32.8369 25.8331C31.0306 29.257 28.0961 31.951 24.5307 33.4586C20.4308 35.1906 15.8109 35.223 11.6872 33.5487C7.5635 31.8743 4.27382 28.6305 2.54185 24.5306C0.809879 20.4308 0.777494 15.8109 2.45182 11.6872C4.12614 7.56349 7.37003 4.27381 11.4698 2.54184C13.5359 1.66795 15.757 1.21981 18.0002 1.22424ZM18.0002 0.806641C14.5997 0.806641 11.2755 1.81503 8.448 3.70428C5.62052 5.59354 3.41678 8.27882 2.11543 11.4205C0.81409 14.5623 0.4736 18.0193 1.13702 21.3545C1.80044 24.6898 3.43797 27.7534 5.84254 30.158C8.24711 32.5625 11.3107 34.2001 14.6459 34.8635C17.9812 35.5269 21.4382 35.1864 24.58 33.8851C27.7217 32.5837 30.4069 30.38 32.2962 27.5525C34.1855 24.725 35.1939 21.4008 35.1939 18.0002C35.1939 15.7423 34.7491 13.5066 33.8851 11.4205C33.021 9.33451 31.7545 7.4391 30.158 5.84253C28.5614 4.24596 26.666 2.97948 24.58 2.11543C22.4939 1.25137 20.2581 0.806641 18.0002 0.806641Z" fill="#006EC3"/>
<path d="M18 1.79988C21.7362 1.80254 25.3566 3.09655 28.2481 5.46272C31.1395 7.8289 33.1242 11.1218 33.866 14.7836C34.6077 18.4454 34.061 22.2511 32.3183 25.556C30.5757 28.8609 27.7442 31.4618 24.3036 32.9183C20.368 34.4749 15.9795 34.4295 12.0769 32.7919C8.17432 31.1542 5.06757 28.0544 3.42126 24.1554C1.77495 20.2565 1.71982 15.8681 3.26766 11.929C4.8155 7.98997 7.8434 4.81304 11.7036 3.07788C13.6953 2.23335 15.8367 1.7987 18 1.79988ZM18 1.63428C14.7649 1.63428 11.6025 2.5935 8.91252 4.39067C6.22255 6.18783 4.12585 8.74224 2.88751 11.7309C1.64917 14.7196 1.3248 18.0084 1.9554 21.1814C2.58601 24.3544 4.14329 27.2692 6.43033 29.5573C8.71737 31.8453 11.6315 33.4039 14.8042 34.0359C17.977 34.6679 21.2659 34.345 24.2551 33.1079C27.2443 31.8709 29.7997 29.7753 31.598 27.0862C33.3964 24.397 34.357 21.235 34.3584 17.9999C34.3589 15.8515 33.9361 13.7241 33.1142 11.7392C32.2922 9.75432 31.0873 7.9508 29.5682 6.43169C28.0491 4.91258 26.2456 3.70764 24.2607 2.88572C22.2757 2.0638 20.1484 1.641 18 1.64148V1.63428Z" fill="#006EC3"/>
<path d="M30.3658 17.9998C30.3658 20.4456 29.6405 22.8364 28.2817 24.87C26.923 26.9035 24.9916 28.4885 22.7321 29.4245C20.4725 30.3604 17.9861 30.6053 15.5873 30.1282C13.1885 29.651 10.9851 28.4733 9.25571 26.7439C7.5263 25.0145 6.34855 22.811 5.8714 20.4123C5.39426 18.0135 5.63915 15.5271 6.5751 13.2675C7.51105 11.0079 9.09603 9.07663 11.1296 7.71784C13.1632 6.35904 15.554 5.63379 17.9998 5.63379C21.2795 5.63379 24.4248 6.93663 26.7439 9.25571C29.063 11.5748 30.3658 14.7201 30.3658 17.9998Z" fill="#DADADA"/>
<path d="M30.1605 18.061C30.1612 20.4551 29.4519 22.7956 28.1222 24.7866C26.7926 26.7775 24.9024 28.3293 22.6907 29.2458C20.4789 30.1623 18.0451 30.4023 15.697 29.9354C13.3488 29.4686 11.1919 28.3158 9.49905 26.6229C7.80617 24.93 6.65338 22.7731 6.18649 20.425C5.7196 18.0768 5.95959 15.643 6.8761 13.4313C7.79261 11.2196 9.34446 9.32933 11.3354 7.99968C13.3263 6.67004 15.6668 5.96071 18.0609 5.96143C21.2699 5.96143 24.3475 7.2362 26.6166 9.50532C28.8857 11.7744 30.1605 14.852 30.1605 18.061Z" fill="#F4F4F4"/>
<g style="mix-blend-mode:multiply">
<path d="M31.0825 18.27C30.6109 18.108 30.0673 18.4176 29.7001 18.6804C29.2154 19.0404 28.7701 19.4507 28.3717 19.9044C27.9649 20.34 27.4933 20.6928 27.0577 21.096C26.8573 21.3121 26.6446 21.5165 26.4205 21.708C26.3473 21.7026 26.2778 21.6735 26.2225 21.6252C26.0389 21.4668 26.1865 20.9412 26.2225 20.754C26.3388 20.4352 26.3722 20.092 26.3197 19.7568C26.0821 18.972 24.9877 19.7568 24.6205 20.034C24.2533 20.3112 23.9617 20.7828 23.5405 20.8116C23.1193 20.8404 22.9681 20.3328 22.9573 19.9908C22.9573 19.4256 23.2345 18.9108 23.4289 18.3888C23.7335 17.5252 24.1421 16.702 24.6457 15.9372C24.8788 15.6641 25.0572 15.3488 25.1713 15.0084C25.2049 14.8895 25.2133 14.7649 25.1959 14.6427C25.1785 14.5204 25.1357 14.4031 25.0702 14.2983C25.0048 14.1936 24.9182 14.1037 24.8159 14.0344C24.7137 13.9651 24.5981 13.9179 24.4765 13.896C23.9977 13.8024 23.4685 14.2164 23.1553 14.5152C22.8138 14.8642 22.5317 15.2667 22.3201 15.7068C22.0975 16.1509 21.898 16.6063 21.7225 17.0712C21.6361 17.2836 21.5461 17.4924 21.4489 17.7012C21.3537 17.9349 21.2766 18.1756 21.2185 18.4212C21.1899 18.5275 21.1344 18.6246 21.0575 18.7034C20.9807 18.7822 20.8849 18.8399 20.7793 18.8712C20.4193 18.9576 20.4193 18.3708 20.4193 18.1836C20.4865 17.6626 20.6072 17.1499 20.7793 16.6536C20.9125 16.1928 21.0529 15.7356 21.2221 15.2892C21.3913 14.8428 21.6001 14.4 21.7729 13.9392C21.9169 13.5792 22.4281 12.1392 21.7045 12.0204C20.9809 11.9016 20.4157 12.9204 20.0377 13.3992C19.4616 14.1877 18.966 15.0319 18.5581 15.9192C18.4573 16.1208 18.3493 16.3152 18.2305 16.5096C18.1801 16.596 18.1225 16.6824 18.0649 16.7652L17.9461 16.9308C17.8309 17.0784 17.7085 17.2296 17.5861 17.37C17.5177 17.4492 17.4457 17.5176 17.3701 17.5896C17.4385 17.5248 17.3701 17.5896 17.3017 17.6184L17.2405 17.5968C17.2296 17.5752 17.215 17.5557 17.1973 17.5392C17.1405 17.4552 17.1002 17.3611 17.0785 17.262C16.9937 16.8205 17.0285 16.3643 17.1793 15.9408C17.3374 15.5459 17.4485 15.1339 17.5105 14.7132C17.5105 14.4684 17.6473 14.0976 17.5105 13.8744C17.3197 13.5144 16.0417 15.696 15.9337 15.894C15.3145 17.0424 14.7385 18.2016 13.8025 19.134C13.6621 19.2744 13.3777 19.566 13.1617 19.5804C12.7477 19.6092 12.6253 18.99 12.6037 18.702C12.5901 18.2616 12.646 17.8218 12.7693 17.3988C13.0622 16.4673 13.4318 15.5618 13.8745 14.6916C14.2273 13.896 14.7601 13.212 15.1201 12.4524C15.3145 12.0636 15.5629 11.196 14.9905 11.0124C14.8254 10.9893 14.6573 11.0014 14.4972 11.0479C14.3371 11.0945 14.1887 11.1744 14.0617 11.2824C13.7172 11.5112 13.411 11.7931 13.1545 12.1176C12.6195 12.8124 12.1766 13.5735 11.8369 14.382C11.3365 15.4413 10.9293 16.5423 10.6201 17.6724C10.5085 18.0828 10.5301 18.5184 10.4113 18.9288C10.3573 19.1016 10.0837 19.6488 9.85333 19.5876C9.56173 19.494 9.77773 18.7452 9.81373 18.5472C9.8937 18.1416 10.0294 17.7491 10.2169 17.3808C10.3213 17.1756 11.1133 16.1316 10.8757 15.9048C10.6381 15.678 9.79573 16.164 9.64813 16.3296C9.08293 16.8912 8.59693 17.9316 8.13253 18.5724C7.85533 18.954 7.38373 19.5084 6.86533 19.188C6.34693 18.8676 6.32173 18 6.48013 17.4924C6.75013 16.632 7.59613 16.1244 8.30533 15.6528C8.80213 15.3252 10.0765 14.6808 10.1053 13.9716C10.1341 13.2624 9.02533 13.7808 8.73373 13.9392C7.84853 14.4791 7.0937 15.2081 6.52333 16.074C5.99053 16.8336 5.51533 17.766 5.58733 18.72C5.63773 19.4004 6.07333 20.2284 6.87613 20.088C7.79053 19.926 8.35213 18.7524 8.78053 18.0468C9.04963 17.5843 9.34783 17.1394 9.67333 16.7148C9.81373 16.5348 10.1449 16.0524 10.3933 16.0308C10.9189 15.9804 10.0945 17.1648 9.98653 17.352C9.58333 18.0288 8.74813 19.152 8.97133 19.998C9.15853 20.6964 9.93253 20.4192 10.3213 20.0664C10.9081 19.5336 11.0989 18.72 11.2609 17.9748C11.6713 16.0776 11.9809 14.1228 13.2481 12.5748C13.4425 12.3372 14.0581 11.4768 14.4361 11.6604C14.8141 11.844 14.2525 12.4668 14.1121 12.6576C13.7599 13.1659 13.4447 13.6988 13.1689 14.2524C12.6147 15.2156 12.2127 16.2587 11.9773 17.3448C11.8261 18.144 11.6173 19.6056 12.4993 20.0808C13.3201 20.52 14.0401 19.5444 14.4865 19.008C15.0733 18.288 15.4045 17.3952 15.8437 16.5852C15.5629 17.3772 15.5161 18.324 16.0489 19.008C16.3837 19.44 17.0425 19.3284 17.4889 19.1628C17.9782 18.9251 18.4011 18.5702 18.7201 18.1296C19.3429 17.3772 19.6129 16.4232 19.8793 15.5016C20.0017 15.066 20.1169 14.6304 20.2609 14.202C20.4186 13.7533 20.6366 13.3282 20.9089 12.9384C21.0152 12.7686 21.149 12.6177 21.3049 12.492C21.6397 12.24 21.7369 12.6432 21.7513 12.8808C21.7248 13.3902 21.5911 13.8882 21.3589 14.3424C20.9921 15.2406 20.6843 16.1617 20.4373 17.1C20.3389 17.5043 20.2655 17.9142 20.2177 18.3276C20.1879 18.4758 20.2028 18.6295 20.2605 18.7692C20.3182 18.9089 20.4161 19.0284 20.5417 19.1124C21.0493 19.4256 21.6541 18.8172 21.9817 18.4788C22.4522 17.9626 22.8484 17.3835 23.1589 16.758C23.2489 16.5852 23.2813 16.398 23.3857 16.218C23.4901 16.038 23.7457 15.8904 23.7781 16.236C23.7592 16.4717 23.7021 16.7027 23.6089 16.92C23.5379 17.2876 23.4367 17.6489 23.3065 18C23.1329 18.4536 22.9839 18.9163 22.8601 19.386C22.6909 20.016 22.2985 21.1428 23.2201 21.4344C23.6377 21.5712 24.0841 21.294 24.4261 21.0744C24.6421 20.9448 24.8581 20.8116 25.0669 20.6676C25.1736 20.5925 25.2855 20.5251 25.4017 20.466C25.4017 20.5236 25.3693 20.5776 25.3585 20.6244C25.3175 20.8079 25.2922 20.9946 25.2829 21.1824C25.2328 21.5045 25.2884 21.8341 25.4413 22.122C25.8229 22.7052 26.5897 22.4028 27.0613 22.122C28.2817 21.402 29.0449 20.0448 30.3013 19.3248C30.4849 19.2312 30.4345 19.7316 30.5173 19.7964C31.1689 20.304 32.0941 18.6156 31.0825 18.27Z" fill="#EBEAEA"/>
</g>
<g style="mix-blend-mode:multiply">
<path d="M29.9336 20.5522C29.7432 20.7015 29.6067 20.9087 29.5448 21.1426C29.5349 21.1987 29.5379 21.2564 29.5535 21.3113C29.569 21.3661 29.5968 21.4168 29.6348 21.4594L29.6816 21.4918C29.7016 21.5133 29.7263 21.53 29.7537 21.5406C29.7812 21.5512 29.8107 21.5554 29.84 21.553C30.0522 21.5445 30.2569 21.4716 30.4268 21.3442L30.5132 21.265C30.4412 21.3298 30.4592 21.3154 30.56 21.2254C30.6268 21.151 30.6804 21.0658 30.7184 20.9734C30.7522 20.8934 30.7606 20.8049 30.7426 20.7199C30.7246 20.635 30.6809 20.5576 30.6176 20.4982C30.5192 20.4157 30.3924 20.3752 30.2645 20.3853C30.1366 20.3954 30.0178 20.4553 29.9336 20.5522Z" fill="#EBEAEA"/>
</g>
<g style="mix-blend-mode:multiply">
<path d="M29.2788 21.9131C29.256 21.9105 29.2331 21.9105 29.2104 21.9131C29.1391 21.9126 29.0695 21.9353 29.0124 21.9779C28.97 22.0112 28.9335 22.0513 28.9044 22.0967C28.8781 22.1399 28.8598 22.1874 28.8504 22.2371C28.8468 22.2609 28.8468 22.2852 28.8504 22.3091C28.8504 22.3271 28.8504 22.3451 28.8504 22.3667C28.8629 22.3937 28.8846 22.4153 28.9116 22.4279C28.9279 22.4403 28.9461 22.45 28.9656 22.4567C29.0253 22.4753 29.0892 22.476 29.1493 22.4587C29.2094 22.4414 29.2632 22.4069 29.304 22.3595C29.335 22.3235 29.3586 22.2818 29.3734 22.2367C29.3882 22.1916 29.394 22.144 29.3904 22.0967C29.3859 22.0476 29.3642 22.0017 29.3292 21.9671C29.3181 21.9444 29.3006 21.9256 29.2788 21.9131Z" fill="#EBEAEA"/>
</g>
<path opacity="0.6" d="M30.9132 18.1978C30.4416 18.0358 29.898 18.3418 29.5272 18.6046C29.0441 18.9666 28.5991 19.3767 28.1988 19.8286C27.7956 20.2678 27.324 20.617 26.8848 21.0238C26.6853 21.2408 26.4725 21.4452 26.2476 21.6358C26.1748 21.629 26.1057 21.6001 26.0496 21.553C25.866 21.391 26.0136 20.869 26.0496 20.6818C26.1626 20.3622 26.1947 20.0197 26.1432 19.6846C25.9056 18.8962 24.8148 19.6846 24.4476 19.9618C24.0804 20.239 23.7852 20.707 23.346 20.7358C22.9068 20.7646 22.7772 20.257 22.7664 19.9186C22.7664 19.3498 23.0436 18.8386 23.238 18.3166C23.5421 17.4524 23.9494 16.628 24.4512 15.8614C24.6848 15.5881 24.8644 15.2729 24.9804 14.9326C25.0134 14.8137 25.0212 14.6893 25.0033 14.5672C24.9854 14.4452 24.9422 14.3282 24.8764 14.2238C24.8107 14.1194 24.7238 14.0299 24.6215 13.961C24.5191 13.8921 24.4035 13.8454 24.282 13.8238C23.8032 13.7266 23.274 14.1406 22.9608 14.443C22.6231 14.7922 22.3435 15.1933 22.1328 15.631C21.9024 16.0738 21.7224 16.5346 21.5352 16.9954C21.4488 17.2078 21.3588 17.4202 21.2616 17.629C21.168 17.8633 21.091 18.1039 21.0312 18.349C21.0026 18.455 20.9472 18.5517 20.8703 18.6299C20.7933 18.7081 20.6975 18.7651 20.592 18.7954C20.232 18.8854 20.232 18.2986 20.232 18.1078C20.2975 17.5877 20.4181 17.076 20.592 16.5814C20.7288 16.1206 20.8656 15.6634 21.0348 15.2134C21.204 14.7634 21.438 14.3242 21.6108 13.8706C21.7512 13.5106 22.2624 12.0706 21.5424 11.9482C20.8224 11.8258 20.2428 12.8482 19.8648 13.3198C19.2907 14.109 18.7963 14.9531 18.3888 15.8398C18.2844 16.0414 18.1764 16.2394 18.0612 16.4302C18.0072 16.5202 17.9496 16.603 17.892 16.6894C17.892 16.6894 17.7588 16.8766 17.7768 16.855C17.658 17.0026 17.5392 17.1502 17.4168 17.2942C17.3484 17.3698 17.2728 17.4418 17.1972 17.5138C17.2656 17.449 17.1972 17.4958 17.1288 17.5426L17.0712 17.521C17.0591 17.4993 17.0432 17.4798 17.0244 17.4634C16.9673 17.3787 16.9281 17.2831 16.9092 17.1826C16.8223 16.7427 16.8559 16.2874 17.0064 15.865C17.164 15.47 17.2752 15.0581 17.3376 14.6374C17.3556 14.3926 17.478 14.0218 17.3556 13.795C17.1648 13.435 15.8868 15.6202 15.7824 15.8146C15.1632 16.963 14.5836 18.1258 13.6512 19.0546C13.5072 19.195 13.2228 19.4866 13.0104 19.501C12.5964 19.5298 12.474 18.9106 12.4488 18.619C12.4319 18.1771 12.4828 17.7351 12.6 17.3086C12.8936 16.3774 13.2632 15.472 13.7052 14.6014C14.0436 13.8238 14.5764 13.1362 14.9544 12.3766C15.1488 11.9914 15.3936 11.1202 14.8248 10.9366C14.6597 10.9142 14.4918 10.9266 14.3318 10.9731C14.1718 11.0197 14.0234 11.0992 13.896 11.2066C13.5519 11.4374 13.2449 11.719 12.9852 12.0418C12.4513 12.7368 12.0097 13.4979 11.6712 14.3062C11.1723 15.3666 10.7641 16.4674 10.4508 17.5966C10.3428 18.0106 10.3644 18.4462 10.242 18.853C10.188 19.0258 9.91443 19.573 9.68763 19.5154C9.39243 19.4218 9.60843 18.673 9.64803 18.475C9.73252 18.0644 9.87814 17.6688 10.08 17.3014C10.1844 17.0962 10.9728 16.0486 10.7352 15.8218C10.4976 15.595 9.52203 16.423 9.36003 16.585C8.79483 17.1502 8.44203 17.8522 7.97763 18.4894C7.69683 18.8746 7.22883 19.429 6.70683 19.1086C6.18483 18.7882 6.14883 17.935 6.31443 17.4202C6.58443 16.5598 7.42683 16.0486 8.13603 15.5806C8.63283 15.2494 9.90723 14.605 9.93603 13.8958C9.96483 13.1866 8.85603 13.705 8.56083 13.867C7.67572 14.4055 6.92085 15.1333 6.35043 15.9982C5.82123 16.7614 5.34243 17.6902 5.41443 18.6478C5.46483 19.3282 5.90403 20.1562 6.70683 20.0122C7.61763 19.8502 8.17923 18.6766 8.60763 17.9746C8.87714 17.5113 9.17532 17.0652 9.50043 16.639C9.64443 16.4626 9.97563 15.9766 10.2204 15.955C10.7496 15.9082 9.92523 17.089 9.81363 17.2762C9.41043 17.9566 8.57523 19.0762 8.80203 19.9222C8.98563 20.6242 9.75963 20.3434 10.1484 19.9906C10.7388 19.4578 10.926 18.6442 11.088 17.9026C11.502 16.0018 11.808 14.0506 13.0788 12.5026C13.2696 12.265 13.8852 11.4226 14.2668 11.5918C14.6484 11.761 14.0796 12.3982 13.9392 12.589C13.5883 13.0981 13.2731 13.631 12.996 14.1838C12.4539 15.1506 12.063 16.1947 11.8368 17.2798C11.6856 18.079 11.4768 19.5406 12.3588 20.0158C13.1544 20.4442 13.8816 19.483 14.3172 18.9358C14.9004 18.2158 15.2352 17.323 15.6744 16.513C15.39 17.3086 15.3432 18.2518 15.876 18.9358C16.2144 19.3714 16.8732 19.2598 17.316 19.0942C17.8032 18.8566 18.2256 18.5046 18.5472 18.0682C19.17 17.3158 19.44 16.3582 19.7064 15.4402C19.8324 15.0046 19.9476 14.569 20.0916 14.137C20.2481 13.6885 20.4649 13.2634 20.736 12.8734C20.8416 12.7011 20.9755 12.5477 21.132 12.4198C21.4632 12.1642 21.5604 12.571 21.5748 12.8086C21.5486 13.3169 21.4148 13.8138 21.1824 14.2666C20.8195 15.1659 20.5129 16.0869 20.2644 17.0242C20.1625 17.429 20.0891 17.8404 20.0448 18.2554C20.0132 18.4033 20.0268 18.5573 20.084 18.6972C20.1411 18.8372 20.2392 18.9568 20.3652 19.0402C20.8764 19.3498 21.4776 18.7414 21.8052 18.4066C22.276 17.89 22.6733 17.3109 22.986 16.6858C23.0724 16.513 23.1084 16.3258 23.2128 16.1458C23.3172 15.9658 23.5728 15.8182 23.6016 16.1458C23.5865 16.374 23.5367 16.5986 23.454 16.8118C23.3828 17.1798 23.2804 17.5411 23.148 17.8918C22.9646 18.3466 22.8084 18.8118 22.68 19.285C22.5108 19.915 22.1184 21.0382 23.0184 21.3334C23.436 21.4702 23.886 21.1894 24.228 20.9734C24.444 20.8474 24.66 20.7106 24.8652 20.5702C24.9714 20.4965 25.0834 20.4315 25.2 20.3758C25.2 20.4334 25.1676 20.491 25.1568 20.5342C25.1126 20.7185 25.0861 20.9065 25.0776 21.0958C25.0286 21.4183 25.0855 21.748 25.2396 22.0354C26.1 23.353 28.0548 21.0742 28.6236 20.4478C28.9201 20.1166 29.259 19.8261 29.6316 19.5838C29.7216 19.5262 29.9088 19.3462 30.0924 19.2238C30.2796 19.1302 30.2292 19.627 30.312 19.6954C30.996 20.2318 31.9248 18.5434 30.9132 18.1978Z" fill="#A96A26"/>
<path opacity="0.4" d="M30.449 20.4226C30.3499 20.3419 30.2236 20.3025 30.0962 20.3126C29.9688 20.3226 29.8502 20.3814 29.765 20.4766C29.5754 20.6266 29.4391 20.8336 29.3762 21.067C29.3649 21.1232 29.3672 21.1812 29.3828 21.2363C29.3985 21.2914 29.4271 21.342 29.4662 21.3838L29.513 21.4198C29.5325 21.4419 29.5572 21.4587 29.5849 21.4688C29.6125 21.4788 29.6423 21.4818 29.6714 21.4774C29.8775 21.4656 30.0754 21.3929 30.2402 21.2686L30.3266 21.193C30.2582 21.2578 30.2726 21.2434 30.377 21.1498C30.4446 21.0781 30.4972 20.9937 30.5318 20.9014C30.5681 20.8226 30.5796 20.7346 30.5648 20.6491C30.5501 20.5636 30.5097 20.4847 30.449 20.4226Z" fill="#A96A26"/>
<path opacity="0.4" d="M29.1776 21.8844C29.1592 21.8622 29.1338 21.8469 29.1056 21.8412C29.084 21.8387 29.0623 21.8387 29.0408 21.8412C28.969 21.8412 28.8992 21.8652 28.8428 21.9096C28.7977 21.9409 28.7596 21.9814 28.7312 22.0284C28.7054 22.0715 28.6883 22.1191 28.6808 22.1688C28.6754 22.1913 28.6754 22.2147 28.6808 22.2372C28.6792 22.2576 28.6792 22.278 28.6808 22.2984C28.6941 22.3236 28.714 22.3447 28.7384 22.3596C28.7547 22.372 28.7729 22.3818 28.7924 22.3884C28.8525 22.4061 28.9164 22.406 28.9765 22.3881C29.0366 22.3702 29.0902 22.3353 29.1308 22.2876C29.1938 22.2165 29.2262 22.1233 29.2208 22.0284C29.2229 21.9769 29.2077 21.9262 29.1776 21.8844Z" fill="#A96A26"/>
<g style="mix-blend-mode:screen">
<g style="mix-blend-mode:screen" opacity="0.4">
<path d="M9.62655 13.7338C9.00616 13.8623 8.42283 14.1294 7.92015 14.515C7.38761 14.96 6.92839 15.486 6.55935 16.0738C6.52695 16.1242 6.58455 16.1494 6.62055 16.1134C6.82575 15.9046 6.99855 15.6634 7.20375 15.451C7.43154 15.2116 7.67188 14.9845 7.92375 14.7706C8.44409 14.3691 9.01099 14.0318 9.61215 13.7662C9.61215 13.7662 9.64815 13.7266 9.62655 13.7338Z" fill="white"/>
</g>
<g style="mix-blend-mode:screen" opacity="0.4">
<path d="M6.63124 19.663C6.49013 19.6546 6.35254 19.6155 6.22816 19.5483C6.10377 19.4812 5.9956 19.3876 5.91124 19.2742C5.72365 19.0358 5.6199 18.7423 5.61604 18.439C5.61604 18.439 5.59444 18.439 5.59084 18.439C5.54044 19.0438 5.87884 19.8214 6.59164 19.7494C6.64924 19.753 6.68884 19.6702 6.63124 19.663Z" fill="white"/>
</g>
<g style="mix-blend-mode:screen" opacity="0.4">
<path d="M10.0545 19.7384C9.84569 19.8824 9.46769 20.0552 9.23369 19.8716C9.23369 19.8716 9.20489 19.8716 9.21209 19.8932C9.24801 19.9693 9.30944 20.0305 9.38573 20.066C9.46202 20.1015 9.54834 20.1091 9.62969 20.0876C9.81212 20.0409 9.97637 19.9406 10.1013 19.7996C10.1337 19.76 10.1013 19.706 10.0545 19.7384Z" fill="white"/>
</g>
<g style="mix-blend-mode:screen" opacity="0.4">
<path d="M17.0528 17.6938C15.9728 17.6362 17.186 14.893 17.2148 14.3566C17.2148 14.3386 17.1896 14.3566 17.1896 14.3566C17.056 14.7708 16.896 15.176 16.7108 15.5698C16.5765 15.9017 16.4776 16.2468 16.4156 16.5994C16.3652 16.9918 16.3976 17.9242 17.0384 17.7514C17.06 17.7478 17.0924 17.6938 17.0528 17.6938Z" fill="white"/>
</g>
<g style="mix-blend-mode:screen" opacity="0.4">
<path d="M18.533 17.6396C18.318 17.9352 18.0508 18.1889 17.7446 18.3884C17.6942 18.4316 17.7122 18.5108 17.7806 18.4676C18.1332 18.2949 18.4118 18.001 18.5654 17.6396C18.5726 17.6396 18.5438 17.6396 18.533 17.6396Z" fill="white"/>
</g>
<g style="mix-blend-mode:screen" opacity="0.4">
<path d="M24.4588 14.0396C23.98 13.8452 23.584 14.1116 23.2168 14.3996C23.2168 14.3996 23.2168 14.45 23.2168 14.4356C23.4712 14.2707 23.7669 14.1809 24.07 14.1764C24.43 14.1944 24.6244 14.6732 24.592 14.9648C24.592 15.008 24.6388 14.9972 24.6532 14.9648C24.8044 14.7056 24.8116 14.1764 24.4588 14.0396Z" fill="white"/>
</g>
<g style="mix-blend-mode:screen" opacity="0.4">
<path d="M24.3683 15.4293C24.3359 15.4797 24.2999 15.5229 24.2675 15.5733C24.2351 15.6237 24.2675 15.6525 24.2927 15.6525C24.3129 15.6527 24.3325 15.6454 24.3478 15.6322C24.363 15.6189 24.3729 15.6005 24.3755 15.5805C24.3755 15.5301 24.3755 15.4797 24.3755 15.4293C24.3755 15.3789 24.3755 15.4185 24.3683 15.4293Z" fill="white"/>
</g>
<g style="mix-blend-mode:screen" opacity="0.4">
<path d="M26.5501 21.823C26.1901 21.9598 25.7797 22.1146 25.5133 21.7294C25.3153 21.4414 25.3657 21.0094 25.3477 20.6494C25.2757 21.1174 25.1281 21.5674 25.4521 21.9706C25.7761 22.3738 26.2909 22.1218 26.5969 21.895C26.6401 21.8806 26.6401 21.7942 26.5501 21.823Z" fill="white"/>
</g>
<g style="mix-blend-mode:screen" opacity="0.4">
<path d="M30.2684 20.5524C30.2583 20.5204 30.2381 20.4926 30.2109 20.4732C30.1836 20.4537 30.1507 20.4436 30.1172 20.4444C29.9928 20.4601 29.8793 20.5233 29.8004 20.6208C29.732 20.6928 29.6024 20.8548 29.6744 20.9628C29.6788 21.0048 29.6951 21.0448 29.7212 21.078C29.7968 21.1752 29.948 21.078 30.02 21.0384C30.0639 21.0047 30.1038 20.966 30.1388 20.9232L30.1892 20.8548C30.1568 20.9124 30.218 20.8152 30.218 20.8152C30.2479 20.7792 30.2682 20.7362 30.2771 20.6903C30.2859 20.6443 30.2829 20.5969 30.2684 20.5524Z" fill="white"/>
</g>
<g style="mix-blend-mode:screen" opacity="0.4">
<path d="M28.9549 21.8914C28.9398 21.8936 28.9254 21.8992 28.9129 21.908C28.9004 21.9168 28.8901 21.9283 28.8829 21.9418C28.8829 21.967 28.8541 22.0138 28.8829 22.0354C28.9261 22.075 28.9765 22.0354 28.9981 21.985C29.0197 21.9346 29.0161 21.877 28.9549 21.8914Z" fill="white"/>
</g>
<g style="mix-blend-mode:screen" opacity="0.4">
<path d="M30.8592 18.8207C30.8235 18.7935 30.7799 18.7788 30.735 18.7788C30.6901 18.7788 30.6465 18.7935 30.6108 18.8207C30.5604 18.8502 30.5169 18.8902 30.4834 18.9381C30.4498 18.9859 30.427 19.0404 30.4164 19.0979C30.4091 19.125 30.4082 19.1534 30.4138 19.1809C30.4194 19.2084 30.4314 19.2342 30.4488 19.2563L30.5136 19.2959C30.5361 19.3085 30.5616 19.3151 30.5874 19.3151C30.6132 19.3151 30.6386 19.3085 30.6612 19.2959C30.7406 19.2565 30.8059 19.1936 30.8484 19.1159C30.8791 19.0732 30.8965 19.0224 30.8985 18.9699C30.9004 18.9174 30.8867 18.8654 30.8592 18.8207Z" fill="white"/>
</g>
</g>
<path opacity="0.4" d="M8.18294 14.9795C8.09654 14.9795 8.01374 15.1487 8.11814 15.1487C8.22254 15.1487 8.28014 14.9795 8.18294 14.9795Z" fill="#7B4E19"/>
<path opacity="0.4" d="M8.89579 14.5225C8.83099 14.5225 8.7698 14.6449 8.849 14.6449C8.9282 14.6449 8.97139 14.5225 8.89579 14.5225Z" fill="#7B4E19"/>
<path opacity="0.4" d="M6.59194 16.2612C6.55954 16.2612 6.52354 16.3332 6.56674 16.3332C6.60994 16.3332 6.63874 16.2612 6.59194 16.2612Z" fill="#7B4E19"/>
<path opacity="0.4" d="M6.12046 17.3521C6.09886 17.3341 6.07005 17.3521 6.05925 17.3737V17.3917C6.03765 17.4241 6.05926 17.4493 6.10246 17.4277C6.10246 17.4277 6.14926 17.3737 6.12046 17.3521Z" fill="#7B4E19"/>
<path opacity="0.4" d="M7.4414 19.4185C7.3874 19.3681 7.3154 19.4509 7.3046 19.5013C7.30381 19.5088 7.30483 19.5163 7.30757 19.5233C7.3103 19.5303 7.31468 19.5365 7.32033 19.5415C7.32597 19.5464 7.33273 19.5499 7.34001 19.5517C7.3473 19.5535 7.35491 19.5535 7.3622 19.5517C7.4234 19.5517 7.4954 19.4689 7.4414 19.4185Z" fill="#7B4E19"/>
<path opacity="0.4" d="M6.86113 19.6021C6.83593 19.6021 6.81073 19.656 6.86113 19.656C6.91153 19.656 6.89713 19.6021 6.86113 19.6021Z" fill="#7B4E19"/>
<path opacity="0.4" d="M10.3279 19.4614C10.2883 19.4614 10.2487 19.5406 10.2991 19.5406C10.3495 19.5406 10.3783 19.4614 10.3279 19.4614Z" fill="#7B4E19"/>
<path opacity="0.4" d="M10.6377 18.2914C10.6247 18.2957 10.6129 18.3027 10.6029 18.3121C10.593 18.3214 10.5852 18.3328 10.5801 18.3454C10.5801 18.3886 10.6017 18.4138 10.6413 18.3994C10.6589 18.3924 10.6738 18.3798 10.6835 18.3636C10.6933 18.3473 10.6974 18.3283 10.6953 18.3094C10.6881 18.277 10.6593 18.277 10.6377 18.2914Z" fill="#7B4E19"/>
<path opacity="0.4" d="M14.8613 12.0889C14.8724 12.0931 14.8846 12.0932 14.8958 12.0893C14.907 12.0853 14.9165 12.0775 14.9225 12.0673C15.0053 11.9665 14.7785 12.0313 14.8613 12.0889Z" fill="#7B4E19"/>
<path opacity="0.4" d="M14.7922 11.322C14.783 11.3194 14.7732 11.3198 14.7642 11.323C14.7551 11.3263 14.7473 11.3322 14.7418 11.34C14.7382 11.3453 14.7363 11.3515 14.7363 11.358C14.7363 11.3644 14.7382 11.3706 14.7418 11.376C14.7598 11.4156 14.8102 11.376 14.821 11.3508C14.8318 11.3256 14.8102 11.3292 14.7922 11.322Z" fill="#7B4E19"/>
<path opacity="0.4" d="M13.1074 19.6416C13.0426 19.6416 12.9778 19.7748 13.0606 19.7748C13.1434 19.7748 13.1938 19.6416 13.1074 19.6416Z" fill="#7B4E19"/>
<path opacity="0.4" d="M12.3806 19.6309C12.3338 19.6309 12.2834 19.7245 12.3482 19.7245C12.413 19.7245 12.4418 19.6309 12.3806 19.6309Z" fill="#7B4E19"/>
<path opacity="0.4" d="M18.5152 17.1575C18.49 17.1359 18.4504 17.1575 18.4324 17.1755H18.4144C18.4144 17.1935 18.3784 17.2367 18.4144 17.2619C18.4504 17.2871 18.4792 17.2619 18.5008 17.2619V17.2439C18.5075 17.2392 18.5132 17.2333 18.5176 17.2264C18.522 17.2195 18.5249 17.2118 18.5262 17.2037C18.5276 17.1957 18.5273 17.1874 18.5254 17.1795C18.5235 17.1715 18.5201 17.1641 18.5152 17.1575Z" fill="#7B4E19"/>
<path opacity="0.4" d="M17.28 18.4141C17.2188 18.4141 17.1576 18.5365 17.2368 18.5365C17.316 18.5365 17.3664 18.4141 17.28 18.4141Z" fill="#7B4E19"/>
<path opacity="0.4" d="M16.2905 18.1909C16.2437 18.1909 16.2005 18.2809 16.2581 18.2809C16.3157 18.2809 16.3445 18.1909 16.2905 18.1909Z" fill="#7B4E19"/>
<path opacity="0.4" d="M16.304 17.7012C16.2608 17.7012 16.2212 17.7804 16.2752 17.7804C16.3292 17.7804 16.3544 17.7012 16.304 17.7012Z" fill="#7B4E19"/>
<path opacity="0.4" d="M16.4591 18.8998C16.4534 18.8954 16.4464 18.8931 16.4393 18.8931C16.4321 18.8931 16.4251 18.8954 16.4195 18.8998C16.3979 18.925 16.3979 18.979 16.4411 18.9682C16.4843 18.9574 16.5023 18.9178 16.4591 18.8998Z" fill="#7B4E19"/>
<path opacity="0.4" d="M20.29 13.1221C20.254 13.1221 20.2216 13.1941 20.2648 13.1941C20.308 13.1941 20.3368 13.1221 20.29 13.1221Z" fill="#7B4E19"/>
<path opacity="0.4" d="M19.9367 13.8025C19.9187 13.7557 19.8359 13.8025 19.8467 13.8529C19.8481 13.8638 19.8532 13.874 19.861 13.8818C19.8688 13.8896 19.8789 13.8946 19.8899 13.8961C19.9367 13.8997 19.9799 13.8169 19.9367 13.8025Z" fill="#7B4E19"/>
<path opacity="0.4" d="M22.0791 17.5502C22.0782 17.5441 22.0752 17.5386 22.0706 17.5346C22.0659 17.5307 22.06 17.5285 22.0539 17.5286C22.0179 17.5034 21.9783 17.5034 21.9891 17.5934C21.9891 17.5934 21.9891 17.5934 22.0143 17.5934C22.1043 17.6402 22.1043 17.5862 22.0791 17.5502Z" fill="#7B4E19"/>
<path opacity="0.4" d="M21.5173 17.5176C21.4561 17.5176 21.3949 17.64 21.4741 17.64C21.5533 17.64 21.6001 17.5176 21.5173 17.5176Z" fill="#7B4E19"/>
<path opacity="0.4" d="M23.4506 15.2134C23.4038 15.2134 23.3606 15.2998 23.4182 15.2998C23.4758 15.2998 23.5046 15.2134 23.4506 15.2134Z" fill="#7B4E19"/>
<path opacity="0.4" d="M24.0483 14.7349C23.9871 14.7349 23.9331 14.8501 24.0051 14.8501C24.0771 14.8501 24.1203 14.7349 24.0483 14.7349Z" fill="#7B4E19"/>
<path opacity="0.4" d="M23.8678 16.2324C23.8174 16.2324 23.7706 16.3296 23.8318 16.3296C23.893 16.3296 23.929 16.2324 23.8678 16.2324Z" fill="#7B4E19"/>
<path opacity="0.4" d="M24.0943 20.7433C24.0403 20.7433 23.9899 20.8333 24.0403 20.8513C24.0907 20.8693 24.1555 20.8513 24.1447 20.7901C24.1447 20.7836 24.1434 20.7772 24.1408 20.7713C24.1383 20.7654 24.1345 20.7601 24.1298 20.7557C24.125 20.7513 24.1194 20.7479 24.1133 20.7458C24.1072 20.7436 24.1008 20.7428 24.0943 20.7433Z" fill="#7B4E19"/>
<path opacity="0.4" d="M23.4253 20.8801C23.4037 20.8621 23.3713 20.8801 23.3533 20.8801C23.3533 20.8981 23.3209 20.9341 23.3533 20.9521C23.3857 20.9701 23.4073 20.9521 23.4289 20.9521C23.4365 20.9415 23.4404 20.9285 23.4397 20.9154C23.4391 20.9023 23.434 20.8899 23.4253 20.8801Z" fill="#7B4E19"/>
<path opacity="0.4" d="M25.6967 20.8799C25.6427 20.8799 25.5887 20.9879 25.6571 20.9879C25.7255 20.9879 25.7615 20.8799 25.6967 20.8799Z" fill="#7B4E19"/>
<path opacity="0.4" d="M26.0563 21.751C26.0275 21.751 26.0023 21.8014 26.0347 21.8014C26.0671 21.8014 26.0887 21.751 26.0563 21.751Z" fill="#7B4E19"/>
<path opacity="0.4" d="M28.2244 20.3184C28.1776 20.3184 28.1272 20.4156 28.1884 20.4156C28.2496 20.4156 28.2856 20.3184 28.2244 20.3184Z" fill="#7B4E19"/>
<path opacity="0.4" d="M27.5652 20.8799C27.5256 20.8799 27.486 20.9591 27.5364 20.9591C27.5868 20.9591 27.6156 20.8799 27.5652 20.8799Z" fill="#7B4E19"/>
<path opacity="0.4" d="M29.3971 19.2671C29.3395 19.2671 29.2819 19.3823 29.3539 19.3823C29.4259 19.3823 29.4691 19.2671 29.3971 19.2671Z" fill="#7B4E19"/>
<path opacity="0.4" d="M30.0459 18.529C30.0459 18.5614 30.0855 18.529 30.0855 18.529C30.0855 18.4894 30.0459 18.5038 30.0459 18.529Z" fill="#7B4E19"/>
<path opacity="0.4" d="M29.9012 21.2402C29.9012 21.2726 29.9624 21.2402 29.966 21.2186C29.9912 21.1322 29.8796 21.1646 29.9012 21.2402Z" fill="#7B4E19"/>
<path opacity="0.4" d="M30.4057 20.8511C30.4057 20.8511 30.3805 20.8763 30.4057 20.8763C30.4309 20.8763 30.4237 20.8511 30.4057 20.8511Z" fill="#7B4E19"/>
<path opacity="0.4" d="M29.0123 22.0068C28.9547 22.0068 28.8971 22.122 28.9727 22.122C29.0483 22.122 29.0843 22.0068 29.0123 22.0068Z" fill="#7B4E19"/>
<path opacity="0.4" d="M11.095 16.7832C11.095 16.7832 11.059 16.7832 11.0518 16.7832C11.0518 16.8084 11.0518 16.8444 11.0806 16.8372C11.1094 16.83 11.1202 16.8084 11.095 16.7832Z" fill="#7B4E19"/>
<path opacity="0.4" d="M11.2966 15.5483C11.2498 15.5483 11.1994 15.6455 11.2642 15.6455C11.329 15.6455 11.3578 15.5483 11.2966 15.5483Z" fill="#7B4E19"/>
<path opacity="0.4" d="M8.71547 17.5679C8.71547 17.5319 8.65427 17.5679 8.64347 17.5931C8.63267 17.6183 8.64347 17.6255 8.64347 17.6327C8.64347 17.6399 8.67587 17.6327 8.69027 17.6327C8.69886 17.6361 8.70843 17.6359 8.71687 17.6322C8.72531 17.6284 8.73193 17.6215 8.73527 17.6129C8.73861 17.6043 8.7384 17.5948 8.73469 17.5863C8.73098 17.5779 8.72406 17.5713 8.71547 17.5679Z" fill="#7B4E19"/>
<path opacity="0.4" d="M6.14902 19.0078C6.09862 19.0078 6.05182 19.1086 6.11662 19.1086C6.18142 19.1086 6.21022 19.0078 6.14902 19.0078Z" fill="#7B4E19"/>
<path opacity="0.4" d="M5.85685 18.522C5.78845 18.522 5.72365 18.6552 5.81005 18.6552C5.89645 18.6552 5.93965 18.522 5.85685 18.522Z" fill="#7B4E19"/>
<path d="M18.3056 13.8277C17.9456 13.5145 17.6504 12.4453 17.5856 9.91089C17.6133 8.11639 18.1097 6.3603 19.0256 4.81689C17.709 6.70614 17.1184 9.00709 17.3624 11.2969C17.459 12.2383 17.6153 13.1726 17.8304 14.0941C17.9888 14.6161 18.0932 14.5117 18.6404 15.1129C18.8246 15.2994 18.9498 15.5361 19.0004 15.7933C19.1372 15.6762 19.2507 15.5346 19.3352 15.3757C19.1001 14.7955 18.7498 14.2689 18.3056 13.8277Z" fill="#8E785A"/>
<path d="M17.8592 14.0904C17.644 13.1688 17.4877 12.2345 17.3912 11.2932C17.1472 9.00335 17.7378 6.7024 19.0544 4.81315C19.2427 4.47516 19.4557 4.15149 19.6916 3.84475C19.976 3.48475 19.1156 3.05995 18.4892 3.42355C17.8628 3.78715 16.736 5.09755 15.638 8.88475C14.558 13.878 16.8908 16.5204 16.8908 16.5204C17.3804 16.4772 18.428 16.3116 19.0508 15.8004C19.0001 15.5431 18.8749 15.3065 18.6908 15.12C18.122 14.508 18.0176 14.6124 17.8592 14.0904Z" fill="#B6A68A"/>
<g style="mix-blend-mode:multiply">
<path d="M17.6042 9.52197C16.8129 10.0845 16.0589 10.6978 15.347 11.358C15.3285 12.4597 15.5027 13.5562 15.8618 14.598C16.0757 13.8109 16.4148 13.0633 16.8662 12.384C17.0901 12.0548 17.3647 11.7632 17.6798 11.52C17.6402 11.0664 17.6114 10.5372 17.6006 9.92157C17.597 9.78117 17.6006 9.65157 17.6042 9.52197Z" fill="#9E8D71"/>
</g>
<path d="M13.4959 15.372C13.2871 14.9544 13.1575 14.2488 13.5751 13.122C13.8343 12.4308 13.9999 12.1464 14.1295 11.8188C13.0783 13.3776 12.6895 14.9796 12.9487 16.3368C13.0518 16.4586 13.1778 16.5589 13.3195 16.632C13.4671 16.2504 13.6363 15.6456 13.4959 15.372Z" fill="#A78D6A"/>
<path d="M25.3796 5.72766C25.2176 5.33886 25.0952 5.39286 24.5228 5.52966C23.9504 5.66646 19.0112 6.77526 15.8396 9.88206C15.2012 10.4587 14.6333 11.1088 14.1476 11.8189C14.018 12.1465 13.8524 12.4309 13.5932 13.1221C13.1756 14.2489 13.3052 14.9545 13.514 15.3721C13.6544 15.6457 13.4852 16.2505 13.352 16.6321C14.2705 17.0589 15.2513 17.336 16.2572 17.4529C16.1652 17.156 15.9715 16.901 15.71 16.7329C15.1592 16.3945 15.3716 16.3945 15.422 16.0525C15.4724 15.7105 15.2384 15.5305 15.0296 14.9293C14.8208 14.3281 15.1592 13.9645 15.2924 13.6225C15.3591 13.4171 15.4842 13.2357 15.6524 13.1005C15.7856 12.9709 15.7856 12.8665 16.0736 12.3193C16.3616 11.7721 17.1536 11.0125 17.9528 10.2781C18.752 9.54366 20.2604 8.41686 21.2684 8.43126C22.427 7.81866 23.6304 7.29515 24.8684 6.86526C25.5596 6.64926 25.538 6.18126 25.3796 5.72766Z" fill="#D6C3A2"/>
<path d="M17.9388 10.2743C17.1288 10.9943 16.344 11.7647 16.0596 12.3155C15.7752 12.8663 15.7716 12.9671 15.6384 13.0967C15.4702 13.2319 15.3451 13.4134 15.2784 13.6187C15.1452 13.9787 14.8068 14.3387 15.0156 14.9255C15.2244 15.5123 15.462 15.7103 15.408 16.0487C15.354 16.3871 15.1452 16.4087 15.696 16.7291C15.9574 16.8973 16.1512 17.1522 16.2432 17.4491C16.7981 17.5627 17.3714 17.5504 17.9208 17.4131C17.9208 17.4131 15.876 17.0531 15.7608 15.0443C15.7104 14.0399 16.4448 11.6639 19.9116 9.2267C20.3688 8.9279 20.8188 8.6615 21.258 8.4239C20.2464 8.4131 18.72 9.5867 17.9388 10.2743Z" fill="#A78D6A"/>
<path d="M15.2063 12.1178C15.0971 12.1658 14.9913 12.2211 14.8895 12.2834C14.8895 12.1826 14.8895 12.0854 14.8895 11.9882L15.1631 11.8298C15.1631 11.8298 15.1919 11.7794 15.1631 11.7902C15.0695 11.837 14.9759 11.8838 14.8859 11.9378C14.8859 11.8046 14.8859 11.675 14.9075 11.5454C14.9075 11.5454 14.8751 11.5454 14.8715 11.5454C14.8715 11.6786 14.8499 11.8118 14.8427 11.945L14.7095 12.035C14.7095 11.8946 14.7383 11.7542 14.7563 11.6138C14.7563 11.5886 14.7275 11.6138 14.7239 11.6138C14.7023 11.7578 14.6771 11.909 14.6591 12.0638C14.5934 12.1139 14.5309 12.168 14.4719 12.2258C14.4719 12.2258 14.4719 12.2582 14.4719 12.2438C14.5249 12.1941 14.5814 12.1484 14.6411 12.107C14.6411 12.2114 14.6195 12.3158 14.6159 12.4238L14.4287 12.5678C14.4287 12.5678 14.4287 12.6182 14.4287 12.5966C14.4287 12.575 14.5439 12.5102 14.6015 12.4706C14.6027 12.6354 14.6221 12.7996 14.6591 12.9602C14.6591 12.9854 14.7023 12.9602 14.7023 12.935C14.6915 12.7816 14.6915 12.6276 14.7023 12.4742L14.8535 12.3806C14.8535 12.4922 14.8535 12.6038 14.8535 12.7118C14.8535 12.737 14.8931 12.7118 14.8931 12.6866C14.8931 12.575 14.8931 12.4634 14.8931 12.3518L15.2063 12.1718C15.2063 12.1718 15.2315 12.107 15.2063 12.1178ZM14.6915 12.4094C14.6915 12.305 14.6915 12.2006 14.6915 12.0998C14.7349 12.0676 14.7806 12.0387 14.8283 12.0134C14.8283 12.1106 14.8283 12.2114 14.8283 12.3086L14.6915 12.4094Z" fill="#A78D6A"/>
<g style="mix-blend-mode:multiply">
<path d="M14.9907 16.711C14.5947 16.711 14.1663 16.4338 13.7919 16.3006C13.5106 16.1764 13.2119 16.0963 12.9063 16.063C12.9062 16.1566 12.9315 16.2466 12.9495 16.3366C13.0525 16.4583 13.1785 16.5586 13.3203 16.6318C14.2387 17.0586 15.2195 17.3357 16.2255 17.4526C16.7803 17.5662 17.3536 17.5539 17.9031 17.4166C17.4691 17.3235 17.0602 17.1381 16.7043 16.873C16.1499 16.9882 15.6747 16.7218 14.9907 16.711Z" fill="#D6C3A2"/>
</g>
<path d="M18.5936 9.15859C18.5669 9.17024 18.5416 9.18472 18.518 9.20179C18.518 9.11539 18.518 9.02899 18.518 8.94259L18.59 8.91019C18.59 8.91019 18.626 8.85259 18.59 8.86339L18.5144 8.90299L18.536 8.73739C18.536 8.70499 18.5 8.73739 18.4964 8.73739C18.4928 8.73739 18.4784 8.85259 18.4712 8.91019L18.4064 8.94619C18.4064 8.85979 18.4064 8.77699 18.4064 8.69059C18.4064 8.66899 18.374 8.69059 18.374 8.71219C18.374 8.79859 18.374 8.88499 18.3524 8.96779L18.212 9.05419C18.212 9.05419 18.1832 9.10459 18.212 9.09019L18.3488 9.01099C18.3488 9.11179 18.3488 9.21259 18.3272 9.31339C18.3045 9.33298 18.2773 9.34659 18.248 9.35299C18.248 9.35299 18.2084 9.39979 18.248 9.39259C18.2877 9.3939 18.3268 9.38255 18.3596 9.36019C18.3524 9.46927 18.3524 9.57871 18.3596 9.68779C18.3596 9.71659 18.4028 9.68779 18.4028 9.65899C18.4028 9.54739 18.4028 9.43579 18.4028 9.32419L18.4748 9.27019C18.4713 9.32653 18.4713 9.38304 18.4748 9.43939C18.4748 9.46459 18.5144 9.43939 18.5144 9.41419C18.5144 9.38899 18.5144 9.29539 18.5144 9.23779L18.5864 9.19099C18.6116 9.18379 18.6224 9.14059 18.5936 9.15859ZM18.446 9.25219C18.4299 9.26199 18.4154 9.27412 18.4028 9.28819C18.4028 9.19099 18.4028 9.09739 18.4028 9.00019L18.464 8.96779C18.4586 9.05651 18.4586 9.14547 18.464 9.23419L18.446 9.25219Z" fill="#A78D6A"/>
<g style="mix-blend-mode:screen">
<path d="M18 8.41307C17.4168 8.75101 16.8682 9.14529 16.362 9.59027C16.128 9.79547 15.8904 10.0151 15.6708 10.2347C15.4278 10.5095 15.1706 10.7714 14.9004 11.0195C14.9004 11.0375 14.9004 11.0195 14.9004 11.0195C15.3828 10.6498 15.8398 10.2481 16.2684 9.81707C16.8202 9.35989 17.3984 8.93555 18 8.54627C18.0684 8.50667 18.1188 8.35187 18 8.41307Z" fill="#D6C3A2"/>
</g>
<g style="mix-blend-mode:screen">
<path d="M24.5198 5.54762C24.0439 5.65721 23.574 5.79179 23.1122 5.95082C22.5987 6.11677 22.094 6.30902 21.6002 6.52682C21.1084 6.7168 20.6276 6.93435 20.1602 7.17842C19.9298 7.30082 19.6922 7.40162 19.469 7.53842C19.3646 7.60682 19.2566 7.66802 19.1486 7.74002C19.0472 7.82848 18.9332 7.90129 18.8102 7.95602C18.7886 7.95602 18.7418 8.03162 18.7886 8.03162C18.9158 8.00977 19.0379 7.96461 19.1486 7.89842C19.415 7.76162 19.685 7.63202 19.955 7.50242C20.4431 7.25461 20.9442 7.03348 21.4562 6.84002C21.9566 6.66002 22.4318 6.44402 22.9466 6.30362C23.472 6.21189 23.9813 6.04455 24.4586 5.80682C24.5126 5.78522 24.689 5.51522 24.5198 5.54762Z" fill="#D6C3A2"/>
</g>
<g style="mix-blend-mode:multiply">
<path d="M18.5183 15.613C18.2274 15.8006 17.8996 15.9234 17.5571 15.973C17.2428 15.9768 16.9369 16.0746 16.6787 16.2538C16.8083 16.441 16.8911 16.5382 16.8911 16.5382C17.3807 16.495 18.4283 16.3294 19.0511 15.8182C19.1878 15.7012 19.3014 15.5595 19.3859 15.4006C19.3211 15.2602 19.2527 15.1342 19.1915 15.019C19.0022 15.2536 18.7746 15.4544 18.5183 15.613Z" fill="#9E8D71"/>
</g>
<path d="M23.1917 24.8402C23.5362 24.4723 23.9866 24.2207 24.4805 24.1202C24.9413 24.0374 25.2941 24.0518 25.5245 23.6594C25.6073 23.519 25.7045 23.3462 25.8017 23.1878C25.9037 22.6725 25.9663 22.1502 25.9889 21.6254C26.0933 20.1098 26.3021 19.6382 25.6289 19.037C24.8718 18.462 24.167 17.8211 23.5229 17.1218C23.1629 16.6502 22.7057 15.3218 22.4969 15.041C22.3641 14.8733 22.1757 14.7587 21.9657 14.7177C21.7558 14.6768 21.5381 14.7123 21.3521 14.8178C20.8351 14.9993 20.2908 15.0907 19.7429 15.0878C19.4466 15.1025 19.165 15.2211 18.9473 15.4226C18.8213 15.5666 18.7097 15.7826 18.4541 15.8366C17.9961 15.9887 17.5282 16.109 17.0537 16.1966C16.5461 16.2578 16.5137 17.3414 16.5137 17.3414C18.6341 17.4026 19.1237 21.0674 20.1425 22.4534C20.8193 23.375 21.2225 25.049 21.4133 26.0534C21.633 25.864 21.8856 25.7164 22.1585 25.6178C22.5789 25.4791 22.942 25.2058 23.1917 24.8402Z" fill="#6D2213"/>
<g style="mix-blend-mode:multiply" opacity="0.5">
<path d="M22.2983 24.1954C22.1831 23.6266 21.7619 23.1694 21.4127 22.7266C20.7107 21.8446 19.8143 21.0994 19.5587 19.951C19.3643 19.0762 19.4939 17.8522 18.5363 17.4058C17.9135 17.1178 17.2043 17.1394 16.5563 16.9414C16.5299 17.0817 16.513 17.2236 16.5059 17.3662C18.6263 17.4274 19.1159 21.0922 20.1347 22.4782C20.8115 23.3998 21.2147 25.0738 21.4055 26.0782C21.6252 25.8888 21.8778 25.7412 22.1507 25.6426H22.1831C22.3017 25.17 22.3406 24.6809 22.2983 24.1954Z" fill="#601D0B"/>
</g>
<path d="M25.5237 23.677C25.2933 24.0694 24.9405 24.037 24.4797 24.1378C23.9858 24.2384 23.5354 24.49 23.1909 24.8578C22.9429 25.2328 22.5767 25.5141 22.1505 25.657C21.8776 25.7556 21.625 25.9032 21.4053 26.0926C21.5025 26.6074 21.5457 26.9494 21.5457 26.9494C21.7734 26.8122 22.0147 26.6988 22.2657 26.611C22.5789 26.5138 22.5609 26.5426 22.7013 26.3662C22.8409 26.1249 23.0076 25.9002 23.1981 25.6966C23.5431 25.481 23.9162 25.3138 24.3069 25.1998C24.6324 25.0999 24.9306 24.9262 25.1781 24.6922C25.4833 24.2408 25.6951 23.7328 25.8009 23.1982C25.7037 23.3638 25.6065 23.5366 25.5237 23.677Z" fill="#4C1206"/>
<g style="mix-blend-mode:multiply" opacity="0.5">
<path d="M22.3708 25.5599C22.3268 25.9002 22.3027 26.2428 22.2988 26.5859C22.5652 26.5067 22.5544 26.5211 22.6876 26.3555C22.7632 26.2619 22.8352 26.1287 22.9216 25.9955C22.9216 25.7039 22.9216 25.3835 22.9216 25.1387C22.7711 25.3177 22.583 25.4615 22.3708 25.5599Z" fill="#4C1206"/>
<path d="M24.4801 24.138C24.3698 24.1576 24.2615 24.1865 24.1561 24.2244C24.1561 24.4872 24.1165 24.8832 24.0625 25.3044L24.3073 25.218C24.4924 25.1509 24.6708 25.0665 24.8401 24.966C24.8401 24.6492 24.8653 24.318 24.8797 24.0732L24.4801 24.138Z" fill="#4C1206"/>
</g>
<path d="M13.957 26.3806C14.5582 26.4922 14.5582 26.575 14.6554 26.845C14.7526 27.115 14.7418 27.2878 14.9146 27.1762C15.0262 27.1186 15.0874 27.2014 15.343 27.3634C15.6677 27.5174 16.0243 27.5921 16.3835 27.5815C16.7428 27.5709 17.0943 27.4751 17.4094 27.3022C18.2914 26.809 18.9934 26.4166 19.483 26.6614C19.4578 26.2798 19.5694 26.233 19.843 26.197C20.1166 26.161 20.689 25.801 20.6674 25.6066C20.6821 25.3387 20.7545 25.0771 20.8798 24.8398C20.992 24.5049 21.0656 24.1582 21.0994 23.8066C21.1606 23.3998 20.8438 23.1442 20.671 22.8094C20.4055 22.3163 20.1022 21.8445 19.7638 21.3982C19.3642 20.8798 19.1014 20.5594 19.0798 19.8898C19.0546 19.4506 19.0798 19.1698 19.0474 18.853C19.0203 18.4176 18.8973 17.9935 18.6874 17.611C18.3742 17.1898 17.989 17.3842 17.5174 17.3122C17.0458 17.2402 16.1458 16.9054 15.7174 16.9846C15.289 17.0638 14.3242 16.8154 13.2982 16.225C13.2982 16.225 12.7582 16.009 12.679 16.387C12.6232 16.7415 12.4627 17.0712 12.2182 17.3338C11.8978 17.737 11.9734 17.7658 12.1606 18.2842C12.1797 18.4551 12.1625 18.6281 12.1102 18.7918C11.9362 19.2135 11.7329 19.6225 11.5018 20.0158C11.3622 20.197 11.2971 20.4246 11.3199 20.6521C11.3426 20.8797 11.4515 21.0899 11.6242 21.2398C11.93 21.4872 12.1586 21.817 12.283 22.1902C12.5162 23.0184 12.6989 23.8599 12.8302 24.7102C12.8554 24.8722 12.877 25.0162 12.8986 25.1458C12.9814 25.3654 13.3198 26.2078 13.957 26.3806Z" fill="#944620"/>
<path d="M21.9599 24.0372C21.5999 23.5332 21.0887 22.5756 20.4803 21.9816C19.8719 21.3876 19.5947 20.8152 19.2635 19.8C19.1642 19.4888 19.086 19.1713 19.0295 18.8496C19.0511 19.1772 19.0295 19.4472 19.0619 19.8864C19.1015 20.556 19.3643 20.8692 19.7567 21.3768C20.0952 21.8231 20.3985 22.2949 20.6639 22.788C20.8367 23.1228 21.1535 23.3784 21.0923 23.7852C21.0626 24.1438 20.9913 24.4978 20.8799 24.84C20.7534 25.0831 20.6821 25.351 20.6711 25.6248C20.6927 25.8192 20.1167 26.1756 19.8467 26.2152C19.5767 26.2548 19.4651 26.298 19.4867 26.6796C18.9971 26.4348 18.2951 26.8272 17.4131 27.3204C17.0981 27.4933 16.7465 27.5891 16.3873 27.5997C16.0281 27.6103 15.6715 27.5356 15.3467 27.3816C15.0911 27.2196 15.0299 27.1368 14.9183 27.1944C14.7455 27.306 14.7599 27.1368 14.6591 26.8632C14.5583 26.5896 14.5619 26.5032 13.9607 26.3988C13.3343 26.226 12.9851 25.3836 12.9023 25.1532C12.9416 25.725 13.1638 26.269 13.5359 26.7048C14.1119 27.4248 14.1623 27.2772 14.5115 27.9936C14.8607 28.71 14.7203 28.8648 15.6275 28.8972C16.5347 28.9296 17.2619 28.7604 17.8739 28.8108C18.4859 28.8612 19.1807 29.0736 19.7387 28.6884C20.2967 28.3032 20.5739 27.9396 21.0779 27.7128C21.5819 27.486 21.7979 27.414 21.7223 27.1044C21.6178 26.5621 21.6388 26.003 21.7835 25.47C21.9599 24.8616 22.3199 24.5448 21.9599 24.0372Z" fill="#6F270E"/>
<g style="mix-blend-mode:multiply" opacity="0.5">
<path d="M18.8966 27.1765C18.8938 27.3628 18.9332 27.5475 19.0118 27.7165C19.1414 27.9865 19.253 28.2997 19.325 28.2421C19.397 28.1845 19.3538 27.9721 19.181 27.5581C19.0082 27.1441 18.911 26.9065 18.8966 27.1765Z" fill="#6F2910"/>
</g>
<g style="mix-blend-mode:multiply" opacity="0.5">
<path d="M14.7889 27.1975C14.7385 27.1543 14.7205 27.0211 14.6557 26.8375C14.5909 26.6539 14.5657 26.5423 14.3281 26.4775C14.4181 26.9599 14.5693 27.7591 14.6881 28.3891C14.8141 28.6735 14.8861 28.7995 15.2245 28.8571L14.7961 27.2407C14.7909 27.227 14.7884 27.2123 14.7889 27.1975Z" fill="#6F2910"/>
<path d="M17.9176 28.652C18.0148 28.6952 17.6764 27.734 17.5036 27.248L17.41 27.302H17.3848C17.5103 27.7709 17.689 28.2238 17.9176 28.652Z" fill="#6F2910"/>
<path d="M15.8398 27.8996C15.8703 28.2349 15.9428 28.5651 16.0558 28.8824H16.1998C16.0522 28.4396 15.8866 27.8636 15.8398 27.8996Z" fill="#6F2910"/>
<path d="M18.2598 28.0797C18.3498 28.1013 18.1374 27.3885 18.0186 26.9673L17.835 27.0609C17.9394 27.4029 18.1626 28.0797 18.2598 28.0797Z" fill="#6F2910"/>
<path d="M21.7547 25.531C21.5766 25.0736 21.4393 24.6013 21.3443 24.1198C21.2894 23.936 21.2056 23.7623 21.0959 23.605C21.1048 23.6659 21.1048 23.7277 21.0959 23.7886C21.0635 24.0082 21.0419 24.1882 21.0059 24.361L21.6791 25.9486C21.6952 25.8079 21.7205 25.6684 21.7547 25.531Z" fill="#6F2910"/>
<path d="M16.4229 28.1408C16.3761 28.1804 16.5489 28.6016 16.6569 28.8608H16.7901C16.6929 28.6016 16.4805 28.0976 16.4229 28.1408Z" fill="#6F2910"/>
<path d="M19.8395 26.1969C19.5947 26.2293 19.4795 26.2725 19.4795 26.5569L20.0591 28.4397C20.2981 28.2299 20.5481 28.0328 20.8079 27.8493L20.2607 26.0493C20.1296 26.1218 19.9872 26.1717 19.8395 26.1969Z" fill="#6F2910"/>
</g>
<path d="M15.7931 19.1015C15.6025 18.9011 15.3478 18.7737 15.0731 18.7415C14.7815 18.7127 14.0903 18.7739 14.3711 18.2519C14.4822 18.0656 14.5487 17.8561 14.5655 17.6399C14.5655 17.4851 14.4755 17.5247 14.3855 17.5967C14.2955 17.6687 14.1191 17.7875 14.0651 17.9567C14.0475 18.076 14.0475 18.1973 14.0651 18.3167C14.0651 18.3491 14.1155 18.5111 14.0147 18.4895C13.9436 18.4575 13.8771 18.4163 13.8167 18.3671C13.7195 18.3059 13.6043 18.2915 13.5071 18.2303C13.393 18.1704 13.2721 18.1244 13.1471 18.0935C13.0067 18.0431 12.9491 17.9891 12.7871 18.0215C12.6599 18.0473 12.5382 18.0948 12.4271 18.1619C12.3695 18.1907 12.3371 18.3167 12.4271 18.2699L12.4955 18.2375C12.5986 18.2749 12.6986 18.3206 12.7943 18.3743C12.9227 18.413 13.0562 18.4324 13.1903 18.4319C13.4456 18.4602 13.6876 18.56 13.8887 18.7199C13.9895 18.7955 13.6871 19.3643 13.6547 19.4903C13.6331 19.7154 13.6848 19.9414 13.8023 20.1347C13.8275 20.1887 13.9175 20.0879 13.9067 20.0447C13.8959 20.0015 13.8707 19.8827 13.8491 19.8035C13.8538 19.7363 13.8658 19.6699 13.8851 19.6055C13.922 19.4828 13.9665 19.3626 14.0183 19.2455C14.0183 19.2131 14.0183 19.2203 13.9823 19.2455C14.0298 19.1343 14.0839 19.0261 14.1443 18.9215C14.1839 18.8567 14.2307 18.7451 14.3351 18.7955C14.421 18.8402 14.5155 18.866 14.6123 18.8711C14.8427 18.8891 14.9723 18.8351 15.1847 18.9935C15.3322 19.1081 15.503 19.1892 15.6851 19.2311C15.7499 19.2455 15.8399 19.1483 15.7931 19.1015Z" fill="#6C260C"/>
<path d="M17.3452 22.7521C17.2545 22.7556 17.1642 22.7664 17.0752 22.7845C16.9484 22.7868 16.8236 22.7531 16.7152 22.6873C16.513 22.5843 16.2973 22.5104 16.0744 22.4677C15.8656 22.4353 15.6352 22.4857 15.5056 22.2805C15.4444 22.1869 15.556 21.9529 15.5776 21.8305C15.5921 21.7435 15.5921 21.6547 15.5776 21.5677C15.556 21.4417 15.43 21.2077 15.2716 21.3553C15.1989 21.4369 15.1443 21.533 15.1114 21.6373C15.0785 21.7415 15.0681 21.8515 15.0808 21.9601C15.0433 21.9167 14.9966 21.8823 14.944 21.8593C14.7878 21.8269 14.6274 21.8196 14.4688 21.8377C14.0669 21.9078 13.6531 21.8392 13.2952 21.6433C13.0811 21.4808 12.8477 21.3454 12.6004 21.2401C12.3816 21.1283 12.1455 21.054 11.902 21.0205C11.8732 21.0205 11.8408 21.0637 11.8408 21.0889C11.8408 21.1141 11.8624 21.1141 11.8804 21.0889C11.9609 21.1957 12.0611 21.2862 12.1756 21.3553C12.298 21.4525 12.3988 21.5713 12.5356 21.6613C12.6724 21.7513 12.784 21.6613 12.8956 21.7081C13.054 21.7585 13.18 21.8413 13.342 21.8809C13.5138 21.8917 13.6783 21.9545 13.8136 22.0609C13.8997 22.1458 13.998 22.2174 14.1052 22.2733C14.386 22.3922 14.6899 22.4463 14.9944 22.4317C14.9656 22.5145 14.9296 22.5937 14.908 22.6801C14.854 22.8817 14.8072 23.0833 14.7712 23.2885C14.7284 23.4373 14.7204 23.5939 14.7479 23.7462C14.7754 23.8985 14.8375 24.0425 14.9296 24.1669C14.9728 24.2209 15.052 24.1021 15.0628 24.0697C15.0825 23.9662 15.0825 23.86 15.0628 23.7565C15.0628 23.5945 15.034 23.4433 15.034 23.2813C15.034 23.1193 15.1528 22.9717 15.2032 22.7917C15.2284 22.7017 15.2356 22.6009 15.2572 22.5037C15.4482 22.5213 15.6304 22.5924 15.7828 22.7089C15.9124 22.8205 16.006 22.9717 16.1932 22.9861C16.3804 23.0005 16.4956 22.8169 16.7152 22.8781C16.896 22.9734 17.0852 23.0518 17.2804 23.1121C17.4172 23.1121 17.7628 23.2129 17.8312 23.0293C17.8996 22.8457 17.4316 22.7485 17.3452 22.7521ZM14.8756 23.4721C14.8775 23.541 14.8847 23.6096 14.8972 23.6773C14.8972 23.7025 14.8972 23.7313 14.8972 23.7637C14.8776 23.6739 14.8704 23.5819 14.8756 23.4901V23.4721Z" fill="#6C260C"/>
<path d="M18.544 19.8434C18.5116 19.6922 18.2776 19.8434 18.3064 19.595C18.3064 19.433 18.2596 19.3646 18.3496 19.1738C18.382 19.1018 18.3712 18.9038 18.2524 18.9038C18.2397 18.9055 18.2281 18.9119 18.22 18.9218C17.9716 19.0946 18.1228 19.4078 18.004 19.6418C17.8888 19.5518 17.6872 19.595 17.5504 19.5482C17.4136 19.5014 17.2552 19.3502 17.1004 19.4078H17.0752C17.0752 19.559 17.1076 19.6058 17.248 19.6742C17.3128 19.7066 18.0004 19.9442 17.896 20.0918C17.8578 20.1366 17.8342 20.192 17.8284 20.2505C17.8226 20.3091 17.8349 20.368 17.8636 20.4194C17.9068 20.495 17.9716 20.5526 18.0112 20.6282C18.0508 20.7038 18.0616 20.7758 18.1372 20.8334C18.1372 20.8334 18.1624 20.8334 18.1732 20.8334L18.1948 20.8838C18.1948 20.9054 18.2344 20.8838 18.2344 20.8586C18.1912 20.5742 18.0004 20.0594 18.4396 20.0162C18.544 20.0234 18.5656 19.9262 18.544 19.8434Z" fill="#6C260C"/>
<path d="M20.6531 23.9507C20.5235 23.9075 20.3939 23.9111 20.2679 23.8607C20.1044 23.7885 19.9478 23.7018 19.7999 23.6015C19.6633 23.5315 19.5197 23.476 19.3715 23.4359C19.1879 23.3639 19.0115 23.4359 18.8387 23.3711C18.8063 23.3711 18.7523 23.4323 18.7883 23.4467H18.8063C18.8101 23.6151 18.8532 23.7803 18.9323 23.9291C18.9413 23.9353 18.952 23.9386 18.9629 23.9386C18.9738 23.9386 18.9845 23.9353 18.9935 23.9291C19.1231 23.8859 19.0403 23.7095 19.3031 23.7815C19.6991 23.8859 20.1923 24.1415 20.6099 24.0011C20.6387 24.0191 20.6891 23.9615 20.6531 23.9507Z" fill="#6C260C"/>
<path d="M18.1624 25.8839C17.878 25.7003 17.6944 25.6211 17.698 25.2395C17.7084 24.9312 17.7667 24.6264 17.8708 24.3359C17.9176 24.1991 17.9824 23.9759 17.8924 23.8427C17.7664 23.6555 17.6764 24.2027 17.6728 24.2027C17.6512 24.5087 17.6224 24.8111 17.5792 25.1135C17.5504 25.3007 17.5576 25.4735 17.2696 25.5275C17.0774 25.5538 16.8824 25.5076 16.7224 25.3979C16.3624 25.1711 15.9484 24.7823 15.484 24.9695C15.3292 25.0307 15.1852 25.1243 15.0232 25.0199C14.9331 24.9437 14.8658 24.844 14.8288 24.7319C14.8262 24.7157 14.8191 24.7006 14.8085 24.6881C14.7979 24.6756 14.784 24.6662 14.7684 24.661C14.7529 24.6558 14.7362 24.655 14.7202 24.6586C14.7041 24.6622 14.6894 24.6702 14.6776 24.6815C14.566 24.7751 14.6776 24.8075 14.3824 24.8579C14.1897 24.859 14.0014 24.8012 13.8424 24.6923C13.6531 24.5588 13.4504 24.4454 13.2376 24.3539H13.216C13.18 24.3539 13.1224 24.4295 13.162 24.4403C13.09 24.6095 13.1944 24.7715 13.342 24.9011C13.432 24.9803 13.6084 24.8723 13.702 24.8795C13.8872 24.9056 14.0584 24.993 14.188 25.1279C14.2303 25.1587 14.2763 25.1841 14.3248 25.2035C14.4796 25.2791 14.5444 25.3367 14.5228 25.5203C14.5043 25.6412 14.5154 25.7647 14.5552 25.8803C14.6092 26.0063 14.8288 25.8191 14.8756 25.7795C14.9944 25.6787 14.9296 25.5311 14.8756 25.4195C14.8216 25.3079 14.9332 25.3223 14.9944 25.3511C15.1125 25.3788 15.2331 25.3945 15.3544 25.3979C15.544 25.4115 15.7327 25.4355 15.9196 25.4699C15.9952 25.4699 16.078 25.4699 16.1572 25.5095C16.2364 25.5491 16.3588 25.6607 16.4344 25.7507C16.51 25.8407 16.564 25.8983 16.6972 25.8839C16.8304 25.8695 17.3632 25.6283 17.2912 25.9991C17.2588 26.1791 17.3632 26.3195 17.3164 26.5139C17.3164 26.5643 17.3704 26.5139 17.3848 26.5139C17.4604 26.3843 17.5252 26.1971 17.7196 26.2151C17.824 26.2151 17.9212 26.2403 18.0256 26.2403C18.081 26.245 18.1367 26.2352 18.1872 26.2119C18.2377 26.1885 18.2813 26.1524 18.3136 26.1071C18.3604 26.0207 18.2272 25.9199 18.1624 25.8839Z" fill="#6C260C"/>
<g style="mix-blend-mode:multiply" opacity="0.5">
<path d="M14.2957 18.7202C13.9357 18.5978 13.5757 18.4538 13.1833 18.3602C12.9483 18.2746 12.7077 18.2048 12.4633 18.1514H12.4417C12.3841 18.1802 12.3517 18.3062 12.4417 18.2594L12.5101 18.227C12.6133 18.2644 12.7132 18.3101 12.8089 18.3638C12.9373 18.4025 13.0708 18.4219 13.2049 18.4214C13.4602 18.4497 13.7023 18.5495 13.9033 18.7094C14.0041 18.785 13.7017 19.3538 13.6693 19.4798C13.6477 19.7049 13.6995 19.9309 13.8169 20.1242C13.8421 20.1782 13.9321 20.0774 13.9213 20.0342C13.9105 19.991 13.8853 19.8722 13.8637 19.793C13.8684 19.7258 13.8805 19.6594 13.8997 19.595C13.9367 19.4723 13.9812 19.3521 14.0329 19.235C14.0329 19.2026 14.0329 19.2098 13.9969 19.235C14.0444 19.1238 14.0985 19.0156 14.1589 18.911C14.1985 18.8462 14.2453 18.7346 14.3497 18.785C14.4357 18.8297 14.5302 18.8555 14.6269 18.8606H14.7601L14.2957 18.7202Z" fill="#6C260C"/>
</g>
<g style="mix-blend-mode:multiply" opacity="0.5">
<path d="M15.7611 19.1521C15.6175 19.078 15.4611 19.0316 15.3003 19.0153L15.2031 18.9937C15.3479 19.1077 15.5164 19.1877 15.6963 19.2277C15.7287 19.2277 15.7683 19.2061 15.7863 19.1701L15.7611 19.1521Z" fill="#6C260C"/>
</g>
<g style="mix-blend-mode:multiply" opacity="0.5">
<path d="M16.7217 22.8708C16.4102 22.8233 16.1014 22.7596 15.7965 22.68C15.5657 22.5981 15.3397 22.5032 15.1197 22.3956C14.5761 22.176 14.0001 22.0788 13.4529 21.8844C13.032 21.6782 12.5978 21.5002 12.1533 21.3516L12.1929 21.384C12.3153 21.4812 12.4161 21.6 12.5529 21.69C12.6897 21.78 12.8013 21.69 12.9129 21.7368C13.0713 21.7872 13.1973 21.87 13.3593 21.9096C13.5311 21.9204 13.6956 21.9832 13.8309 22.0896C13.917 22.1745 14.0153 22.2461 14.1225 22.302C14.4033 22.4209 14.7072 22.475 15.0117 22.4604C14.9829 22.5432 14.9469 22.6224 14.9253 22.7088C14.8713 22.9104 14.8245 23.112 14.7885 23.3172C14.7457 23.4659 14.7377 23.6225 14.7652 23.7749C14.7927 23.9272 14.8548 24.0711 14.9469 24.1956C14.9901 24.2496 15.0693 24.1308 15.0801 24.0984C15.0998 23.9949 15.0998 23.8886 15.0801 23.7852C15.0801 23.6232 15.0513 23.472 15.0513 23.31C15.0513 23.148 15.1701 23.0004 15.2205 22.8204C15.2457 22.7304 15.2529 22.6296 15.2745 22.5324C15.4655 22.5499 15.6477 22.621 15.8001 22.7376C15.9297 22.8492 16.0233 23.0004 16.2105 23.0148C16.3977 23.0292 16.5129 22.8456 16.7325 22.9068C16.9085 22.9912 17.0916 23.0599 17.2797 23.112C17.4129 23.112 17.7333 23.202 17.8197 23.0508C17.4417 22.986 17.0781 22.9356 16.7217 22.8708ZM14.8749 23.49C14.8768 23.5588 14.884 23.6274 14.8965 23.6952C14.8965 23.7204 14.8965 23.7492 14.8965 23.7816C14.8752 23.6859 14.868 23.5877 14.8749 23.49Z" fill="#6C260C"/>
</g>
<g style="mix-blend-mode:multiply" opacity="0.5">
<path d="M18.2912 20.077L17.8304 19.8898C17.5854 19.8013 17.3451 19.7004 17.1104 19.5874C17.1489 19.6384 17.2014 19.6772 17.2616 19.699C17.3264 19.7314 18.014 19.969 17.9096 20.1166C17.8713 20.1614 17.8477 20.2167 17.8419 20.2753C17.8361 20.3339 17.8484 20.3928 17.8772 20.4442C17.9204 20.5198 17.9852 20.5774 18.0248 20.653C18.0644 20.7286 18.0752 20.8006 18.1508 20.8582C18.1508 20.8582 18.176 20.8582 18.1868 20.8582L18.2084 20.9086C18.2084 20.9302 18.248 20.9086 18.248 20.8834C18.1976 20.6278 18.05 20.2138 18.2912 20.077Z" fill="#6C260C"/>
</g>
<g style="mix-blend-mode:multiply" opacity="0.5">
<path d="M19.8436 23.9546C19.6384 23.8826 19.426 23.8394 19.2172 23.771C19.0876 23.7278 18.9616 23.6378 18.832 23.5874C18.8416 23.7143 18.8797 23.8374 18.9436 23.9474C18.9526 23.9536 18.9633 23.9569 18.9742 23.9569C18.9852 23.9569 18.9958 23.9536 19.0048 23.9474C19.1344 23.9042 19.0516 23.7278 19.3144 23.7998C19.5772 23.8718 19.8148 23.9762 20.0776 24.0302L19.8436 23.9546Z" fill="#6C260C"/>
</g>
<path d="M13.165 24.6816C13.2073 24.7708 13.2688 24.8494 13.345 24.912C13.435 24.9912 13.6114 24.8832 13.705 24.8904H13.7446C13.5607 24.7974 13.3661 24.7273 13.165 24.6816Z" fill="#6C260C"/>
<g style="mix-blend-mode:multiply" opacity="0.5">
<path d="M17.4853 25.8841L17.2549 25.8589C17.2731 25.8812 17.2853 25.9078 17.2903 25.9362C17.2953 25.9645 17.2931 25.9937 17.2837 26.0209C17.2513 26.2009 17.3557 26.3413 17.3089 26.5357C17.3089 26.5861 17.3629 26.5357 17.3773 26.5357C17.4529 26.4061 17.5177 26.2189 17.7121 26.2369C17.8165 26.2369 17.9137 26.2621 18.0181 26.2621C18.0735 26.2668 18.1292 26.257 18.1797 26.2336C18.2302 26.2103 18.2738 26.1742 18.3061 26.1289C18.3175 26.1125 18.3237 26.0931 18.3237 26.0731C18.3237 26.0531 18.3175 26.0336 18.3061 26.0173L17.4853 25.8841Z" fill="#6C260C"/>
</g>
<g style="mix-blend-mode:multiply" opacity="0.5">
<path d="M16.8049 25.7795C16.5817 25.7183 16.3945 25.5707 16.1785 25.4915C15.6349 25.2863 15.0517 25.3115 14.4937 25.1531C14.3389 25.1135 14.1805 25.0667 14.0293 25.0127L14.1877 25.1387C14.23 25.1694 14.276 25.1948 14.3245 25.2143C14.4793 25.2899 14.5441 25.3475 14.5225 25.5311C14.504 25.6519 14.5151 25.7755 14.5549 25.8911C14.6089 26.0171 14.8285 25.8299 14.8753 25.7903C14.9941 25.6895 14.9293 25.5419 14.8753 25.4303C14.8213 25.3187 14.9329 25.3331 14.9941 25.3619C15.1122 25.3896 15.2328 25.4053 15.3541 25.4087C15.5437 25.4223 15.7324 25.4463 15.9193 25.4807C15.9949 25.4807 16.0777 25.4807 16.1569 25.5203C16.2361 25.5599 16.3585 25.6715 16.4341 25.7615C16.5097 25.8515 16.5637 25.9091 16.6969 25.8947C16.7617 25.8947 16.9021 25.8371 17.0281 25.8155C16.9529 25.809 16.8783 25.7969 16.8049 25.7795Z" fill="#6C260C"/>
</g>
<g style="mix-blend-mode:multiply" opacity="0.5">
<path d="M24.8618 22.2695C24.6195 22.1451 24.3392 22.1168 24.077 22.1903C23.8892 22.2396 23.6944 22.2566 23.501 22.2407C23.2598 22.2407 22.9754 22.2407 22.8386 21.9995C22.7561 21.8646 22.6862 21.7224 22.6298 21.5747C22.6082 21.5171 22.6298 21.2939 22.5434 21.2579C22.5109 21.2454 22.475 21.2454 22.4426 21.2579H22.4246C22.313 21.3659 22.4246 21.5423 22.4822 21.6431C22.5398 21.7439 22.871 22.2299 22.511 22.1471C22.34 22.1055 22.1605 22.1168 21.9962 22.1795C21.7666 22.3085 21.5007 22.3579 21.2402 22.3199C21.1934 22.3199 20.9594 22.3199 21.0062 22.4243C21.0998 22.6583 21.8666 22.4243 22.0142 22.3991C22.2662 22.3631 22.5938 22.2695 22.8026 22.4639C23.0114 22.6583 22.8638 22.8959 22.943 23.0831C22.9934 23.2019 23.1986 23.3351 23.2598 23.1443C23.2836 23.0369 23.2683 22.9246 23.2166 22.8275C23.1842 22.7447 23.1518 22.6655 23.1266 22.5827C23.1014 22.4999 23.3174 22.4963 23.3642 22.4963C23.5912 22.4884 23.8168 22.457 24.0374 22.4027C24.2956 22.3429 24.562 22.3258 24.8258 22.3523C24.8402 22.3523 24.905 22.2803 24.8618 22.2695Z" fill="#601D0B"/>
</g>
<g style="mix-blend-mode:multiply" opacity="0.5">
<path d="M24.5373 19.4724C24.4581 19.404 24.2385 19.4004 24.1377 19.3824C23.9204 19.3613 23.7011 19.3784 23.4897 19.4328C23.0289 19.5336 22.5969 19.3572 22.1433 19.5408C21.8473 19.6585 21.524 19.6897 21.2109 19.6308C20.9719 19.6039 20.731 19.5979 20.4909 19.6128C20.1993 19.6128 20.0085 19.6128 19.8897 19.3032C19.8112 19.0838 19.7451 18.8603 19.6917 18.6336C19.6917 18.612 19.6593 18.6336 19.6593 18.6516C19.6593 18.6516 19.6377 18.6876 19.6593 18.6984C19.6573 18.7187 19.6573 18.7392 19.6593 18.7596C19.6594 18.8512 19.6522 18.9427 19.6377 19.0332C19.5995 19.1429 19.5896 19.2605 19.6089 19.3752C19.6521 19.5948 19.4361 19.7604 19.3281 19.9332C19.3281 19.9332 19.3281 19.9872 19.3461 19.9728C19.4562 19.9323 19.5693 19.901 19.6845 19.8792C19.8465 19.8504 19.8933 20.124 19.9221 20.2176C19.9488 20.3895 19.9997 20.5567 20.0733 20.7144C20.0913 20.7432 20.1417 20.6892 20.1381 20.664C20.1019 20.4796 20.0766 20.2933 20.0625 20.106C20.0373 19.746 20.5737 19.8828 20.7429 19.8828C21.1749 19.8828 21.5961 19.8 22.0281 19.7928C22.4611 19.8175 22.8954 19.797 23.3241 19.7316C23.5293 19.6848 23.7237 19.6128 23.9325 19.584C24.1413 19.5552 24.2925 19.584 24.4689 19.584C24.5013 19.5768 24.5733 19.5084 24.5373 19.4724Z" fill="#601D0B"/>
</g>
<g style="mix-blend-mode:multiply" opacity="0.5">
<path d="M22.6479 17.4421C22.6119 17.1937 22.3455 17.1433 22.1331 17.2009C21.8235 17.2801 21.7083 17.1253 21.5463 16.8913L21.2187 16.4233C21.2187 16.4233 21.1683 16.4485 21.1647 16.4593C21.1217 16.5755 21.1217 16.7032 21.1647 16.8193C21.1863 16.8913 21.5031 17.2081 21.2007 17.1793C21.089 17.1688 20.9768 17.194 20.8803 17.2513C20.5851 17.4169 20.4483 17.2909 20.1855 17.1685C20.0595 17.1083 19.9149 17.0993 19.7823 17.1433C19.6563 17.1901 19.5123 17.2909 19.3827 17.1433C19.3414 17.0796 19.2789 17.0325 19.2063 17.0101C19.0892 16.9511 18.9564 16.9309 18.827 16.9522C18.6976 16.9736 18.5783 17.0354 18.4863 17.1289C18.4863 17.1289 18.4863 17.1613 18.4863 17.1469C18.5068 17.1265 18.5313 17.1106 18.5583 17.1001C18.8967 17.0245 18.7779 17.5285 19.0947 17.5645C19.1219 17.5717 19.1504 17.5717 19.1775 17.5645C19.248 17.5218 19.3279 17.4972 19.4102 17.4928C19.4924 17.4884 19.5745 17.5044 19.6491 17.5393C19.78 17.6286 19.9158 17.7103 20.0559 17.7841C20.3367 17.8921 20.4771 17.3701 20.7759 17.4745C20.9087 17.5392 21.0532 17.576 21.2007 17.5825C21.4347 17.5825 21.5067 17.8165 21.6003 17.9785C21.6183 18.0145 21.6615 17.9533 21.6651 17.9317C21.6831 17.7157 21.6651 17.4025 21.9891 17.4781C22.1125 17.5143 22.2329 17.56 22.3491 17.6149C22.4607 17.6401 22.6803 17.6077 22.6479 17.4421Z" fill="#601D0B"/>
</g>
<g style="mix-blend-mode:multiply" opacity="0.5">
<path d="M23.1011 22.2949C22.9124 22.2728 22.7223 22.2632 22.5323 22.2661C22.3451 22.2661 22.1723 22.3093 21.9743 22.3381C21.6529 22.4085 21.3241 22.4399 20.9951 22.4317C21.1103 22.6477 21.8519 22.4317 21.9995 22.3957C22.2515 22.3597 22.5791 22.2661 22.7879 22.4605C22.9967 22.6549 22.8491 22.8925 22.9283 23.0797C22.9787 23.1985 23.1839 23.3317 23.2451 23.1409C23.269 23.0336 23.2537 22.9212 23.2019 22.8241C23.1695 22.7413 23.1371 22.6621 23.1119 22.5793C23.0867 22.4965 23.3027 22.4929 23.3495 22.4929C23.5765 22.485 23.8021 22.4537 24.0227 22.3993C24.281 22.3395 24.5473 22.3225 24.8111 22.3489C24.8205 22.352 24.8306 22.352 24.8399 22.3489C24.2711 22.2589 23.6771 22.3201 23.1011 22.2949Z" fill="#601D0B"/>
</g>
<g style="mix-blend-mode:multiply" opacity="0.5">
<path d="M24.5267 19.4654C24.2495 19.4654 23.9759 19.523 23.6987 19.5446C23.1299 19.5842 22.5611 19.5842 21.9923 19.6166H21.8771C21.7655 19.6368 21.6522 19.6465 21.5387 19.6454L21.1787 19.6778L20.5091 19.7102C20.1319 19.7138 19.7589 19.7908 19.4111 19.937C19.5064 19.9039 19.6038 19.8775 19.7027 19.8578C19.8647 19.829 19.9115 20.1026 19.9403 20.1962C19.967 20.3681 20.0179 20.5354 20.0915 20.693C20.1095 20.7218 20.1599 20.6678 20.1563 20.6426C20.1201 20.4583 20.0948 20.2719 20.0807 20.0846C20.0555 19.7246 20.5919 19.8614 20.7611 19.8614C21.1931 19.8614 21.6143 19.7786 22.0463 19.7714C22.4793 19.7961 22.9136 19.7756 23.3423 19.7102C23.5475 19.6634 23.7419 19.5914 23.9507 19.5626C24.1595 19.5338 24.3107 19.5626 24.4871 19.5626C24.5195 19.5626 24.5915 19.4906 24.5555 19.4546L24.5267 19.4654Z" fill="#601D0B"/>
</g>
<g style="mix-blend-mode:multiply" opacity="0.5">
<path d="M22.6149 17.3411C22.4283 17.2992 22.2374 17.2787 22.0461 17.2799C21.5601 17.2799 21.0741 17.4059 20.5881 17.4383C20.3289 17.4383 20.0877 17.4023 19.8321 17.3951C19.6369 17.4108 19.4407 17.38 19.2597 17.3051C19.1038 17.2142 18.9312 17.1554 18.7521 17.1323H18.7197C18.8781 17.2187 18.8493 17.5535 19.1049 17.5823C19.1321 17.5895 19.1606 17.5895 19.1877 17.5823C19.2582 17.5396 19.3381 17.515 19.4204 17.5106C19.5026 17.5062 19.5847 17.5222 19.6593 17.5571C19.7902 17.6463 19.926 17.7281 20.0661 17.8019C20.3469 17.9099 20.4873 17.3879 20.7861 17.4923C20.9189 17.557 21.0634 17.5937 21.2109 17.6003C21.4449 17.6003 21.5169 17.8343 21.6105 17.9963C21.6285 18.0323 21.6717 17.9711 21.6753 17.9495C21.6933 17.7335 21.6753 17.4203 21.9993 17.4959C22.1227 17.5321 22.2431 17.5778 22.3593 17.6327C22.4745 17.6723 22.6905 17.6327 22.6617 17.4599C22.654 17.4177 22.6381 17.3773 22.6149 17.3411Z" fill="#601D0B"/>
</g>
<path d="M14.515 20.5202C14.515 20.4806 14.4862 20.3654 14.4286 20.4194C14.371 20.4734 14.3638 20.549 14.3962 20.6066C14.3987 20.6177 14.4053 20.6275 14.4145 20.6342C14.4238 20.6408 14.4352 20.6438 14.4466 20.6426C14.4559 20.64 14.4646 20.6355 14.472 20.6293C14.4795 20.6231 14.4855 20.6153 14.4898 20.6066C14.5085 20.5819 14.5175 20.5511 14.515 20.5202Z" fill="#050505"/>
<path d="M13.9649 20.88C13.9649 20.8584 13.9325 20.8476 13.9145 20.8404C13.8997 20.8344 13.8831 20.8344 13.8683 20.8405C13.8535 20.8465 13.8416 20.8582 13.8353 20.8728C13.8244 20.9006 13.8244 20.9315 13.8353 20.9592C13.8376 20.9739 13.8439 20.9876 13.8534 20.999C13.8629 21.0104 13.8753 21.0191 13.8893 21.024C13.9325 21.0456 13.9685 20.9988 13.9793 20.9592C13.9835 20.932 13.9785 20.9041 13.9649 20.88Z" fill="#050505"/>
<path d="M13.363 20.4839C13.3527 20.4669 13.3391 20.4521 13.323 20.4404C13.3069 20.4287 13.2887 20.4202 13.2694 20.4155C13.2298 20.4155 13.1614 20.4407 13.1758 20.4911C13.1902 20.5415 13.2334 20.5451 13.2658 20.5595C13.2845 20.5683 13.3058 20.5694 13.3253 20.5627C13.3448 20.556 13.3609 20.5419 13.3702 20.5235C13.3702 20.5235 13.381 20.4803 13.363 20.4839Z" fill="#050505"/>
<path d="M12.8197 19.5264C12.8127 19.5219 12.8046 19.5195 12.7963 19.5195C12.788 19.5195 12.7798 19.5219 12.7729 19.5264C12.7564 19.5386 12.7439 19.5553 12.7369 19.5745C12.7298 19.5937 12.7286 19.6145 12.7333 19.6344C12.7353 19.6428 12.7399 19.6504 12.7463 19.6561C12.7527 19.6619 12.7607 19.6656 12.7693 19.6668C12.7909 19.6668 12.8089 19.6668 12.8233 19.6416C12.8309 19.634 12.8369 19.6249 12.8408 19.6148C12.8448 19.6048 12.8467 19.594 12.8463 19.5832C12.846 19.5725 12.8434 19.5618 12.8389 19.5521C12.8343 19.5423 12.8277 19.5336 12.8197 19.5264Z" fill="#050505"/>
<path d="M12.7153 19.0043C12.7153 19.0043 12.6901 18.9827 12.6793 18.9755C12.6793 18.9755 12.6793 18.9575 12.6541 18.9539C12.6289 18.9503 12.6217 18.9539 12.6145 18.9755C12.6129 18.9862 12.6129 18.9971 12.6145 19.0079C12.6155 19.0345 12.6257 19.0599 12.6433 19.0799C12.6649 19.1123 12.6973 19.1303 12.7297 19.0799C12.7341 19.0537 12.729 19.0269 12.7153 19.0043Z" fill="#050505"/>
<path d="M17.1465 21.3194C17.1396 21.302 17.1311 21.2851 17.1213 21.269C17.0997 21.269 17.0673 21.287 17.0565 21.3014C17.0437 21.3338 17.0437 21.3699 17.0565 21.4022C17.0625 21.4219 17.0723 21.4403 17.0853 21.4562C17.0883 21.46 17.0922 21.463 17.0965 21.4651C17.1009 21.4672 17.1057 21.4683 17.1105 21.4683C17.1153 21.4683 17.1201 21.4672 17.1245 21.4651C17.1288 21.463 17.1327 21.46 17.1357 21.4562C17.1519 21.4497 17.1657 21.4384 17.1753 21.4238C17.1861 21.3986 17.1645 21.3554 17.1465 21.3194Z" fill="#050505"/>
<path d="M18.043 21.6431C18.0457 21.6394 18.0471 21.635 18.0471 21.6305C18.0471 21.626 18.0457 21.6216 18.043 21.6179L17.9998 21.5999C17.9943 21.5891 17.9855 21.5802 17.9746 21.5747C17.9458 21.5747 17.9206 21.5999 17.9098 21.6251C17.9027 21.6353 17.8977 21.6469 17.8953 21.6592C17.8928 21.6714 17.893 21.6841 17.8957 21.6962C17.8984 21.7084 17.9036 21.7199 17.911 21.73C17.9184 21.7401 17.9278 21.7485 17.9386 21.7547C17.971 21.7727 18.0034 21.7547 18.0286 21.7295C18.0393 21.7181 18.0463 21.7038 18.0489 21.6885C18.0514 21.6731 18.0494 21.6573 18.043 21.6431Z" fill="#050505"/>
<path d="M19.1162 21.4739C19.1024 21.4496 19.0808 21.4306 19.055 21.4199C19.0262 21.4199 18.9974 21.4415 18.9866 21.4595C18.9849 21.4763 18.9849 21.4932 18.9866 21.5099C18.9866 21.5603 19.0262 21.6755 19.091 21.6539C19.1104 21.6551 19.1295 21.6492 19.1447 21.6372C19.16 21.6253 19.1703 21.6082 19.1738 21.5891C19.1692 21.545 19.1487 21.5041 19.1162 21.4739Z" fill="#050505"/>
<path d="M19.3357 22.4786C19.3367 22.4654 19.3367 22.4521 19.3357 22.439C19.3303 22.4241 19.3202 22.4115 19.3069 22.403C19.2992 22.3935 19.2893 22.3861 19.2781 22.3814C19.2675 22.3812 19.257 22.3842 19.248 22.3899C19.2391 22.3957 19.232 22.404 19.2277 22.4138C19.2207 22.4287 19.2177 22.4453 19.2191 22.4618C19.2205 22.4782 19.2263 22.4941 19.2358 22.5076C19.2453 22.5211 19.2582 22.5319 19.2732 22.5388C19.2883 22.5457 19.3049 22.5485 19.3213 22.547C19.3213 22.547 19.3537 22.547 19.3609 22.5218C19.3609 22.5218 19.3357 22.4858 19.3357 22.4786Z" fill="#050505"/>
<path d="M16.096 18.3601C16.0976 18.3254 16.0875 18.2911 16.0672 18.2629C16.042 18.2269 16.0096 18.2377 15.9844 18.2629C15.9676 18.2828 15.9553 18.3061 15.9484 18.3313C15.9339 18.372 15.9339 18.4165 15.9484 18.4573C15.9507 18.4648 15.9548 18.4715 15.9604 18.477C15.966 18.4825 15.9728 18.4865 15.9803 18.4887C15.9879 18.4908 15.9958 18.491 16.0034 18.4893C16.0111 18.4876 16.0181 18.484 16.024 18.4789C16.0399 18.4769 16.0548 18.4698 16.0664 18.4588C16.078 18.4478 16.0859 18.4334 16.0888 18.4177C16.0954 18.3992 16.0979 18.3796 16.096 18.3601Z" fill="#050505"/>
<path d="M16.9382 18.5076C16.9323 18.4957 16.9219 18.4866 16.9094 18.4824C16.9094 18.4824 16.9094 18.4644 16.877 18.4644C16.8656 18.4682 16.8554 18.4748 16.8472 18.4836C16.839 18.4924 16.8332 18.5031 16.8302 18.5148C16.8251 18.5258 16.8238 18.5383 16.8267 18.5501C16.8296 18.5619 16.8363 18.5725 16.8459 18.58C16.8555 18.5875 16.8673 18.5915 16.8795 18.5914C16.8917 18.5914 16.9035 18.5872 16.913 18.5796C16.9235 18.5711 16.9315 18.5599 16.9359 18.5472C16.9404 18.5344 16.9412 18.5207 16.9382 18.5076Z" fill="#050505"/>
<path d="M17.068 18.1226C17.068 18.1226 17.0392 18.1226 17.0284 18.1226C17.0113 18.1254 16.9954 18.1335 16.9832 18.1457C16.9709 18.158 16.9628 18.1738 16.96 18.191C16.9566 18.2165 16.9618 18.2424 16.9749 18.2646C16.9879 18.2868 17.008 18.3039 17.032 18.3134C17.0427 18.3185 17.0544 18.3211 17.0662 18.3211C17.078 18.3211 17.0897 18.3185 17.1004 18.3134C17.1118 18.303 17.1206 18.2901 17.1262 18.2757C17.1318 18.2614 17.1341 18.2459 17.1328 18.2306C17.1317 18.2086 17.1253 18.1873 17.114 18.1684C17.1027 18.1496 17.0869 18.1338 17.068 18.1226Z" fill="#050505"/>
<path d="M16.0522 18.9648C16.0478 18.9623 16.0428 18.9609 16.0378 18.9609C16.0327 18.9609 16.0278 18.9623 16.0234 18.9648C16.0188 18.9628 16.0139 18.9618 16.009 18.9618C16.004 18.9618 15.9991 18.9628 15.9946 18.9648C15.9867 18.9758 15.9824 18.989 15.9824 19.0026C15.9824 19.0162 15.9867 19.0294 15.9946 19.0404C15.9946 19.062 16.0234 19.0836 16.0486 19.0728C16.0577 19.0672 16.0653 19.0594 16.0707 19.0502C16.076 19.0409 16.079 19.0305 16.0794 19.0198C16.0798 19.0091 16.0775 18.9984 16.0727 18.9889C16.068 18.9793 16.0609 18.971 16.0522 18.9648Z" fill="#050505"/>
<path d="M15.3112 17.5176C15.3112 17.5176 15.3112 17.5176 15.286 17.5176H15.2645C15.2141 17.5176 15.2393 17.6148 15.2645 17.6472C15.2897 17.6796 15.2932 17.6904 15.3184 17.6904C15.3317 17.6894 15.3443 17.6844 15.3546 17.676C15.3649 17.6677 15.3724 17.6563 15.376 17.6436C15.3808 17.6184 15.377 17.5923 15.3653 17.5694C15.3536 17.5466 15.3345 17.5284 15.3112 17.5176Z" fill="#050505"/>
<path d="M13.5176 17.3232C13.5118 17.31 13.5033 17.2981 13.4928 17.2882C13.4823 17.2783 13.4699 17.2706 13.4564 17.2656C13.4564 17.2656 13.424 17.2656 13.4204 17.2872C13.4073 17.2941 13.3973 17.3059 13.3926 17.32C13.3879 17.3341 13.3888 17.3494 13.3952 17.3628C13.3988 17.3717 13.4042 17.3798 13.411 17.3866C13.4178 17.3934 13.4259 17.3988 13.4348 17.4024C13.4434 17.4079 13.4534 17.4107 13.4636 17.4107C13.4738 17.4107 13.4838 17.4079 13.4924 17.4024C13.5021 17.3959 13.5104 17.3874 13.5166 17.3775C13.5228 17.3676 13.5268 17.3564 13.5284 17.3448C13.5258 17.3372 13.5221 17.3299 13.5176 17.3232Z" fill="#050505"/>
<path d="M13.4709 22.5C13.4581 22.4953 13.444 22.4953 13.4313 22.5C13.4222 22.4958 13.4124 22.4937 13.4025 22.4937C13.3925 22.4937 13.3827 22.4958 13.3737 22.5C13.3017 22.5252 13.3197 22.6152 13.3737 22.6584C13.3813 22.6697 13.3911 22.6795 13.4025 22.6872H13.4313C13.4457 22.6878 13.46 22.6835 13.4717 22.675C13.4835 22.6665 13.492 22.6543 13.4961 22.6404C13.5056 22.617 13.5083 22.5914 13.5038 22.5666C13.4994 22.5417 13.4879 22.5186 13.4709 22.5Z" fill="#050505"/>
<path d="M13.7377 23.0798C13.7298 23.0674 13.7186 23.0574 13.7053 23.051C13.6976 23.0448 13.6881 23.0415 13.6783 23.0415C13.6685 23.0415 13.659 23.0448 13.6513 23.051C13.6009 23.0762 13.6045 23.141 13.6225 23.1842C13.6251 23.1957 13.6305 23.2065 13.6382 23.2154C13.6459 23.2244 13.6557 23.2313 13.6668 23.2356C13.6778 23.2398 13.6897 23.2413 13.7015 23.2399C13.7132 23.2385 13.7244 23.2342 13.7341 23.2274C13.7845 23.177 13.7665 23.123 13.7377 23.0798Z" fill="#050505"/>
<path d="M14.3462 23.58C14.3462 23.5512 14.3138 23.5152 14.285 23.5296C14.2562 23.544 14.231 23.6124 14.2418 23.652C14.2514 23.6706 14.2665 23.6857 14.285 23.6952C14.3066 23.6952 14.3282 23.6952 14.3426 23.6952C14.3581 23.6803 14.3671 23.6599 14.3677 23.6384C14.3684 23.6169 14.3607 23.596 14.3462 23.58Z" fill="#050505"/>
<path d="M15.8939 23.983C15.8759 23.9625 15.8511 23.949 15.8241 23.9451C15.7971 23.9411 15.7695 23.9469 15.7463 23.9614C15.7218 23.9787 15.7018 24.0016 15.688 24.0282C15.6742 24.0548 15.667 24.0844 15.667 24.1144C15.667 24.1444 15.6742 24.1739 15.688 24.2006C15.7018 24.2272 15.7218 24.2501 15.7463 24.2674C15.759 24.2751 15.7732 24.2803 15.7879 24.2825C15.8026 24.2847 15.8176 24.2839 15.8321 24.2802C15.8465 24.2765 15.86 24.27 15.8719 24.261C15.8838 24.252 15.8937 24.2407 15.9011 24.2278C15.9027 24.2098 15.9027 24.1917 15.9011 24.1738V24.1486H15.9263C15.9375 24.1208 15.9404 24.0904 15.9347 24.061C15.9289 24.0316 15.9148 24.0045 15.8939 23.983Z" fill="#050505"/>
<path d="M16.6141 23.8644C16.6114 23.8563 16.607 23.8489 16.6012 23.8428C16.5954 23.8366 16.5882 23.8318 16.5803 23.8287C16.5724 23.8256 16.5639 23.8243 16.5554 23.8248C16.5469 23.8254 16.5387 23.8279 16.5313 23.832C16.511 23.8448 16.4949 23.8631 16.4847 23.8848C16.4744 23.9065 16.4706 23.9306 16.4737 23.9544C16.4736 23.9609 16.475 23.9673 16.4775 23.9732C16.4801 23.9791 16.4839 23.9844 16.4886 23.9888C16.4934 23.9932 16.499 23.9966 16.5051 23.9987C16.5112 24.0009 16.5176 24.0017 16.5241 24.0012C16.5352 24.0069 16.5476 24.0099 16.5601 24.0099C16.5726 24.0099 16.5849 24.0069 16.5961 24.0012C16.6063 23.9934 16.6148 23.9837 16.6213 23.9726C16.6277 23.9615 16.6319 23.9493 16.6336 23.9365C16.6352 23.9238 16.6344 23.9109 16.631 23.8985C16.6277 23.8861 16.6219 23.8745 16.6141 23.8644Z" fill="#050505"/>
<path d="M16.9995 24.2279C16.9707 24.2027 16.9275 24.1631 16.8879 24.1631C16.8699 24.1628 16.8519 24.1661 16.8352 24.1729C16.8185 24.1797 16.8034 24.1899 16.7907 24.2027C16.7259 24.2711 16.7907 24.3575 16.8483 24.3899C16.8665 24.3975 16.8865 24.3998 16.906 24.3965C16.9255 24.3932 16.9436 24.3845 16.9583 24.3713C16.973 24.3581 16.9837 24.341 16.9891 24.322C16.9944 24.303 16.9943 24.2828 16.9887 24.2639C16.9887 24.2639 17.0067 24.2351 16.9995 24.2279Z" fill="#050505"/>
<path d="M18.979 25.2719C18.979 25.2467 18.9394 25.1963 18.9106 25.1999C18.871 25.1999 18.835 25.2431 18.8242 25.2755C18.8134 25.3079 18.8494 25.3511 18.8746 25.3763C18.8831 25.3827 18.8928 25.3872 18.9032 25.3894C18.9135 25.3916 18.9242 25.3915 18.9346 25.3891C18.9449 25.3867 18.9545 25.382 18.9628 25.3755C18.9711 25.3689 18.9779 25.3606 18.9826 25.3511C18.9909 25.3394 18.995 25.3252 18.9944 25.3109C18.9937 25.2965 18.9883 25.2828 18.979 25.2719Z" fill="#050505"/>
<path d="M16.1245 26.1972C16.1211 26.1934 16.117 26.1903 16.1123 26.1882C16.1077 26.1861 16.1026 26.1851 16.0975 26.1851C16.0924 26.1851 16.0874 26.1861 16.0827 26.1882C16.078 26.1903 16.0739 26.1934 16.0705 26.1972C16.0417 26.226 16.0525 26.2584 16.0705 26.2872C16.0688 26.2943 16.0688 26.3017 16.0705 26.3088L16.0993 26.3376C16.1281 26.3628 16.1677 26.3376 16.1713 26.298C16.1734 26.2786 16.1701 26.2589 16.1619 26.2412C16.1536 26.2234 16.1407 26.2082 16.1245 26.1972Z" fill="#050505"/>
<path d="M17.6761 16.6861C17.6761 16.6573 17.6113 16.6537 17.5861 16.6609C17.5592 16.6735 17.5379 16.6954 17.526 16.7225C17.514 16.7497 17.5124 16.7802 17.5213 16.8085C17.5465 16.8625 17.6221 16.8337 17.6545 16.8085C17.6869 16.7833 17.7229 16.7185 17.6761 16.6861Z" fill="#050505"/>
<path d="M18.8678 16.2217C18.8528 16.2223 18.8386 16.2287 18.8282 16.2397C18.8181 16.2462 18.8095 16.2547 18.803 16.2649C18.8016 16.2792 18.8016 16.2937 18.803 16.3081C18.7974 16.3219 18.7974 16.3374 18.803 16.3513C18.8123 16.3566 18.8229 16.3595 18.8336 16.3595C18.8444 16.3595 18.8549 16.3566 18.8642 16.3513C18.8783 16.3459 18.891 16.3372 18.901 16.326C18.911 16.3147 18.9182 16.3011 18.9218 16.2865C18.922 16.271 18.9167 16.256 18.9068 16.2441C18.8969 16.2322 18.8831 16.2243 18.8678 16.2217Z" fill="#050505"/>
<path d="M20.4043 16.2002C20.395 16.1847 20.3842 16.1702 20.3719 16.157C20.3681 16.1493 20.3616 16.1433 20.3537 16.14C20.3457 16.1367 20.3369 16.1363 20.3287 16.139C20.3183 16.1374 20.3077 16.1394 20.2985 16.1446C20.2894 16.1498 20.2823 16.158 20.2783 16.1678C20.2662 16.1872 20.2598 16.2096 20.2598 16.2326C20.2598 16.2555 20.2662 16.2779 20.2783 16.2974C20.2783 16.2974 20.3071 16.337 20.3323 16.3334C20.3472 16.3319 20.3614 16.3265 20.3735 16.3176C20.3855 16.3087 20.3949 16.2967 20.4007 16.283C20.4072 16.2702 20.4108 16.2562 20.4114 16.2419C20.412 16.2277 20.4096 16.2134 20.4043 16.2002Z" fill="#050505"/>
<path d="M20.1279 16.5601C20.1212 16.5535 20.1122 16.5498 20.1027 16.5498C20.0933 16.5498 20.0843 16.5535 20.0775 16.5601C20.0698 16.5682 20.0639 16.5778 20.0602 16.5884C20.0565 16.5989 20.055 16.6101 20.0559 16.6213C20.0584 16.6293 20.064 16.6361 20.0714 16.6401C20.0788 16.6442 20.0874 16.6451 20.0955 16.6429C20.1036 16.6403 20.111 16.6359 20.1172 16.63C20.1234 16.6242 20.1282 16.6171 20.1313 16.6091C20.1344 16.6012 20.1357 16.5927 20.1351 16.5842C20.1345 16.5758 20.1321 16.5675 20.1279 16.5601Z" fill="#050505"/>
<path d="M21.186 15.9732L21.1644 15.9408C21.1644 15.912 21.1212 15.8976 21.096 15.9408C21.0881 15.9558 21.084 15.9725 21.084 15.9894C21.084 16.0064 21.0881 16.0231 21.096 16.038C21.096 16.0704 21.132 16.11 21.168 16.0992C21.1771 16.0967 21.1853 16.0916 21.1917 16.0846C21.198 16.0776 21.2023 16.069 21.204 16.0596C21.2094 16.045 21.2106 16.0291 21.2075 16.0138C21.2043 15.9986 21.1968 15.9845 21.186 15.9732Z" fill="#050505"/>
<path d="M22.4429 16.2754C22.4429 16.2754 22.4105 16.2502 22.3925 16.2754C22.3674 16.2882 22.3481 16.3101 22.3385 16.3366C22.3169 16.4266 22.4393 16.5526 22.5149 16.4626C22.5905 16.3726 22.4897 16.3078 22.4429 16.2754Z" fill="#050505"/>
<path d="M23.0833 17.8814V17.8634C23.0617 17.8382 23.0329 17.705 22.9753 17.741C22.9177 17.777 22.9321 17.8454 22.9465 17.8994C22.9609 17.9534 23.0257 18.0326 23.0833 17.957C23.0896 17.9454 23.0929 17.9324 23.0929 17.9192C23.0929 17.906 23.0896 17.893 23.0833 17.8814Z" fill="#050505"/>
<path d="M23.1156 18.4034C23.1156 18.4034 23.1336 18.4034 23.1156 18.3782C23.0945 18.3713 23.0718 18.3713 23.0508 18.3782C23.0338 18.381 23.0181 18.3886 23.0053 18.4001C22.9925 18.4116 22.9833 18.4265 22.9788 18.443C22.9724 18.4557 22.9697 18.4699 22.971 18.4841C22.9724 18.4982 22.9777 18.5117 22.9863 18.523C22.9949 18.5342 23.0066 18.5428 23.0199 18.5478C23.0332 18.5528 23.0476 18.5539 23.0616 18.551C23.0845 18.5421 23.1034 18.5251 23.1147 18.5032C23.1259 18.4813 23.1288 18.4561 23.1228 18.4322L23.1156 18.4034Z" fill="#050505"/>
<path d="M21.7331 19.0801C21.7291 19.0761 21.7244 19.0729 21.7191 19.0707C21.7139 19.0685 21.7082 19.0674 21.7025 19.0674C21.6969 19.0674 21.6912 19.0685 21.686 19.0707C21.6807 19.0729 21.676 19.0761 21.6719 19.0801C21.6551 19.0905 21.6417 19.1055 21.6334 19.1235C21.6251 19.1414 21.6222 19.1613 21.6251 19.1809C21.6251 19.2169 21.6503 19.2457 21.6899 19.2421C21.7111 19.2388 21.7307 19.2291 21.7462 19.2143C21.7616 19.1995 21.7722 19.1803 21.7763 19.1593C21.7776 19.1433 21.7741 19.1273 21.7665 19.1133C21.7588 19.0992 21.7472 19.0877 21.7331 19.0801Z" fill="#050505"/>
<path d="M20.9343 18.8318C20.9292 18.8119 20.9188 18.7937 20.9042 18.7791C20.8897 18.7646 20.8715 18.7542 20.8515 18.749C20.8011 18.749 20.7615 18.7814 20.7507 18.8282C20.7429 18.8503 20.7433 18.8745 20.7519 18.8964C20.7605 18.9182 20.7767 18.9362 20.7975 18.947C20.81 18.9521 20.8235 18.9543 20.837 18.9532C20.8505 18.9522 20.8635 18.948 20.8751 18.941C20.8866 18.934 20.8964 18.9244 20.9035 18.9129C20.9107 18.9014 20.9151 18.8885 20.9163 18.875C20.9232 18.8703 20.9285 18.8637 20.9317 18.8561C20.9349 18.8484 20.9358 18.84 20.9343 18.8318Z" fill="#050505"/>
<path d="M23.9865 18.5759C23.9936 18.5512 23.9936 18.525 23.9865 18.5003C23.9764 18.4817 23.9619 18.4658 23.9444 18.4539C23.9269 18.442 23.9068 18.4344 23.8857 18.4319C23.8737 18.4285 23.8608 18.4291 23.8491 18.4336C23.8374 18.4382 23.8275 18.4464 23.8209 18.4571C23.7923 18.4872 23.7764 18.5271 23.7764 18.5687C23.7764 18.6102 23.7923 18.6502 23.8209 18.6803C23.8356 18.6924 23.8532 18.7006 23.8719 18.7041C23.8907 18.7075 23.91 18.7061 23.928 18.7C23.9461 18.6939 23.9623 18.6832 23.975 18.669C23.9878 18.6549 23.9967 18.6377 24.0009 18.6191C24.0007 18.6035 23.9957 18.5885 23.9865 18.5759Z" fill="#050505"/>
<path d="M23.9755 20.6244C23.9772 20.6149 23.9772 20.6052 23.9755 20.5956C23.9755 20.556 23.9107 20.5668 23.8927 20.5956C23.8797 20.6156 23.871 20.6381 23.8673 20.6617C23.8636 20.6853 23.8649 20.7094 23.8711 20.7324C23.8711 20.772 23.9179 20.826 23.9683 20.808C24.0187 20.79 24.0115 20.6856 23.9755 20.6244Z" fill="#050505"/>
<path d="M24.5236 20.88C24.5135 20.8663 24.5014 20.8541 24.4876 20.844C24.4792 20.8381 24.4691 20.835 24.4588 20.835C24.4485 20.835 24.4385 20.8381 24.43 20.844C24.4146 20.8599 24.4035 20.8795 24.3979 20.901C24.3922 20.9224 24.3921 20.9449 24.3976 20.9664C24.4012 20.9813 24.4087 20.9949 24.4192 21.006H24.4408C24.4526 21.009 24.465 21.009 24.4768 21.006C24.4768 21.006 24.5272 20.9844 24.5308 20.97C24.5404 20.9402 24.5378 20.9079 24.5236 20.88Z" fill="#050505"/>
<path d="M22.8785 20.9774C22.8785 20.945 22.8281 20.9162 22.7921 20.9594C22.7769 20.9832 22.7672 21.01 22.7634 21.038C22.7597 21.0659 22.7621 21.0944 22.7705 21.1214C22.7705 21.1898 22.8677 21.233 22.9109 21.161C22.9281 21.1315 22.9343 21.0968 22.9284 21.0632C22.9225 21.0296 22.9048 20.9991 22.8785 20.9774Z" fill="#050505"/>
<path d="M22.1944 20.6713C22.1944 20.6317 22.144 20.5525 22.0972 20.5705C22.0504 20.5885 22.036 20.6461 22.0324 20.6965C22.0281 20.7239 22.0304 20.7519 22.0391 20.7783C22.0479 20.8046 22.0629 20.8284 22.0828 20.8477C22.1368 20.8981 22.2052 20.8261 22.2088 20.7721C22.2136 20.7552 22.2147 20.7375 22.2122 20.7202C22.2098 20.7028 22.2037 20.6862 22.1944 20.6713Z" fill="#050505"/>
<path d="M21.3983 21.2401C21.3925 21.2171 21.3828 21.1951 21.3695 21.1753V21.1573C21.3299 21.0997 21.2759 21.1573 21.2687 21.2077C21.2615 21.2581 21.2687 21.3589 21.3515 21.3337C21.3685 21.3254 21.3823 21.3117 21.3907 21.2948C21.3992 21.2779 21.4018 21.2587 21.3983 21.2401Z" fill="#050505"/>
<path d="M22.8352 23.8606C22.8318 23.8446 22.8243 23.8297 22.8136 23.8174C22.7812 23.7778 22.738 23.8174 22.7236 23.8498C22.7145 23.8779 22.7145 23.9081 22.7236 23.9362C22.7271 23.9461 22.7329 23.9551 22.7405 23.9624C22.748 23.9698 22.7572 23.9753 22.7672 23.9785C22.7773 23.9817 22.7879 23.9825 22.7983 23.981C22.8088 23.9794 22.8187 23.9754 22.8273 23.9694C22.8359 23.9633 22.8431 23.9554 22.8481 23.9461C22.8532 23.9369 22.856 23.9266 22.8564 23.916C22.8568 23.9055 22.8548 23.895 22.8505 23.8854C22.8462 23.8758 22.8397 23.8673 22.8316 23.8606H22.8352Z" fill="#050505"/>
<path d="M23.3277 24.1706C23.3173 24.1742 23.3078 24.1798 23.2998 24.1873C23.2917 24.1947 23.2853 24.2037 23.2809 24.2138C23.2651 24.2418 23.2568 24.2734 23.2568 24.3056C23.2568 24.3377 23.2651 24.3694 23.2809 24.3974C23.2809 24.4298 23.3421 24.4226 23.3673 24.3974C23.3843 24.3857 23.3984 24.3701 23.4084 24.352C23.4184 24.3339 23.4241 24.3137 23.4249 24.293C23.4213 24.2534 23.3997 24.1526 23.3277 24.1706Z" fill="#050505"/>
<path d="M24.5126 23.083C24.4879 23.0973 24.4696 23.1207 24.4615 23.1481C24.4535 23.1756 24.4563 23.2051 24.4694 23.2306C24.5018 23.2954 24.5882 23.2666 24.6098 23.2054C24.6746 23.137 24.5774 23.0398 24.5126 23.083Z" fill="#050505"/>
<path d="M12.2395 18.5435C12.2071 18.4967 12.1603 18.4211 12.1171 18.3491C12.1215 18.4815 12.1057 18.6138 12.0703 18.7415C12.1459 18.7775 12.2503 18.8351 12.3619 18.8963C12.5635 19.0079 12.3331 18.6731 12.2395 18.5435Z" fill="#6C260C"/>
<path d="M11.6532 20.8331C11.516 20.7317 11.3947 20.6104 11.2932 20.4731C11.2781 20.6132 11.3044 20.7547 11.3688 20.8799C11.6388 20.9843 11.7108 20.8799 11.6532 20.8331Z" fill="#6C260C"/>
<path d="M17.33 6.0733L17.1464 6.3073L17.0168 6.0409C17.015 6.0326 17.015 6.02399 17.0168 6.0157C17.0168 5.9941 17.0168 5.9869 16.9916 6.0157L16.9196 5.8501C16.9196 5.8501 16.8908 5.8501 16.8944 5.8717C16.898 5.8933 16.9484 5.9869 16.9772 6.0481C16.9228 6.11509 16.8734 6.18609 16.8296 6.2605C16.8045 6.2047 16.784 6.1469 16.7684 6.0877C16.7684 6.0697 16.7396 6.0877 16.7396 6.1057C16.7487 6.17887 16.7681 6.25039 16.7972 6.3181C16.7216 6.4585 16.6712 6.6025 16.6064 6.7501C16.6064 6.7681 16.6064 6.7501 16.6316 6.7501C16.6856 6.6385 16.7288 6.5233 16.7828 6.3901L16.8152 6.3325C16.8543 6.41987 16.9001 6.50411 16.952 6.5845C16.9052 6.6781 16.8656 6.7753 16.8152 6.8689C16.8152 6.8941 16.8152 6.8941 16.8404 6.8689C16.8908 6.7861 16.9304 6.6997 16.9736 6.6097C16.9827 6.62642 16.9936 6.64212 17.006 6.6565C17.006 6.6781 17.0528 6.6565 17.0456 6.6241L17.006 6.5485C17.0433 6.47878 17.0867 6.41252 17.1356 6.3505C17.1644 6.4081 17.1968 6.4621 17.2292 6.5161C17.2616 6.5701 17.2724 6.5161 17.2652 6.4873L17.168 6.3073C17.2364 6.2245 17.3012 6.1417 17.3588 6.0589C17.3696 6.0625 17.3444 6.0553 17.33 6.0733ZM17.024 6.4801C17.0064 6.50143 16.9907 6.52433 16.9772 6.5485C16.934 6.4657 16.8836 6.3829 16.8404 6.2965C16.8836 6.2245 16.934 6.1525 16.9844 6.0841L17.114 6.3541L17.024 6.4801Z" fill="#8E785A"/>
<g style="mix-blend-mode:screen">
<path d="M13.7914 25.7582C13.6546 25.3658 13.4782 24.8114 13.3054 24.437C13.1227 24.0036 13.0015 23.5468 12.9454 23.0798C12.8806 22.6509 12.7443 22.2359 12.5422 21.8522C12.3406 21.4922 12.0382 21.161 11.851 20.7722C11.7611 20.5448 11.7476 20.2943 11.8126 20.0586C11.8775 19.8229 12.0174 19.6146 12.211 19.4654C12.3247 19.3849 12.4154 19.2762 12.4742 19.1499C12.5329 19.0236 12.5576 18.8842 12.5458 18.7454C12.4846 18.2594 12.0814 17.9138 12.3874 17.4062C12.5386 17.1542 12.7474 16.967 12.7474 16.6538C12.7474 16.6178 12.6934 16.6538 12.6898 16.6826C12.643 17.075 12.2722 17.255 12.1678 17.615C12.1024 17.9931 12.1658 18.3823 12.3478 18.7202C12.5206 19.217 12.031 19.3898 11.8114 19.7462C11.622 20.0538 11.5588 20.4227 11.635 20.7758C11.8042 21.1611 12.0207 21.5239 12.2794 21.8558C12.5168 22.2763 12.6719 22.7381 12.7366 23.2166C12.7911 23.6379 12.8876 24.0528 13.0246 24.455C13.1973 24.887 13.417 25.2987 13.6798 25.6826C13.7374 25.7546 13.813 25.823 13.7914 25.7582Z" fill="#944620"/>
<path d="M16.2759 27C15.8285 26.9537 15.3982 26.8033 15.0195 26.5608C14.7223 26.2642 14.3765 26.0207 13.9971 25.8408C13.9719 25.8408 14.0511 25.8912 14.0763 25.9056C14.4363 26.1108 14.6271 26.5176 14.9295 26.7768C15.2981 27.0415 15.7476 27.1688 16.2003 27.1368C16.2471 27.1584 16.3479 27.0324 16.2759 27Z" fill="#944620"/>
</g>
<path d="M21.02 14.4793C21.02 14.4793 20.2208 12.4129 21.0884 11.0269C20.6528 11.2645 20.2388 12.5425 20.7032 14.0149C20.8796 14.5153 21.0344 14.5909 21.02 14.4793Z" fill="#0B480C"/>
<path d="M20.9881 14.4505C20.9881 14.4505 21.0169 13.5217 21.6289 13.3309C21.4951 13.3229 21.3616 13.3525 21.2437 13.4163C21.1257 13.4801 21.0279 13.5756 20.9613 13.6919C20.8947 13.8083 20.8619 13.941 20.8667 14.075C20.8714 14.209 20.9135 14.3391 20.9881 14.4505Z" fill="#4B8B2D"/>
<path d="M20.8582 14.3135C20.5783 14.0516 20.2323 13.8712 19.8574 13.7915C20.1166 13.5971 20.779 13.9463 20.8582 14.3135Z" fill="#4B8B2D"/>
<path d="M20.7038 14.0148C20.4655 13.5588 20.1358 13.1569 19.7354 12.834C20.1386 12.852 20.7722 13.68 20.7038 14.0148Z" fill="#4B8B2D"/>
<path d="M20.7466 13.7015C20.7466 13.7015 20.8114 13.0067 21.427 12.9167C21.0238 12.7691 20.4694 13.0391 20.7466 13.7015Z" fill="#68B42E"/>
<path d="M20.6637 12.8702C20.6869 12.7621 20.7336 12.6605 20.8005 12.5725C20.8674 12.4845 20.9529 12.4124 21.0508 12.3611C21.1488 12.3099 21.2568 12.2809 21.3672 12.2762C21.4777 12.2715 21.5878 12.2911 21.6897 12.3338C21.1245 12.017 20.4945 12.1538 20.6637 12.8702Z" fill="#4B8B2D"/>
<path d="M20.5594 13.1794C20.3803 12.9145 20.1441 12.693 19.8682 12.5314C20.1598 12.4594 20.617 12.9598 20.5594 13.1794Z" fill="#4B8B2D"/>
<path d="M20.6133 12.4415C20.7355 12.2253 20.8992 12.0355 21.0951 11.8829C21.2909 11.7303 21.515 11.6179 21.7545 11.5523C22.0281 11.5199 20.7321 11.1599 20.6133 12.4415Z" fill="#4B8B2D"/>
<path d="M20.5197 12.661C20.351 12.319 20.0609 12.052 19.7061 11.9122C19.9761 11.7826 20.6025 12.2614 20.5197 12.661Z" fill="#68B42E"/>
<path d="M20.5923 12.179C20.3503 11.8126 20.2019 11.3922 20.1603 10.955C20.1603 10.7822 19.8543 11.3798 20.5743 12.2978C20.5773 12.2578 20.5833 12.2181 20.5923 12.179Z" fill="#4B8B2D"/>
<path d="M20.6169 12.0385C20.541 11.6935 20.5215 11.3385 20.5593 10.9873C20.4517 11.1444 20.3991 11.3326 20.4095 11.5227C20.4199 11.7128 20.4928 11.8941 20.6169 12.0385Z" fill="#68B42E"/>
<path d="M20.7539 13.4606C20.7539 13.4606 20.8943 12.9278 21.3551 12.899C21.0635 12.8306 20.7971 13.1114 20.7539 13.4606Z" fill="#ABDB91"/>
<path d="M20.7148 12.1968C20.8104 12.0148 20.9482 11.8583 21.1167 11.7405C21.2852 11.6228 21.4795 11.5472 21.6832 11.52C21.4728 11.5238 21.2683 11.5902 21.0958 11.7107C20.9233 11.8313 20.7907 12.0005 20.7148 12.1968Z" fill="#ABDB91"/>
<path d="M19.9336 12.5532C20.1727 12.6793 20.3749 12.8654 20.5204 13.0932C20.3958 12.8487 20.1876 12.6571 19.9336 12.5532Z" fill="#ABDB91"/>
<path d="M12.1576 27.1042C12.1576 27.1042 11.974 25.0126 9.90039 24.8686C11.1604 24.6634 12.442 25.729 12.1576 27.1042Z" fill="#D2A677"/>
<path d="M12.0027 26.3554C11.5549 26.0236 11.0267 25.8173 10.4727 25.7578C11.0667 25.585 12.0063 25.9198 12.0027 26.3554Z" fill="#7FA95F"/>
<path d="M12.0886 26.6869C11.8731 26.5697 11.6263 26.523 11.3829 26.5533C11.1394 26.5837 10.9116 26.6895 10.7314 26.8561C11.203 26.1469 12.1102 26.1973 12.0886 26.6869Z" fill="#4B8B2D"/>
<path d="M11.6389 25.693C11.1435 25.4997 10.6086 25.4293 10.0801 25.4878C10.4149 25.225 11.4841 25.2754 11.6389 25.693Z" fill="#68B42E"/>
<path d="M11.7251 25.8338C11.7251 25.8338 11.0339 24.4874 10.5371 24.2354C11.1599 24.419 11.8799 25.5098 11.7251 25.8338Z" fill="#4B8B2D"/>
<path d="M11.9335 25.9198C11.9366 25.4291 11.7924 24.9488 11.5195 24.541C11.795 24.7487 12.0012 25.0349 12.1111 25.3619C12.221 25.6889 12.2293 26.0415 12.1351 26.3734C12.083 26.216 12.0155 26.064 11.9335 25.9198Z" fill="#68B42E"/>
<path d="M12.1679 26.8094C12.3368 26.3493 12.58 25.92 12.8879 25.5386C12.4343 25.5026 12.1211 26.4602 12.1211 26.4602L12.1679 26.8094Z" fill="#458B28"/>
<path d="M12.0885 26.0638C12.0946 25.5845 11.9483 25.1156 11.6709 24.7246C11.9517 24.8398 12.2001 25.6786 12.0885 26.0638Z" fill="#ABDB91"/>
<path d="M11.4841 25.5814C11.0942 25.4385 10.6764 25.388 10.2637 25.4338C10.6745 25.3264 11.1107 25.3792 11.4841 25.5814Z" fill="#ABDB91"/>
</g>
<defs>
<clipPath id="clip0_35_803">
<rect width="36" height="36" fill="white"/>
</clipPath>
</defs>
</svg>
