<svg width="150" height="20" viewBox="0 0 150 20" fill="none" xmlns="http://www.w3.org/2000/svg">
<path d="M4 10H12" stroke="#E3FFA8" stroke-width="2" stroke-linecap="round" stroke-linejoin="round"/>
<path d="M8 14V6" stroke="#E3FFA8" stroke-width="2" stroke-linecap="round" stroke-linejoin="round"/>
<path d="M28.104 15L25.864 11.108H24.646V15H23.05V5.27H26.41C27.1567 5.27 27.7867 5.40067 28.3 5.662C28.8227 5.92333 29.21 6.27333 29.462 6.712C29.7233 7.15067 29.854 7.64067 29.854 8.182C29.854 8.81667 29.6673 9.39533 29.294 9.918C28.93 10.4313 28.3653 10.7813 27.6 10.968L30.008 15H28.104ZM24.646 9.834H26.41C27.0073 9.834 27.4553 9.68467 27.754 9.386C28.062 9.08733 28.216 8.686 28.216 8.182C28.216 7.678 28.0667 7.286 27.768 7.006C27.4693 6.71667 27.0167 6.572 26.41 6.572H24.646V9.834ZM38.9657 10.954C38.9657 11.2433 38.947 11.5047 38.9097 11.738H33.0157C33.0624 12.354 33.291 12.8487 33.7017 13.222C34.1124 13.5953 34.6164 13.782 35.2137 13.782C36.0724 13.782 36.679 13.4227 37.0337 12.704H38.7557C38.5224 13.4133 38.0977 13.9967 37.4817 14.454C36.875 14.902 36.119 15.126 35.2137 15.126C34.4764 15.126 33.8137 14.9627 33.2257 14.636C32.647 14.3 32.1897 13.8333 31.8537 13.236C31.527 12.6293 31.3637 11.9293 31.3637 11.136C31.3637 10.3427 31.5224 9.64733 31.8397 9.05C32.1664 8.44333 32.619 7.97667 33.1977 7.65C33.7857 7.32333 34.4577 7.16 35.2137 7.16C35.9417 7.16 36.5904 7.31867 37.1597 7.636C37.729 7.95333 38.1724 8.40133 38.4897 8.98C38.807 9.54933 38.9657 10.2073 38.9657 10.954ZM37.2997 10.45C37.2904 9.862 37.0804 9.39067 36.6697 9.036C36.259 8.68133 35.7504 8.504 35.1437 8.504C34.593 8.504 34.1217 8.68133 33.7297 9.036C33.3377 9.38133 33.1044 9.85267 33.0297 10.45H37.2997ZM40.0043 11.136C40.0043 10.3427 40.163 9.64733 40.4803 9.05C40.807 8.44333 41.255 7.97667 41.8243 7.65C42.3937 7.32333 43.047 7.16 43.7843 7.16C44.7177 7.16 45.4877 7.384 46.0943 7.832C46.7103 8.27067 47.1257 8.90067 47.3403 9.722H45.6183C45.4783 9.33933 45.2543 9.04067 44.9463 8.826C44.6383 8.61133 44.251 8.504 43.7843 8.504C43.131 8.504 42.6083 8.73733 42.2163 9.204C41.8337 9.66133 41.6423 10.3053 41.6423 11.136C41.6423 11.9667 41.8337 12.6153 42.2163 13.082C42.6083 13.5487 43.131 13.782 43.7843 13.782C44.7083 13.782 45.3197 13.376 45.6183 12.564H47.3403C47.1163 13.348 46.6963 13.9733 46.0803 14.44C45.4643 14.8973 44.699 15.126 43.7843 15.126C43.047 15.126 42.3937 14.9627 41.8243 14.636C41.255 14.3 40.807 13.8333 40.4803 13.236C40.163 12.6293 40.0043 11.9293 40.0043 11.136ZM52.2769 15.126C51.5489 15.126 50.8909 14.9627 50.3029 14.636C49.7149 14.3 49.2529 13.8333 48.9169 13.236C48.5809 12.6293 48.4129 11.9293 48.4129 11.136C48.4129 10.352 48.5855 9.65667 48.9309 9.05C49.2762 8.44333 49.7475 7.97667 50.3449 7.65C50.9422 7.32333 51.6095 7.16 52.3469 7.16C53.0842 7.16 53.7515 7.32333 54.3489 7.65C54.9462 7.97667 55.4175 8.44333 55.7629 9.05C56.1082 9.65667 56.2809 10.352 56.2809 11.136C56.2809 11.92 56.1035 12.6153 55.7489 13.222C55.3942 13.8287 54.9089 14.3 54.2929 14.636C53.6862 14.9627 53.0142 15.126 52.2769 15.126ZM52.2769 13.74C52.6875 13.74 53.0702 13.642 53.4249 13.446C53.7889 13.25 54.0829 12.956 54.3069 12.564C54.5309 12.172 54.6429 11.696 54.6429 11.136C54.6429 10.576 54.5355 10.1047 54.3209 9.722C54.1062 9.33 53.8215 9.036 53.4669 8.84C53.1122 8.644 52.7295 8.546 52.3189 8.546C51.9082 8.546 51.5255 8.644 51.1709 8.84C50.8255 9.036 50.5502 9.33 50.3449 9.722C50.1395 10.1047 50.0369 10.576 50.0369 11.136C50.0369 11.9667 50.2469 12.6107 50.6669 13.068C51.0962 13.516 51.6329 13.74 52.2769 13.74ZM59.4546 8.406C59.6879 8.014 59.9959 7.71067 60.3786 7.496C60.7706 7.272 61.2326 7.16 61.7646 7.16V8.812H61.3586C60.7333 8.812 60.2573 8.97067 59.9306 9.288C59.6133 9.60533 59.4546 10.156 59.4546 10.94V15H57.8586V7.286H59.4546V8.406ZM62.6996 11.108C62.6996 10.3333 62.8583 9.64733 63.1756 9.05C63.5023 8.45267 63.941 7.99067 64.4916 7.664C65.0516 7.328 65.6723 7.16 66.3536 7.16C66.8576 7.16 67.3523 7.272 67.8376 7.496C68.3323 7.71067 68.7243 8 69.0136 8.364V4.64H70.6236V15H69.0136V13.838C68.7523 14.2113 68.3883 14.5193 67.9216 14.762C67.4643 15.0047 66.937 15.126 66.3396 15.126C65.6676 15.126 65.0516 14.958 64.4916 14.622C63.941 14.2767 63.5023 13.8007 63.1756 13.194C62.8583 12.578 62.6996 11.8827 62.6996 11.108ZM69.0136 11.136C69.0136 10.604 68.9016 10.142 68.6776 9.75C68.463 9.358 68.1783 9.05933 67.8236 8.854C67.469 8.64867 67.0863 8.546 66.6756 8.546C66.265 8.546 65.8823 8.64867 65.5276 8.854C65.173 9.05 64.8836 9.344 64.6596 9.736C64.445 10.1187 64.3376 10.576 64.3376 11.108C64.3376 11.64 64.445 12.1067 64.6596 12.508C64.8836 12.9093 65.173 13.2173 65.5276 13.432C65.8916 13.6373 66.2743 13.74 66.6756 13.74C67.0863 13.74 67.469 13.6373 67.8236 13.432C68.1783 13.2267 68.463 12.928 68.6776 12.536C68.9016 12.1347 69.0136 11.668 69.0136 11.136ZM83.3006 7.286L78.5686 18.626H76.9166L78.4846 14.874L75.4466 7.286H77.2246L79.3946 13.166L81.6486 7.286H83.3006ZM87.8511 15.126C87.1231 15.126 86.4651 14.9627 85.8771 14.636C85.2891 14.3 84.8271 13.8333 84.4911 13.236C84.1551 12.6293 83.9871 11.9293 83.9871 11.136C83.9871 10.352 84.1597 9.65667 84.5051 9.05C84.8504 8.44333 85.3217 7.97667 85.9191 7.65C86.5164 7.32333 87.1837 7.16 87.9211 7.16C88.6584 7.16 89.3257 7.32333 89.9231 7.65C90.5204 7.97667 90.9917 8.44333 91.3371 9.05C91.6824 9.65667 91.8551 10.352 91.8551 11.136C91.8551 11.92 91.6777 12.6153 91.3231 13.222C90.9684 13.8287 90.4831 14.3 89.8671 14.636C89.2604 14.9627 88.5884 15.126 87.8511 15.126ZM87.8511 13.74C88.2617 13.74 88.6444 13.642 88.9991 13.446C89.3631 13.25 89.6571 12.956 89.8811 12.564C90.1051 12.172 90.2171 11.696 90.2171 11.136C90.2171 10.576 90.1097 10.1047 89.8951 9.722C89.6804 9.33 89.3957 9.036 89.0411 8.84C88.6864 8.644 88.3037 8.546 87.8931 8.546C87.4824 8.546 87.0997 8.644 86.7451 8.84C86.3997 9.036 86.1244 9.33 85.9191 9.722C85.7137 10.1047 85.6111 10.576 85.6111 11.136C85.6111 11.9667 85.8211 12.6107 86.2411 13.068C86.6704 13.516 87.2071 13.74 87.8511 13.74ZM100.419 7.286V15H98.8228V14.09C98.5708 14.4073 98.2395 14.6593 97.8288 14.846C97.4275 15.0233 96.9981 15.112 96.5408 15.112C95.9341 15.112 95.3881 14.986 94.9028 14.734C94.4268 14.482 94.0488 14.1087 93.7688 13.614C93.4981 13.1193 93.3628 12.522 93.3628 11.822V7.286H94.9448V11.584C94.9448 12.2747 95.1175 12.8067 95.4628 13.18C95.8081 13.544 96.2795 13.726 96.8768 13.726C97.4741 13.726 97.9455 13.544 98.2908 13.18C98.6455 12.8067 98.8228 12.2747 98.8228 11.584V7.286H100.419ZM104.121 8.406C104.354 8.014 104.662 7.71067 105.045 7.496C105.437 7.272 105.899 7.16 106.431 7.16V8.812H106.025C105.399 8.812 104.923 8.97067 104.597 9.288C104.279 9.60533 104.121 10.156 104.121 10.94V15H102.525V7.286H104.121V8.406ZM120.872 7.16C121.479 7.16 122.02 7.286 122.496 7.538C122.982 7.79 123.36 8.16333 123.63 8.658C123.91 9.15267 124.05 9.75 124.05 10.45V15H122.468V10.688C122.468 9.99733 122.296 9.47 121.95 9.106C121.605 8.73267 121.134 8.546 120.536 8.546C119.939 8.546 119.463 8.73267 119.108 9.106C118.763 9.47 118.59 9.99733 118.59 10.688V15H117.008V10.688C117.008 9.99733 116.836 9.47 116.49 9.106C116.145 8.73267 115.674 8.546 115.076 8.546C114.479 8.546 114.003 8.73267 113.648 9.106C113.303 9.47 113.13 9.99733 113.13 10.688V15H111.534V7.286H113.13V8.168C113.392 7.85067 113.723 7.60333 114.124 7.426C114.526 7.24867 114.955 7.16 115.412 7.16C116.028 7.16 116.579 7.29067 117.064 7.552C117.55 7.81333 117.923 8.19133 118.184 8.686C118.418 8.21933 118.782 7.85067 119.276 7.58C119.771 7.3 120.303 7.16 120.872 7.16ZM133.151 10.954C133.151 11.2433 133.133 11.5047 133.095 11.738H127.201C127.248 12.354 127.477 12.8487 127.887 13.222C128.298 13.5953 128.802 13.782 129.399 13.782C130.258 13.782 130.865 13.4227 131.219 12.704H132.941C132.708 13.4133 132.283 13.9967 131.667 14.454C131.061 14.902 130.305 15.126 129.399 15.126C128.662 15.126 127.999 14.9627 127.411 14.636C126.833 14.3 126.375 13.8333 126.039 13.236C125.713 12.6293 125.549 11.9293 125.549 11.136C125.549 10.3427 125.708 9.64733 126.025 9.05C126.352 8.44333 126.805 7.97667 127.383 7.65C127.971 7.32333 128.643 7.16 129.399 7.16C130.127 7.16 130.776 7.31867 131.345 7.636C131.915 7.95333 132.358 8.40133 132.675 8.98C132.993 9.54933 133.151 10.2073 133.151 10.954ZM131.485 10.45C131.476 9.862 131.266 9.39067 130.855 9.036C130.445 8.68133 129.936 8.504 129.329 8.504C128.779 8.504 128.307 8.68133 127.915 9.036C127.523 9.38133 127.29 9.85267 127.215 10.45H131.485ZM134.19 11.108C134.19 10.3333 134.349 9.64733 134.666 9.05C134.993 8.45267 135.431 7.99067 135.982 7.664C136.542 7.328 137.158 7.16 137.83 7.16C138.437 7.16 138.964 7.28133 139.412 7.524C139.869 7.75733 140.233 8.05133 140.504 8.406V7.286H142.114V15H140.504V13.852C140.233 14.216 139.865 14.5193 139.398 14.762C138.931 15.0047 138.399 15.126 137.802 15.126C137.139 15.126 136.533 14.958 135.982 14.622C135.431 14.2767 134.993 13.8007 134.666 13.194C134.349 12.578 134.19 11.8827 134.19 11.108ZM140.504 11.136C140.504 10.604 140.392 10.142 140.168 9.75C139.953 9.358 139.669 9.05933 139.314 8.854C138.959 8.64867 138.577 8.546 138.166 8.546C137.755 8.546 137.373 8.64867 137.018 8.854C136.663 9.05 136.374 9.344 136.15 9.736C135.935 10.1187 135.828 10.576 135.828 11.108C135.828 11.64 135.935 12.1067 136.15 12.508C136.374 12.9093 136.663 13.2173 137.018 13.432C137.382 13.6373 137.765 13.74 138.166 13.74C138.577 13.74 138.959 13.6373 139.314 13.432C139.669 13.2267 139.953 12.928 140.168 12.536C140.392 12.1347 140.504 11.668 140.504 11.136ZM145.806 4.64V15H144.21V4.64H145.806Z" fill="#E3FFA8"/>
</svg>
