<svg width="36" height="36" viewBox="0 0 36 36" fill="none" xmlns="http://www.w3.org/2000/svg">
<g clip-path="url(#clip0_35_596)">
<path d="M36.0003 17.8453C36.0308 21.4054 35.0049 24.8945 33.0524 27.8715C31.0998 30.8484 28.3083 33.1795 25.0309 34.57C21.7535 35.9604 18.1374 36.3477 14.6398 35.6829C11.1423 35.0181 7.92044 33.3311 5.38171 30.8352C2.84299 28.3392 1.10143 25.1465 0.377279 21.6608C-0.346875 18.1751 -0.0210974 14.5529 1.31341 11.2523C2.64792 7.95171 4.93123 5.12099 7.87457 3.11812C10.8179 1.11525 14.2891 0.0301891 17.8491 0.000153199C22.6224 -0.0401192 27.2163 1.8173 30.6202 5.16385C34.0242 8.51041 35.9594 13.072 36.0003 17.8453Z" fill="#F4F4F4"/>
<path d="M17.8566 1.22433C22.0065 1.19217 26.0204 2.70264 29.1196 5.46269C32.2188 8.22275 34.1822 12.0356 34.629 16.1615C35.0759 20.2874 33.9742 24.4322 31.5377 27.7918C29.1013 31.1513 25.5038 33.486 21.4432 34.343C17.3826 35.2 13.1484 34.5181 9.56218 32.4297C5.97593 30.3412 3.29328 26.9951 2.03471 23.0405C0.776137 19.086 1.03137 14.8048 2.75089 11.0278C4.47041 7.25076 7.53161 4.24709 11.3406 2.59953C13.3982 1.70824 15.6143 1.24053 17.8566 1.22433ZM17.8566 0.806732C14.456 0.835337 11.1403 1.87171 8.32881 3.78479C5.51728 5.69787 3.3362 8.40172 2.0614 11.5544C0.786604 14.7071 0.475344 18.167 1.16699 21.4966C1.85863 24.8262 3.52211 27.8759 5.94705 30.2601C8.372 32.6443 11.4495 34.2558 14.7903 34.8909C18.1312 35.5259 21.5853 35.156 24.7159 33.8279C27.8466 32.4999 30.513 30.2732 32.3782 27.4297C34.2433 24.5861 35.2233 21.2533 35.1942 17.8527C35.1543 13.2936 33.3055 8.93688 30.0543 5.74041C26.8032 2.54394 22.4158 0.769334 17.8566 0.806732Z" fill="#006EC3"/>
<path d="M17.8637 1.80006C22.1596 1.76362 26.2941 3.43506 29.3578 6.44675C32.4215 9.45844 34.1634 13.5637 34.2005 17.8597C34.2305 21.5962 32.9678 25.2283 30.6264 28.1404C28.285 31.0526 25.0089 33.0658 21.3531 33.839C17.6973 34.6122 13.8866 34.0978 10.5666 32.383C7.24662 30.6682 4.62153 27.8584 3.13608 24.4297C2.07496 21.9759 1.63757 19.2978 1.8629 16.634C2.08823 13.9701 2.96929 11.4035 4.4275 9.16289C5.88571 6.92228 7.87575 5.07737 10.2201 3.79267C12.5646 2.50797 15.1904 1.82342 17.8637 1.80006ZM17.8637 1.63086C14.6288 1.65801 11.4745 2.64372 8.79975 4.46335C6.12499 6.28299 4.0498 8.85484 2.83656 11.8538C1.62331 14.8527 1.3265 18.144 1.98363 21.3116C2.64076 24.4792 4.22234 27.3808 6.5284 29.6496C8.83446 31.9184 11.7614 33.4525 14.9393 34.058C18.1172 34.6635 21.4032 34.3131 24.382 33.0512C27.3608 31.7893 29.8985 29.6725 31.6743 26.9685C33.4502 24.2645 34.3844 21.0946 34.3589 17.8597C34.3161 13.5245 32.5546 9.38358 29.4612 6.34616C26.3677 3.30875 22.1953 1.6232 17.8601 1.65966L17.8637 1.63086Z" fill="#006EC3"/>
<path d="M30.3663 17.8958C30.3869 20.3414 29.6818 22.7383 28.3402 24.7832C26.9986 26.8281 25.0807 28.4292 22.8291 29.3842C20.5775 30.3391 18.0933 30.605 15.6907 30.1481C13.288 29.6912 11.0747 28.5321 9.33082 26.8174C7.58689 25.1026 6.39059 22.9093 5.8932 20.5147C5.39581 18.12 5.61966 15.6317 6.53645 13.3643C7.45324 11.0969 9.02179 9.1523 11.0438 7.77636C13.0657 6.40041 15.4503 5.65494 17.8959 5.6342C21.1754 5.60736 24.3312 6.88392 26.6697 9.18323C29.0081 11.4825 30.3378 14.6164 30.3663 17.8958Z" fill="#DADADA"/>
<path d="M30.1034 17.8957C30.124 20.2894 29.4343 22.6354 28.1216 24.6371C26.8088 26.6388 24.932 28.2063 22.7284 29.1413C20.5249 30.0764 18.0935 30.337 15.7418 29.8902C13.3901 29.4435 11.2237 28.3094 9.51655 26.6314C7.80938 24.9535 6.63811 22.8069 6.15086 20.4633C5.6636 18.1197 5.88225 15.6842 6.77915 13.4648C7.67604 11.2454 9.21091 9.34187 11.1897 7.99481C13.1684 6.64774 15.5022 5.91767 17.8958 5.89694C19.4853 5.88317 21.0618 6.18261 22.5355 6.77817C24.0092 7.37372 25.3512 8.25373 26.4848 9.36793C27.6184 10.4821 28.5214 11.8087 29.1423 13.2719C29.7632 14.7351 30.0898 16.3063 30.1034 17.8957Z" fill="#F4F4F4"/>
<path d="M25.168 21.9242C24.9124 22.0214 25.0492 22.241 25.2004 22.3742C25.3516 22.5074 25.5928 22.3202 25.5928 22.3202C25.9024 22.0826 26.3128 21.8414 26.248 21.7442C26.1832 21.647 26.0464 21.6938 25.7692 21.7442C25.5655 21.7926 25.3648 21.8527 25.168 21.9242Z" fill="#809F20"/>
<path d="M19.2498 23.3392C17.6999 23.7629 16.1846 24.3045 14.7174 24.9592C14.235 25.2076 14.6778 25.8952 14.6778 25.8952C14.883 26.1724 15.0162 26.3236 16.215 26.2552C17.4934 26.175 18.7493 25.8805 19.9302 25.384C21.417 24.7936 23.0154 24.2248 24.2178 23.62C25.4202 23.0152 25.1502 22.738 25.449 22.4644C25.4958 22.4248 25.5498 22.378 25.6074 22.3348C25.6074 22.3348 25.3662 22.5184 25.215 22.3852C25.0638 22.252 24.927 22.0252 25.1826 21.9352C25.3815 21.8611 25.5847 21.7986 25.791 21.748C25.4562 21.7912 24.9594 21.8884 24.351 21.9964C23.1918 22.1836 21.6006 22.6552 19.2498 23.3392Z" fill="#648C08"/>
<path d="M18.0871 25.6251C18.0871 25.6251 18.5155 25.4667 18.8395 25.3803C19.1635 25.2939 19.3687 25.2219 19.0951 25.4847C18.9206 25.6838 18.6973 25.8339 18.4471 25.9203C18.2491 25.9743 18.0871 25.9851 17.9719 25.8699C17.8567 25.7547 17.9647 25.6719 18.0871 25.6251Z" fill="#809F20"/>
<g style="mix-blend-mode:multiply" opacity="0.5">
<path d="M24.3288 21.9819C23.1912 22.1835 21.6144 22.6551 19.2492 23.3391C18.5472 23.5443 17.9028 23.7459 17.334 23.9367C18.774 23.8287 20.178 23.7135 21.5964 23.5767C22.428 23.4867 23.3496 23.3679 24.0696 22.9071C24.4078 22.6768 24.7699 22.4837 25.1496 22.3311C25.0272 22.1979 24.9552 22.0251 25.1784 21.9387C25.3774 21.8645 25.5805 21.802 25.7868 21.7515C25.4484 21.7767 24.9516 21.8739 24.3288 21.9819Z" fill="#648C08"/>
</g>
<g style="mix-blend-mode:multiply" opacity="0.5">
<path d="M17.3668 25.7547C16.7764 25.7547 16.1896 25.7223 15.5992 25.7547C15.3452 25.7745 15.0901 25.7745 14.836 25.7547C14.7474 25.7422 14.6596 25.7242 14.5732 25.7007C14.6027 25.7705 14.6376 25.8379 14.6776 25.9023C14.8828 26.1795 15.016 26.3307 16.2148 26.2623C17.1114 26.21 17.9979 26.0455 18.8536 25.7727C18.3604 25.7583 17.86 25.7583 17.3668 25.7547Z" fill="#648C08"/>
</g>
<path d="M15.0487 25.0092C15.0487 25.0092 15.0487 25.3692 15.5239 25.164C15.9991 24.9588 16.4815 24.6888 16.4383 24.5772C16.3951 24.4656 15.6967 24.5196 15.3583 24.6744C15.0199 24.8292 15.0271 24.9264 15.0487 25.0092Z" fill="#809F20"/>
<path d="M19.1266 24.5448C19.1266 24.5448 18.8746 24.2136 19.0582 24.138C19.485 23.9942 19.9272 23.9011 20.3758 23.8608C20.4262 23.922 19.9654 24.2208 19.7026 24.408C19.4398 24.5952 19.267 24.7284 19.1266 24.5448Z" fill="#809F20"/>
<path d="M21.5748 24.8402C21.8227 24.7492 22.0633 24.6397 22.2948 24.5126C22.6548 24.3038 22.9572 24.0986 22.932 24.0374C22.9068 23.9762 22.0752 24.1958 21.6936 24.3074C21.0924 24.4802 21.1752 25.0022 21.5748 24.8402Z" fill="#809F20"/>
<path d="M24.9304 22.8888C24.9304 22.8888 24.9952 23.1696 25.222 23.0832C25.582 22.9051 25.9153 22.6772 26.212 22.4064C26.4352 22.176 26.1904 22.248 25.7224 22.3452C25.2544 22.4424 24.8404 22.5684 24.9304 22.8888Z" fill="#809F20"/>
<path d="M24.0051 22.1186C24.0242 22.1846 24.0619 22.2437 24.1135 22.289C24.1652 22.3343 24.2288 22.3638 24.2967 22.3742C24.5379 22.4138 24.5811 22.3094 24.8403 22.1186C25.0995 21.9278 25.5207 21.5174 25.0203 21.6614C24.5199 21.8054 23.9043 21.9278 24.0051 22.1186Z" fill="#809F20"/>
<path d="M14.2451 27.5763C14.2451 27.5763 14.1947 28.2495 14.6051 28.3215C15.8929 28.3631 17.1819 28.3054 18.4607 28.1487C19.7999 27.9939 19.7819 27.9759 20.6207 27.8823C21.4595 27.7887 21.7835 27.8607 23.1407 27.6555C24.4979 27.4503 24.6995 27.4647 24.5591 27.2739C24.4187 27.0831 24.1991 26.6403 22.4567 26.5863C20.7143 26.5323 14.4575 26.8959 14.2451 27.5763Z" fill="#648C08"/>
<g style="mix-blend-mode:multiply" opacity="0.5">
<path d="M19.4188 27.4143C20.4655 27.3382 21.5004 27.145 22.504 26.8383C22.7092 26.7735 22.9072 26.7051 23.1088 26.6331C22.918 26.6115 22.6984 26.5935 22.4464 26.5863C20.722 26.5323 14.458 26.8959 14.2456 27.5763C14.2369 27.717 14.2515 27.8581 14.2888 27.9939C15.9664 27.5907 17.7016 27.5727 19.4188 27.4143Z" fill="#648C08"/>
</g>
<path d="M17.2806 28.2603C17.5098 28.2255 17.7344 28.1651 17.9502 28.0803C18.195 27.9615 17.907 27.8607 17.3022 27.8319C16.6974 27.8031 16.6074 27.8823 16.6074 28.0767C16.6074 28.2711 16.701 28.4007 17.2806 28.2603Z" fill="#809F20"/>
<path d="M20.6789 27.8968C20.9203 27.8956 21.1612 27.874 21.3989 27.832C21.7049 27.7672 21.6005 27.6268 21.1649 27.6088C20.7293 27.5908 20.5205 27.5764 20.5205 27.7204C20.5205 27.8644 20.5565 27.8932 20.6789 27.8968Z" fill="#809F20"/>
<path d="M23.4577 27.36C23.4577 27.36 23.4577 27.594 23.6593 27.594C23.963 27.5915 24.2635 27.5316 24.5449 27.4176C24.5989 27.3384 24.3613 27.27 23.8249 27.2412C23.4793 27.1908 23.4469 27.2376 23.4577 27.36Z" fill="#788E1A"/>
<path d="M23.7607 26.9392C23.7607 26.9392 23.7607 27.3316 24.0667 27.3208C24.3727 27.31 24.9055 27.2488 24.9235 27.1516C24.9415 27.0544 23.7211 26.5144 23.7607 26.9392Z" fill="#809F20"/>
<path d="M23.0188 27.3602C23.2099 27.3635 23.4011 27.3551 23.5912 27.335C23.8612 27.3026 24.1168 27.2882 23.5336 27.0902C22.9504 26.8922 22.5652 26.8202 22.5724 27.0542C22.5796 27.2882 22.6084 27.3314 23.0188 27.3602Z" fill="#809F20"/>
<path d="M24.4266 25.6827C24.4266 25.6827 24.7866 25.5747 24.729 25.4595C24.6714 25.3443 24.333 25.3263 24.0738 25.4307C23.8146 25.5351 23.955 25.7619 24.4266 25.6827Z" fill="#AAC844"/>
<path d="M13.0751 27.0831C13.0751 27.0831 13.1615 27.7203 13.6403 27.7203C14.1191 27.7203 15.5159 27.5511 16.3619 27.4791C17.2079 27.4071 17.7407 27.5007 19.1087 27.3495C20.4873 27.1924 21.8459 26.8919 23.1623 26.4531C24.2423 26.0715 24.9083 25.7655 24.1415 25.5927C23.0526 25.4485 21.9482 25.4691 20.8655 25.6539C20.1743 25.8087 15.6851 26.0823 13.9103 25.8987C13.1039 25.8591 12.9239 26.4135 13.0751 27.0831Z" fill="#84AE0C"/>
<path d="M16.7801 26.3558C17.05 26.2869 17.3262 26.2459 17.6045 26.2334C18.0293 26.2334 18.1985 26.2694 17.8601 26.4422C17.5217 26.615 17.0033 26.8238 16.8305 26.6978C16.6577 26.5718 16.6937 26.399 16.7801 26.3558Z" fill="#AAC844"/>
<path d="M19.4401 25.8736C19.4401 25.8736 19.4185 26.2336 19.7461 26.1508C20.0867 26.0737 20.4158 25.9527 20.7253 25.7908C20.9197 25.6648 20.7433 25.6252 20.3653 25.6612C19.9873 25.6972 19.4185 25.7008 19.4401 25.8736Z" fill="#AAC844"/>
<path d="M20.6895 27.0793C21.0322 27.0358 21.3699 26.9586 21.6975 26.8489C21.9567 26.7265 21.6723 26.7733 21.2007 26.7013C20.3943 26.5825 20.3763 27.0397 20.6895 27.0793Z" fill="#AAC844"/>
<path d="M22.979 26.5144C22.979 26.5144 22.6406 26.6404 22.5002 26.3992C22.3598 26.158 22.5542 25.9708 22.8962 25.9924C23.2382 26.014 23.9978 26.122 23.771 26.212L22.979 26.5144Z" fill="#AAC844"/>
<path d="M22.903 25.7292C22.903 25.7292 22.9282 25.9416 23.4646 25.812C24.001 25.6824 24.451 25.452 24.253 25.3764C24.055 25.3008 22.6114 25.2648 22.903 25.7292Z" fill="#9FB739"/>
<path d="M22.3207 25.5207C22.3207 25.5207 22.4287 25.8807 22.7347 25.7871C23.0407 25.6935 23.6923 25.5099 23.4295 25.4271C23.1667 25.3443 22.2667 25.2435 22.3207 25.5207Z" fill="#AAC844"/>
<path d="M15.2215 27.454C15.2215 27.454 15.2683 27.7708 15.6715 27.7204C16.1408 27.6738 16.6055 27.5896 17.0611 27.4684C17.2771 27.3748 16.3915 27.2812 15.9271 27.2848C15.4627 27.2884 15.1567 27.2848 15.2215 27.454Z" fill="#AAC844"/>
<path d="M12.6006 24.0448C12.6006 24.0448 15.4806 23.9692 17.7954 23.7316C20.1102 23.494 20.0094 23.5084 21.1902 23.3392C22.2702 23.1808 23.4438 22.9792 23.9694 22.8424C24.495 22.7056 24.3294 22.5436 23.6706 22.4032C22.5992 22.2339 21.515 22.1592 20.4306 22.18C19.1238 22.18 19.059 22.1008 18.429 22.1008C17.799 22.1008 16.4022 21.982 14.5662 21.9172C12.7302 21.8524 12.1326 21.7444 12.0462 22.1836C11.9022 23.0404 11.8806 24.088 12.6006 24.0448Z" fill="#84AE0C"/>
<path d="M14.5692 23.6415C14.5692 23.6415 15.2892 23.5191 15.6924 23.4075C16.0956 23.2959 16.0992 23.2815 15.5016 23.0871C14.904 22.8927 14.04 22.7595 14.04 23.1339C14.04 23.5083 14.1624 23.7027 14.5692 23.6415Z" fill="#AAC844"/>
<path d="M12.0386 22.1836C12.0386 22.1836 11.963 22.5436 12.521 22.3744C12.8868 22.2223 13.265 22.1019 13.6514 22.0144C14.0114 21.9568 13.7774 21.91 13.2914 21.874C12.8054 21.838 12.1214 21.712 12.0386 22.1836Z" fill="#AAC844"/>
<path d="M17.8387 22.2807C17.8387 22.2807 16.8703 22.6407 16.7263 22.4679C16.5823 22.2951 16.5283 22.0467 17.0215 22.0071C17.5147 21.9675 18.4867 22.0071 18.3283 22.0935C18.17 22.1679 18.0063 22.2304 17.8387 22.2807Z" fill="#AAC844"/>
<path d="M19.188 23.5912C18.833 23.6721 18.4717 23.7227 18.108 23.7424C17.6832 23.7424 17.5788 23.6092 17.748 23.3284C17.9172 23.0476 18.2196 23.1664 18.5004 23.2708C18.7812 23.3752 18.9864 23.548 19.188 23.5912Z" fill="#AAC844"/>
<path d="M22.4571 23.0185C22.4571 23.0185 22.4571 23.3209 22.9503 23.2633C23.4435 23.2057 23.9835 23.0941 23.9799 22.9861C23.9763 22.8781 23.5335 22.6477 23.0259 22.5829C22.5183 22.5181 22.3923 22.7341 22.4571 23.0185Z" fill="#9FB739"/>
<path d="M22.5829 22.4748C22.5829 22.4748 22.6297 22.7592 22.9897 22.7052C23.267 22.6555 23.5411 22.5894 23.8105 22.5072C24.0013 22.4568 23.9185 22.3632 23.6305 22.284C23.3425 22.2048 22.4281 22.0896 22.5829 22.4748Z" fill="#97A833"/>
<path d="M22.068 22.3777C22.068 22.3777 21.9312 22.1437 22.2336 22.1257C22.536 22.1077 23.2236 22.0573 23.2776 22.1725C23.3316 22.2877 22.9788 22.4281 22.6872 22.5109C22.3956 22.5937 22.2156 22.6189 22.068 22.3777Z" fill="#AAC844"/>
<path d="M23.0399 22.9755C22.6868 23.0937 22.3259 23.1875 21.9599 23.2563C21.6179 23.2995 21.4847 23.2239 21.5243 22.9251C21.5639 22.6263 21.7223 22.4931 22.1039 22.5651C22.4314 22.6636 22.7456 22.8014 23.0399 22.9755Z" fill="#AAC844"/>
<path d="M21.4848 22.8315C21.4848 22.8315 20.4048 23.2887 20.2644 22.9827C20.124 22.6767 20.2104 22.4139 20.7216 22.4787C21.2328 22.5435 22.0824 22.5651 21.4848 22.8315Z" fill="#AAC844"/>
<g style="mix-blend-mode:screen">
<path d="M15.84 23.6307C14.6736 23.7135 13.5036 23.6595 12.3372 23.6991C12.3156 23.6991 12.3372 23.7315 12.3552 23.7315C12.9286 23.8029 13.5054 23.8437 14.0832 23.8539C14.706 23.8539 15.3288 23.8359 15.9516 23.8035C17.1947 23.7487 18.4307 23.5848 19.6452 23.3139C19.7244 23.2959 19.5804 23.1483 19.5228 23.1555C18.2736 23.2779 17.0676 23.5443 15.84 23.6307Z" fill="#84AE0C"/>
<path d="M20.196 23.0583C20.0664 23.0835 19.9476 23.0583 19.836 23.1231C19.7964 23.1519 19.8756 23.2203 19.908 23.2059C20.052 23.1411 20.2068 23.2059 20.3544 23.1735C20.5342 23.1497 20.7106 23.105 20.88 23.0403C20.9412 23.0151 20.8296 22.9287 20.7936 22.9287C20.5915 22.9569 20.3917 23.0002 20.196 23.0583Z" fill="#84AE0C"/>
</g>
<g style="mix-blend-mode:screen">
<path d="M16.8991 27.2196C15.7291 27.3024 14.5627 27.2484 13.3963 27.288C13.3747 27.288 13.3963 27.3204 13.3963 27.324C13.97 27.3924 14.5467 27.4321 15.1243 27.4428C15.7471 27.4428 16.3699 27.4428 16.9927 27.3924C18.2409 27.3404 19.4819 27.1766 20.7007 26.9028C20.7799 26.9028 20.6359 26.7372 20.5783 26.7444C19.3471 26.8668 18.1375 27.1368 16.8991 27.2196Z" fill="#84AE0C"/>
<path d="M21.2661 26.6401C21.1401 26.6689 21.0177 26.6401 20.9061 26.7049C20.8629 26.7337 20.9421 26.8021 20.9781 26.7877C21.1221 26.7229 21.2733 26.7877 21.4245 26.7553C21.5996 26.7347 21.7721 26.6961 21.9393 26.6401C22.0005 26.6149 21.8889 26.5249 21.8529 26.5249C21.6551 26.551 21.4591 26.5895 21.2661 26.6401Z" fill="#84AE0C"/>
</g>
<g style="mix-blend-mode:multiply">
<path d="M30.2406 14.6019C29.8374 14.4327 29.3766 14.7603 29.0634 15.0411C28.6466 15.435 28.2725 15.8719 27.9474 16.3443C27.5874 16.8087 27.2058 17.1831 26.8386 17.6151C26.6712 17.8413 26.4909 18.0576 26.2986 18.2631C26.2352 18.2565 26.1763 18.2271 26.133 18.1803C25.9746 18.0111 26.0934 17.4603 26.133 17.2587C26.2267 16.9166 26.2512 16.5592 26.205 16.2075C25.9962 15.3759 25.071 16.2075 24.765 16.5099C24.459 16.8123 24.2106 17.3019 23.8362 17.3379C23.4618 17.3739 23.3466 16.8375 23.3358 16.4775C23.3702 15.895 23.5003 15.3221 23.721 14.7819C23.9661 13.8824 24.3052 13.0112 24.7326 12.1827C24.934 11.8821 25.0837 11.5499 25.1754 11.1999C25.2416 10.9645 25.2159 10.7128 25.1037 10.4956C24.9914 10.2785 24.8009 10.112 24.5706 10.0299C24.1638 9.9327 23.7174 10.3899 23.4546 10.6959C23.1616 11.079 22.9275 11.5037 22.7598 11.9559C22.5654 12.4275 22.4178 12.9135 22.263 13.3959C22.191 13.6227 22.1154 13.8459 22.0362 14.0691C21.9574 14.317 21.8937 14.5695 21.8454 14.8251C21.8299 14.9281 21.7888 15.0256 21.7259 15.1086C21.663 15.1916 21.5803 15.2575 21.4854 15.3003C21.1866 15.3975 21.1686 14.7783 21.1758 14.5803C21.2182 14.0342 21.3049 13.4924 21.435 12.9603C21.5466 12.4779 21.6618 11.9883 21.795 11.5203C21.9282 11.0523 22.1262 10.5771 22.2702 10.0803C22.3854 9.6915 22.8102 8.1723 22.1946 8.0571C21.579 7.9419 21.1146 9.0147 20.787 9.5223C20.297 10.3706 19.8838 11.2609 19.5522 12.1827C19.4658 12.3951 19.3758 12.6039 19.2786 12.8091L19.1382 13.0827C19.1382 13.0827 19.023 13.2807 19.041 13.2555C18.9402 13.4139 18.8394 13.5723 18.735 13.7235C18.6774 13.8063 18.6126 13.8819 18.5514 13.9575C18.609 13.8891 18.5514 13.9395 18.4938 13.9863C18.4771 13.9836 18.4601 13.9836 18.4434 13.9863C18.4325 13.9634 18.4192 13.9416 18.4038 13.9215C18.3546 13.8301 18.3194 13.7318 18.2994 13.6299C18.2239 13.1657 18.2484 12.6907 18.3714 12.2367C18.5042 11.8133 18.5958 11.3781 18.645 10.9371C18.7025 10.6447 18.7025 10.3439 18.645 10.0515C18.4794 9.6915 17.4102 11.9847 17.3238 12.1935C16.8054 13.4103 16.323 14.6415 15.5238 15.6279C15.4014 15.7791 15.1638 16.0851 14.9838 16.1031C14.6238 16.1355 14.5194 15.4839 14.4978 15.1779C14.4829 14.7159 14.5264 14.2538 14.6274 13.8027C14.8636 12.8223 15.1692 11.8598 15.5418 10.9227C15.8262 10.0983 16.2618 9.3711 16.5858 8.5683C16.7478 8.1579 16.9458 7.2363 16.4598 7.0383C16.1934 6.9303 15.8874 7.1571 15.6714 7.3299C15.3727 7.58524 15.1153 7.88517 14.9082 8.2191C14.4512 8.9752 14.0817 9.78076 13.8066 10.6203C13.3888 11.7554 13.0519 12.9188 12.7986 14.1015C12.7086 14.5371 12.7338 14.9979 12.633 15.4299C12.5898 15.6135 12.3594 16.2039 12.165 16.1319C11.9706 16.0599 12.093 15.2427 12.1218 15.0519C12.1844 14.6286 12.2968 14.2141 12.4566 13.8171C12.543 13.6011 13.2054 12.4887 13.0038 12.2511C12.7554 11.9595 12.0966 12.5355 11.9634 12.7083C11.5206 13.2987 11.1102 14.4003 10.7214 15.0771C10.4874 15.4839 10.0914 16.0743 9.64137 15.7395C9.19137 15.4047 9.15537 14.5047 9.28137 13.9611C9.50457 13.0503 10.2174 12.5031 10.8186 12.0027C11.2362 11.6427 12.3162 10.9623 12.3486 10.2027C12.381 9.4431 11.4198 10.0083 11.1786 10.1811C10.4001 10.7923 9.76487 11.5664 9.31737 12.4491C8.79948 13.2906 8.53108 14.2619 8.54337 15.2499C8.59377 15.9699 8.97177 16.8375 9.65217 16.6899C10.4298 16.5135 10.8942 15.2679 11.2542 14.5299C11.4763 14.0431 11.7264 13.5695 12.003 13.1115C12.1218 12.9243 12.399 12.4131 12.6222 12.3915C13.0686 12.3375 12.3774 13.5903 12.2874 13.7883C11.949 14.5083 11.2506 15.6927 11.4486 16.5927C11.6106 17.3127 12.2694 17.0283 12.597 16.6539C13.0938 16.0887 13.2486 15.2139 13.3782 14.4399C13.7094 12.4311 13.9578 10.3683 15.0234 8.7231C15.1854 8.4711 15.7002 7.5603 16.0242 7.7547C16.3482 7.9491 15.873 8.6043 15.7578 8.8059C15.459 9.35242 15.1956 9.91758 14.9694 10.4979C14.4997 11.5399 14.168 12.6388 13.983 13.7667C13.8606 14.6127 13.6878 16.1571 14.451 16.6467C15.1278 17.0895 15.7398 16.0707 16.107 15.4983C16.5966 14.7315 16.8738 13.7883 17.241 12.9315C17.007 13.7703 16.9746 14.7675 17.4318 15.4875C17.7234 15.9411 18.285 15.8223 18.6522 15.6423C19.0835 15.3745 19.4411 15.0033 19.6926 14.5623C20.2182 13.7667 20.4378 12.7623 20.6574 11.7795C20.7582 11.3223 20.8518 10.8579 20.9706 10.4043C21.0959 9.93777 21.2773 9.48811 21.5106 9.0651C21.5948 8.89014 21.708 8.73068 21.8454 8.5935C22.1262 8.3235 22.2054 8.7519 22.227 9.0003C22.2119 9.52995 22.1035 10.0528 21.9066 10.5447C21.6011 11.5035 21.3475 12.4782 21.147 13.4643C21.0645 13.8927 21.0056 14.3254 20.9706 14.7603C20.9428 14.9108 20.954 15.0659 21.0032 15.2109C21.0523 15.3558 21.1378 15.4857 21.2514 15.5883C21.6906 15.9123 22.1982 15.2679 22.4574 14.9079C22.8644 14.3458 23.1971 13.7336 23.4474 13.0863C23.5194 12.8991 23.5482 12.6903 23.6346 12.5139C23.721 12.3375 23.937 12.1539 23.9694 12.5139C23.9606 12.7583 23.9195 13.0004 23.847 13.2339C23.7923 13.6163 23.7093 13.9942 23.5986 14.3643C23.451 14.8467 23.3358 15.3363 23.2386 15.8331C23.1018 16.4991 22.7778 17.6907 23.5482 17.9931C23.9082 18.1335 24.2682 17.8383 24.5742 17.6331C24.7542 17.4963 24.9342 17.3523 25.1142 17.2011C25.2018 17.1191 25.2971 17.0456 25.3986 16.9815C25.3986 17.0427 25.3698 17.1039 25.3626 17.1507C25.3279 17.3458 25.3075 17.5431 25.3014 17.7411C25.262 18.078 25.3117 18.4194 25.4454 18.7311C25.7766 19.3431 26.4246 19.0191 26.8242 18.7311C27.8574 17.9607 28.491 16.5243 29.553 15.7539C29.7078 15.6531 29.6718 16.1823 29.7438 16.2507C30.3306 16.7475 31.1046 14.9583 30.2406 14.6019Z" fill="#EBEAEA"/>
</g>
<g style="mix-blend-mode:multiply">
<path d="M29.2795 17.0176C29.1155 17.1923 29.0033 17.4092 28.9555 17.644C28.9393 17.761 28.969 17.8797 29.0383 17.9752C29.0475 17.9898 29.0598 18.0021 29.0743 18.0112C29.0893 18.033 29.11 18.0502 29.1341 18.061C29.1582 18.0718 29.1849 18.0758 29.2111 18.0724C29.398 18.0597 29.5742 17.9805 29.7079 17.8492L29.7799 17.77L29.8195 17.7232C29.8794 17.643 29.9245 17.5528 29.9527 17.4568C29.9817 17.3723 29.989 17.2819 29.9739 17.1938C29.9588 17.1057 29.9218 17.0228 29.8663 16.9528C29.6863 16.7404 29.4487 16.8376 29.2795 17.0176Z" fill="#EBEAEA"/>
</g>
<g style="mix-blend-mode:multiply">
<path d="M28.7357 18.4611C28.7168 18.457 28.6971 18.457 28.6781 18.4611C28.6471 18.4615 28.6165 18.4681 28.5881 18.4805C28.5597 18.4928 28.534 18.5107 28.5125 18.5331C28.4725 18.5677 28.4405 18.6107 28.4189 18.6591C28.3954 18.7051 28.3807 18.7552 28.3757 18.8067C28.3721 18.8317 28.3721 18.8572 28.3757 18.8823C28.3796 18.9033 28.3856 18.9238 28.3937 18.9435C28.3967 18.9569 28.4024 18.9696 28.4104 18.9807C28.4185 18.9919 28.4287 19.0012 28.4405 19.0083C28.4546 19.0211 28.4704 19.032 28.4873 19.0407C28.5405 19.0576 28.5978 19.0562 28.6501 19.0366C28.7023 19.017 28.7464 18.9804 28.7753 18.9327C28.8316 18.8518 28.8571 18.7535 28.8473 18.6555C28.8484 18.6014 28.832 18.5483 28.8005 18.5043C28.7931 18.4931 28.7836 18.4836 28.7725 18.4762C28.7614 18.4687 28.7489 18.4636 28.7357 18.4611Z" fill="#EBEAEA"/>
</g>
<path opacity="0.6" d="M30.0925 14.5226C29.6893 14.357 29.2285 14.6846 28.9153 14.9654C28.5004 15.3598 28.1265 15.7952 27.7993 16.265C27.4393 16.733 27.0577 17.1074 26.6905 17.5394C26.5245 17.7656 26.3454 17.982 26.1541 18.1874C26.0894 18.1817 26.0292 18.1522 25.9849 18.1046C25.8265 17.9354 25.9489 17.3846 25.9849 17.1794C26.0805 16.8376 26.1051 16.4798 26.0569 16.1282C25.8481 15.3002 24.9265 16.1462 24.6169 16.4342C24.3073 16.7222 24.0625 17.2262 23.6881 17.2586C23.3137 17.291 23.1985 16.7582 23.1877 16.3982C23.2241 15.8171 23.3542 15.2457 23.5729 14.7062C23.8194 13.8066 24.1597 12.9355 24.5881 12.107C24.787 11.8054 24.9353 11.4735 25.0273 11.1242C25.0946 10.8893 25.0699 10.6376 24.9582 10.4203C24.8465 10.2029 24.6563 10.0363 24.4261 9.9542C24.0157 9.857 23.5693 10.3142 23.3065 10.6202C23.0091 11.0022 22.7712 11.427 22.6009 11.8802C22.4065 12.3482 22.2409 12.8342 22.1041 13.3202C22.0321 13.5482 21.9565 13.7714 21.8773 13.9898C21.799 14.2378 21.7353 14.4903 21.6865 14.7458C21.6716 14.8494 21.6308 14.9476 21.5679 15.0313C21.505 15.115 21.4219 15.1815 21.3265 15.2246C21.0241 15.3182 21.0061 14.699 21.0169 14.5046C21.0628 13.9586 21.1568 13.4177 21.2977 12.8882C21.4057 12.4022 21.5209 11.9162 21.6577 11.4482C21.7945 10.9802 21.9925 10.505 22.1329 10.0082C22.2481 9.6194 22.6729 8.0966 22.0573 7.9814C21.4417 7.8662 20.9773 8.9426 20.6497 9.4502C20.1598 10.2985 19.7465 11.1888 19.4149 12.1106C19.3285 12.323 19.2385 12.5318 19.1413 12.737L19.0009 13.007C19.0009 13.007 18.8857 13.205 18.9037 13.1834C18.8029 13.3418 18.7021 13.4966 18.5977 13.6478C18.5401 13.7306 18.4753 13.8062 18.4141 13.8818C18.4717 13.817 18.4141 13.8638 18.3565 13.9142L18.3061 13.8926C18.2948 13.8711 18.2815 13.8506 18.2665 13.8314C18.217 13.7392 18.1829 13.6395 18.1657 13.5362C18.0869 13.0722 18.1115 12.5964 18.2377 12.143C18.3673 11.7202 18.4577 11.2864 18.5077 10.847C18.5653 10.5534 18.5653 10.2514 18.5077 9.9578C18.3457 9.5978 17.2729 11.8946 17.1865 12.1178C16.6681 13.3346 16.1893 14.5658 15.3865 15.5522C15.2677 15.6998 15.0265 16.0094 14.8465 16.0274C14.4865 16.0598 14.3821 15.4082 14.3605 15.0986C14.3458 14.6366 14.3893 14.1745 14.4901 13.7234C14.7284 12.7435 15.034 11.7813 15.4045 10.8434C15.6889 10.019 16.1245 9.2918 16.4485 8.4854C16.6105 8.0786 16.8085 7.157 16.3261 6.959C16.0561 6.851 15.7501 7.0742 15.5377 7.2506C15.2381 7.50595 14.9795 7.80585 14.7709 8.1398C14.317 8.8998 13.951 9.70901 13.6801 10.5518C13.2635 11.6889 12.9302 12.8547 12.6829 14.0402C12.5929 14.4758 12.6145 14.9366 12.5137 15.3686C12.4741 15.5522 12.2437 16.1426 12.0457 16.067C11.8477 15.9914 11.9737 15.1814 12.0061 14.987C12.0654 14.5634 12.1766 14.1486 12.3373 13.7522C12.4237 13.5362 13.0861 12.4238 12.8845 12.1862C12.6829 11.9486 11.8801 12.8054 11.7361 12.9782C11.3002 13.6237 10.9116 14.2998 10.5733 15.0014C10.3393 15.4046 9.94693 15.9986 9.49333 15.6602C9.03973 15.3218 9.00733 14.429 9.13333 13.8818C9.35653 12.971 10.0693 12.4418 10.6705 11.927C11.0917 11.567 12.1681 10.8866 12.2005 10.127C12.2329 9.3674 11.2717 9.9326 11.0305 10.1054C10.2534 10.7179 9.61838 11.4917 9.16933 12.3734C8.65252 13.2152 8.38536 14.1865 8.39893 15.1742C8.44573 15.8942 8.82373 16.7618 9.50773 16.6142C10.2817 16.4378 10.7497 15.1922 11.1097 14.4542C11.3374 13.9662 11.5947 13.4925 11.8801 13.0358C12.0025 12.8486 12.2797 12.3158 12.4993 12.3158C12.9493 12.2618 12.2581 13.5146 12.1645 13.7126C11.8297 14.4326 11.1277 15.6134 11.3257 16.5134C11.4913 17.2334 12.1465 16.9526 12.4777 16.5782C12.9709 16.0094 13.1257 15.1382 13.2553 14.3642C13.5793 12.3482 13.8241 10.2854 14.8897 8.6402C15.0517 8.3882 15.5665 7.4738 15.8941 7.6682C16.2217 7.8626 15.7429 8.5178 15.6241 8.723C15.326 9.26863 15.0627 9.83256 14.8357 10.4114C14.3663 11.4535 14.0347 12.5524 13.8493 13.6802C13.7269 14.5262 13.5541 16.0706 14.3173 16.5602C14.9977 16.9994 15.6061 15.9806 15.9733 15.4118C16.4665 14.645 16.7401 13.7018 17.1073 12.845C16.8733 13.6838 16.8409 14.681 17.3017 15.401C17.5933 15.8546 18.1513 15.7322 18.5221 15.5558C18.9511 15.2851 19.3081 14.9146 19.5625 14.4758C20.0845 13.6766 20.3041 12.6758 20.5237 11.693C20.6245 11.2358 20.7181 10.7714 20.8369 10.3178C20.9655 9.85233 21.1466 9.40303 21.3769 8.9786C21.4624 8.80438 21.5754 8.64512 21.7117 8.507C21.9925 8.237 22.0717 8.6618 22.0933 8.9138C22.077 9.43711 21.9698 9.9536 21.7765 10.4402C21.4732 11.3984 21.2196 12.3717 21.0169 13.3562C20.9357 13.7859 20.878 14.2198 20.8441 14.6558C20.8167 14.8063 20.8281 14.9613 20.8772 15.1062C20.9264 15.2511 21.0116 15.381 21.1249 15.4838C21.5605 15.8078 22.0681 15.1634 22.3309 14.8034C22.7345 14.2392 23.067 13.6274 23.3209 12.9818C23.3736 12.7868 23.436 12.5945 23.5081 12.4058C23.6053 12.2078 23.8069 12.0458 23.8393 12.4058C23.83 12.6498 23.79 12.8917 23.7205 13.1258C23.6621 13.5075 23.5791 13.8851 23.4721 14.2562C23.3209 14.735 23.2093 15.2282 23.1121 15.725C22.9717 16.391 22.6477 17.5826 23.4181 17.885C23.7781 18.0254 24.1381 17.7266 24.4441 17.525C24.6277 17.3882 24.8041 17.2406 24.9841 17.0894C25.0735 17.0105 25.1686 16.9383 25.2685 16.8734C25.2685 16.9346 25.2433 16.9922 25.2325 17.0426C25.1962 17.2399 25.1745 17.4397 25.1677 17.6402C25.127 17.9771 25.1767 18.3188 25.3117 18.6302C26.0533 20.0162 27.6985 17.597 28.1917 16.931C28.4328 16.5875 28.7185 16.2776 29.0413 16.0094C29.1169 15.9518 29.2753 15.7574 29.4301 15.6494C29.5849 15.5486 29.5489 16.0778 29.6209 16.1462C30.1825 16.6718 30.9601 14.8826 30.0925 14.5226Z" fill="#A96A26"/>
<path opacity="0.4" d="M29.7178 16.8771C29.5378 16.6647 29.3002 16.7619 29.1346 16.9419C28.9674 17.1129 28.8547 17.3297 28.8106 17.5647C28.801 17.623 28.8031 17.6826 28.8167 17.7401C28.8303 17.7975 28.8551 17.8517 28.8898 17.8995C28.9012 17.9134 28.9146 17.9255 28.9294 17.9355C28.9435 17.9573 28.9636 17.9746 28.9871 17.9855C29.0107 17.9963 29.0369 18.0002 29.0626 17.9967C29.2497 17.9847 29.4261 17.9054 29.5594 17.7735L29.635 17.6907L29.6746 17.6475C29.7313 17.5659 29.775 17.4761 29.8042 17.3811C29.8336 17.2967 29.8411 17.2061 29.8259 17.118C29.8108 17.0299 29.7736 16.947 29.7178 16.8771Z" fill="#A96A26"/>
<path opacity="0.4" d="M28.6488 18.4286C28.6337 18.4071 28.6123 18.3908 28.5876 18.3818C28.5687 18.3773 28.549 18.3773 28.53 18.3818C28.499 18.3822 28.4684 18.3888 28.44 18.4011C28.4116 18.4135 28.3859 18.4314 28.3644 18.4538C28.3236 18.4876 28.2915 18.5309 28.2708 18.5798C28.2489 18.6264 28.2344 18.6762 28.2276 18.7274C28.2223 18.7523 28.2223 18.778 28.2276 18.803C28.2259 18.8233 28.2259 18.8438 28.2276 18.8642C28.2372 18.8905 28.2548 18.9132 28.278 18.929C28.2917 18.9414 28.3076 18.9512 28.3248 18.9578C28.377 18.9755 28.4337 18.9748 28.4855 18.9558C28.5372 18.9368 28.5809 18.9006 28.6092 18.8534C28.6664 18.7728 28.6932 18.6746 28.6848 18.5762C28.687 18.5245 28.6745 18.4734 28.6488 18.4286Z" fill="#A96A26"/>
<g style="mix-blend-mode:screen">
<g style="mix-blend-mode:screen" opacity="0.4">
<path d="M11.9342 9.96851C11.3913 10.1208 10.8959 10.4081 10.4942 10.8037C10.0365 11.298 9.65437 11.8573 9.36016 12.4633C9.33136 12.5137 9.38176 12.5389 9.41056 12.5029C9.58696 12.2797 9.73096 12.0241 9.90376 11.7829C10.0964 11.5325 10.3019 11.2922 10.5194 11.0629C10.9515 10.6431 11.4354 10.2802 11.9594 9.98291C11.9594 9.98291 11.9558 9.95771 11.9342 9.96851Z" fill="white"/>
</g>
<g style="mix-blend-mode:screen" opacity="0.4">
<path d="M9.43923 16.2468C9.31349 16.233 9.19301 16.1888 9.08825 16.1179C8.98348 16.047 8.89759 15.9516 8.83803 15.84C8.67066 15.5761 8.58084 15.2705 8.57883 14.958H8.55723C8.51763 15.5952 8.81283 16.398 9.41763 16.3332C9.45363 16.344 9.48963 16.254 9.43923 16.2468Z" fill="white"/>
</g>
<g style="mix-blend-mode:screen" opacity="0.4">
<path d="M12.3555 16.3046C12.1791 16.4558 11.8587 16.643 11.6571 16.4522C11.6571 16.4522 11.6355 16.4522 11.6391 16.4522C11.6477 16.4902 11.6641 16.526 11.6873 16.5573C11.7105 16.5886 11.74 16.6148 11.7739 16.6341C11.8077 16.6534 11.8453 16.6654 11.884 16.6694C11.9228 16.6734 11.962 16.6693 11.9991 16.6574C12.1631 16.6014 12.3029 16.4909 12.3951 16.3442C12.4239 16.3262 12.3951 16.2686 12.3555 16.3046Z" fill="white"/>
</g>
<g style="mix-blend-mode:screen" opacity="0.4">
<path d="M18.2916 14.0905C17.388 14.0401 18.3816 11.1385 18.3996 10.5697C18.3996 10.5481 18.378 10.5697 18.378 10.5697C18.2699 11.0055 18.1365 11.4346 17.9784 11.8549C17.8683 12.2074 17.7888 12.5687 17.7408 12.9349C17.7012 13.3489 17.7408 14.3353 18.2808 14.1445C18.2988 14.1481 18.324 14.0941 18.2916 14.0905Z" fill="white"/>
</g>
<g style="mix-blend-mode:screen" opacity="0.4">
<path d="M19.5513 14.0399C19.3813 14.3457 19.1554 14.6168 18.8853 14.8391C18.8421 14.8859 18.8601 14.9687 18.9177 14.9219C19.2359 14.7164 19.4697 14.4034 19.5765 14.0399C19.5837 14.0075 19.5585 14.0075 19.5513 14.0399Z" fill="white"/>
</g>
<g style="mix-blend-mode:screen" opacity="0.4">
<path d="M24.5626 10.1774C24.1522 9.97935 23.8174 10.2602 23.5078 10.577C23.5078 10.577 23.5078 10.6346 23.5078 10.6166C23.7106 10.4471 23.9638 10.3496 24.2278 10.3394C24.5158 10.3394 24.703 10.8578 24.6778 11.1674C24.6778 11.2106 24.7174 11.1998 24.7282 11.1674C24.8614 10.883 24.865 10.325 24.5626 10.1774Z" fill="white"/>
</g>
<g style="mix-blend-mode:screen" opacity="0.4">
<path d="M24.4983 11.6496C24.4731 11.7 24.4371 11.7504 24.4119 11.8008C24.3867 11.8512 24.4119 11.8836 24.4335 11.8872C24.4551 11.8908 24.5019 11.8476 24.5055 11.808C24.5091 11.7684 24.5055 11.7036 24.5055 11.6496C24.5055 11.5956 24.5019 11.6388 24.4983 11.6496Z" fill="white"/>
</g>
<g style="mix-blend-mode:screen" opacity="0.4">
<path d="M26.4135 18.3815C26.1003 18.5291 25.7619 18.6983 25.5315 18.2915C25.401 17.9335 25.3494 17.5516 25.3803 17.1719C25.3227 17.6651 25.2003 18.1403 25.4811 18.5615C25.7619 18.9827 26.2011 18.7163 26.4531 18.4751C26.4783 18.4427 26.4747 18.3599 26.4135 18.3815Z" fill="white"/>
</g>
<g style="mix-blend-mode:screen" opacity="0.4">
<path d="M29.5671 17.0139C29.5613 16.9828 29.5448 16.9546 29.5205 16.9343C29.4962 16.9139 29.4656 16.9026 29.4339 16.9023C29.3792 16.9139 29.3273 16.9365 29.2815 16.9687C29.2358 17.0008 29.197 17.042 29.1675 17.0895C29.1099 17.1687 29.0019 17.3379 29.0631 17.4495C29.0661 17.4935 29.081 17.5359 29.1063 17.5719C29.1675 17.6727 29.2971 17.5719 29.3583 17.5251C29.3956 17.4875 29.4293 17.4465 29.4591 17.4027C29.4744 17.38 29.4877 17.3559 29.4987 17.3307C29.4699 17.3919 29.5239 17.2911 29.5239 17.2875C29.5488 17.2471 29.5655 17.202 29.5729 17.1551C29.5803 17.1081 29.5783 17.0601 29.5671 17.0139Z" fill="white"/>
</g>
<g style="mix-blend-mode:screen" opacity="0.4">
<path d="M28.4585 18.4358C28.4318 18.4469 28.41 18.4673 28.3973 18.4934C28.3973 18.5186 28.3757 18.569 28.3973 18.5906C28.4333 18.6338 28.4765 18.5906 28.4981 18.5402C28.5197 18.4898 28.5125 18.425 28.4585 18.4358Z" fill="white"/>
</g>
<g style="mix-blend-mode:screen" opacity="0.4">
<path d="M30.0492 15.1847C30.0361 15.1706 30.0202 15.1594 30.0025 15.1518C29.9849 15.1441 29.9659 15.1401 29.9466 15.1401C29.9274 15.1401 29.9083 15.1441 29.8907 15.1518C29.873 15.1594 29.8572 15.1706 29.844 15.1847C29.7982 15.2197 29.76 15.2635 29.7315 15.3136C29.703 15.3637 29.685 15.4191 29.6784 15.4763C29.6719 15.5044 29.6711 15.5336 29.676 15.562C29.681 15.5905 29.6916 15.6176 29.7072 15.6419C29.7229 15.6604 29.7426 15.6752 29.7648 15.6851C29.7828 15.6975 29.8042 15.7041 29.826 15.7041C29.8479 15.7041 29.8692 15.6975 29.8872 15.6851C29.9581 15.639 30.0134 15.5725 30.0456 15.4943C30.0723 15.4472 30.0867 15.3941 30.0873 15.34C30.0879 15.2858 30.0748 15.2324 30.0492 15.1847Z" fill="white"/>
</g>
</g>
<path opacity="0.4" d="M10.7174 11.2935C10.6454 11.2935 10.577 11.4735 10.667 11.4699C10.757 11.4663 10.8002 11.2935 10.7174 11.2935Z" fill="#7B4E19"/>
<path opacity="0.4" d="M11.3191 10.8003C11.2651 10.8003 11.2147 10.9335 11.2831 10.9299C11.3515 10.9263 11.3875 10.8003 11.3191 10.8003Z" fill="#7B4E19"/>
<path opacity="0.4" d="M9.37871 12.6577C9.34631 12.6577 9.31751 12.7333 9.35711 12.7333C9.39671 12.7333 9.41471 12.6577 9.37871 12.6577Z" fill="#7B4E19"/>
<path opacity="0.4" d="M9.00051 13.8135C8.98251 13.8135 8.95731 13.8135 8.94651 13.8351V13.8567C8.92851 13.8891 8.94651 13.9179 8.98251 13.8927C8.98976 13.8895 8.99617 13.8847 9.00122 13.8786C9.00626 13.8725 9.0098 13.8653 9.01155 13.8576C9.01331 13.8499 9.01322 13.8419 9.0113 13.8342C9.00938 13.8266 9.00569 13.8195 9.00051 13.8135Z" fill="#7B4E19"/>
<path opacity="0.4" d="M10.1269 15.9844C10.0801 15.9304 10.0189 16.0204 10.0117 16.0744C10.0117 16.114 10.0333 16.1392 10.0621 16.132C10.1125 16.1248 10.1737 16.0348 10.1269 15.9844Z" fill="#7B4E19"/>
<path opacity="0.4" d="M9.63721 16.2002C9.61201 16.2002 9.59041 16.2578 9.61921 16.2578C9.64801 16.2578 9.66601 16.2002 9.63721 16.2002Z" fill="#7B4E19"/>
<path opacity="0.4" d="M12.6 16.0093C12.5676 16.0093 12.5352 16.0921 12.5784 16.0921C12.6216 16.0921 12.6252 16.0093 12.6 16.0093Z" fill="#7B4E19"/>
<path opacity="0.4" d="M12.8378 14.7603C12.826 14.7644 12.8155 14.7716 12.8072 14.781C12.799 14.7905 12.7934 14.802 12.791 14.8143C12.791 14.8611 12.791 14.8899 12.8414 14.8719C12.8577 14.8627 12.8708 14.8489 12.8791 14.8322C12.8875 14.8155 12.8906 14.7967 12.8882 14.7783C12.881 14.7603 12.8558 14.7603 12.8378 14.7603Z" fill="#7B4E19"/>
<path opacity="0.4" d="M16.3769 8.19373C16.3769 8.19373 16.4129 8.19373 16.4273 8.17213C16.4957 8.06053 16.3049 8.13253 16.3769 8.19373Z" fill="#7B4E19"/>
<path opacity="0.4" d="M16.3116 7.38375C16.2936 7.38375 16.2792 7.38375 16.2684 7.38375C16.2634 7.39648 16.2634 7.41063 16.2684 7.42335C16.2864 7.46295 16.3296 7.42335 16.3368 7.39455C16.344 7.36575 16.326 7.39095 16.3116 7.38375Z" fill="#7B4E19"/>
<path opacity="0.4" d="M14.9547 16.2002C14.8971 16.2002 14.8395 16.3406 14.9115 16.337C14.9835 16.3334 15.0231 16.2002 14.9547 16.2002Z" fill="#7B4E19"/>
<path opacity="0.4" d="M14.3318 16.1714C14.2922 16.1714 14.2526 16.2758 14.3066 16.2722C14.3606 16.2686 14.4002 16.1714 14.3318 16.1714Z" fill="#7B4E19"/>
<path opacity="0.4" d="M19.5302 13.5184C19.5086 13.4932 19.4762 13.5184 19.4582 13.5364C19.4486 13.5495 19.4434 13.5652 19.4434 13.5814C19.4434 13.5976 19.4486 13.6134 19.4582 13.6264C19.4834 13.6516 19.5158 13.6264 19.5302 13.6264V13.6084C19.5399 13.5954 19.5451 13.5796 19.5451 13.5634C19.5451 13.5472 19.5399 13.5315 19.5302 13.5184Z" fill="#7B4E19"/>
<path opacity="0.4" d="M18.4973 14.854C18.4469 14.854 18.3965 14.9836 18.4613 14.9836C18.5261 14.9836 18.5657 14.854 18.4973 14.854Z" fill="#7B4E19"/>
<path opacity="0.4" d="M17.6398 14.6235C17.6002 14.6235 17.5642 14.7171 17.611 14.7171C17.6578 14.7171 17.6938 14.6235 17.6398 14.6235Z" fill="#7B4E19"/>
<path opacity="0.4" d="M17.6406 14.105C17.6046 14.105 17.5722 14.1914 17.6154 14.1878C17.6586 14.1842 17.6982 14.105 17.6406 14.105Z" fill="#7B4E19"/>
<path opacity="0.4" d="M17.7988 15.3686C17.7939 15.3658 17.7883 15.3643 17.7826 15.3643C17.7769 15.3643 17.7714 15.3658 17.7664 15.3686C17.7484 15.3902 17.7484 15.4478 17.7664 15.4406C17.7844 15.4334 17.8348 15.3902 17.7988 15.3686Z" fill="#7B4E19"/>
<path opacity="0.4" d="M21.006 9.24512C20.9736 9.24512 20.9484 9.32072 20.9844 9.31712C21.0204 9.31352 21.0456 9.24512 21.006 9.24512Z" fill="#7B4E19"/>
<path opacity="0.4" d="M20.7108 9.96151C20.7108 9.91471 20.628 9.96151 20.6352 10.0191C20.6424 10.0767 20.6352 10.0623 20.6748 10.0623C20.7144 10.0623 20.7504 9.97951 20.7108 9.96151Z" fill="#7B4E19"/>
<path opacity="0.4" d="M22.5688 13.9071C22.5688 13.9071 22.5688 13.8855 22.5472 13.8855C22.5184 13.8567 22.4824 13.8567 22.4932 13.9503C22.4932 13.9503 22.4932 13.9503 22.5148 13.9503C22.5904 13.9899 22.5868 13.9431 22.5688 13.9071Z" fill="#7B4E19"/>
<path opacity="0.4" d="M22.0896 13.8745C22.0356 13.8745 21.9852 14.0077 22.0536 14.0041C22.122 14.0005 22.158 13.8745 22.0896 13.8745Z" fill="#7B4E19"/>
<path opacity="0.4" d="M23.7135 11.4268C23.6775 11.4268 23.6415 11.5204 23.6883 11.5204C23.7351 11.5204 23.7603 11.4268 23.7135 11.4268Z" fill="#7B4E19"/>
<path opacity="0.4" d="M24.2174 10.9189C24.167 10.9189 24.1202 11.0413 24.185 11.0377C24.2498 11.0341 24.2786 10.9189 24.2174 10.9189Z" fill="#7B4E19"/>
<path opacity="0.4" d="M24.0769 12.5029C24.0373 12.5029 23.9977 12.6037 24.0481 12.6037C24.0985 12.6037 24.1201 12.5029 24.0769 12.5029Z" fill="#7B4E19"/>
<path opacity="0.4" d="M24.3146 17.2588C24.2678 17.2588 24.2246 17.3596 24.2678 17.3776C24.311 17.3956 24.365 17.3776 24.3578 17.3128C24.3574 17.3003 24.353 17.2883 24.3452 17.2786C24.3374 17.2688 24.3267 17.2619 24.3146 17.2588Z" fill="#7B4E19"/>
<path opacity="0.4" d="M23.7599 17.3953C23.7383 17.3737 23.7131 17.3953 23.6987 17.3953V17.4133C23.6908 17.4244 23.6865 17.4376 23.6865 17.4511C23.6865 17.4647 23.6908 17.4779 23.6987 17.4889C23.6987 17.5105 23.7455 17.4889 23.7599 17.4889V17.4709C23.7669 17.4596 23.7706 17.4465 23.7706 17.4331C23.7706 17.4198 23.7669 17.4067 23.7599 17.3953Z" fill="#7B4E19"/>
<path opacity="0.4" d="M25.6758 17.3882C25.6326 17.3882 25.5894 17.4998 25.6434 17.4998C25.6974 17.4998 25.7334 17.3882 25.6758 17.3882Z" fill="#7B4E19"/>
<path opacity="0.4" d="M25.9888 18.3096C25.9672 18.3096 25.9456 18.3672 25.9888 18.3672C26.032 18.3672 26.0176 18.3096 25.9888 18.3096Z" fill="#7B4E19"/>
<path opacity="0.4" d="M27.8245 16.7832C27.7813 16.7832 27.7417 16.884 27.7957 16.884C27.8497 16.884 27.8749 16.7832 27.8245 16.7832Z" fill="#7B4E19"/>
<path opacity="0.4" d="M27.267 17.3882C27.2346 17.3882 27.2022 17.4746 27.2454 17.4746C27.2886 17.4746 27.3102 17.3882 27.267 17.3882Z" fill="#7B4E19"/>
<path opacity="0.4" d="M28.8004 15.6675C28.75 15.6675 28.7032 15.7863 28.7644 15.7863C28.8256 15.7863 28.876 15.6675 28.8004 15.6675Z" fill="#7B4E19"/>
<path opacity="0.4" d="M29.3586 14.8825C29.3586 14.9149 29.3946 14.8825 29.3946 14.8825C29.3946 14.8393 29.355 14.8573 29.3586 14.8825Z" fill="#7B4E19"/>
<path opacity="0.4" d="M29.2612 17.7302C29.2612 17.7662 29.3116 17.7302 29.3152 17.7086C29.3332 17.6402 29.2432 17.6654 29.2612 17.7302Z" fill="#7B4E19"/>
<path opacity="0.4" d="M29.6864 17.3271C29.6864 17.3271 29.6648 17.3551 29.6864 17.3551C29.708 17.3551 29.7008 17.3271 29.6864 17.3271Z" fill="#7B4E19"/>
<path opacity="0.4" d="M28.5123 18.562C28.4619 18.562 28.4151 18.6808 28.4763 18.6808C28.5375 18.6808 28.5735 18.562 28.5123 18.562Z" fill="#7B4E19"/>
<path opacity="0.4" d="M13.2157 13.1763C13.2157 13.1763 13.1869 13.1763 13.1797 13.1763C13.1797 13.2015 13.1797 13.2375 13.2013 13.2303C13.2229 13.2231 13.2337 13.2015 13.2157 13.1763Z" fill="#7B4E19"/>
<path opacity="0.4" d="M13.3743 11.8804C13.3311 11.8804 13.2915 11.9812 13.3455 11.9812C13.3995 11.9812 13.4283 11.8804 13.3743 11.8804Z" fill="#7B4E19"/>
<path opacity="0.4" d="M11.1965 14.0401C11.1965 14.0041 11.1425 14.0401 11.1353 14.0653C11.1311 14.0717 11.1289 14.0792 11.1289 14.0869C11.1289 14.0946 11.1311 14.1021 11.1353 14.1085C11.1353 14.1085 11.1641 14.1085 11.1713 14.1085C11.1791 14.1081 11.1866 14.1055 11.1928 14.1009C11.1991 14.0963 11.2039 14.0899 11.2065 14.0826C11.2092 14.0753 11.2097 14.0674 11.2079 14.0599C11.2061 14.0523 11.2022 14.0454 11.1965 14.0401Z" fill="#7B4E19"/>
<path opacity="0.4" d="M9.02567 15.563C8.98247 15.563 8.94287 15.6674 8.99687 15.6638C9.05087 15.6602 9.07607 15.563 9.02567 15.563Z" fill="#7B4E19"/>
<path opacity="0.4" d="M8.76947 15.0483C8.71187 15.0483 8.65787 15.1923 8.72987 15.1887C8.80187 15.1851 8.84147 15.0483 8.76947 15.0483Z" fill="#7B4E19"/>
<path d="M25.9199 13.68C26.0552 13.5331 26.2243 13.4216 26.4125 13.3551C26.6008 13.2886 26.8024 13.2691 26.9999 13.2984C27.7199 13.3884 28.3895 13.8492 28.3247 14.0184C28.2599 14.1876 27.6299 14.238 27.6299 14.238L25.9199 13.68Z" fill="#AA6102"/>
<path d="M26.7339 13.2916C26.5252 13.3965 26.3305 13.5271 26.1543 13.6804C26.3379 13.54 26.5143 13.4248 26.7267 13.2988C26.7483 13.3204 26.7627 13.2772 26.7339 13.2916Z" fill="#8E4F03"/>
<path d="M27.1663 13.3526C26.9052 13.4534 26.6621 13.5956 26.4463 13.7738C26.4463 13.7738 26.4463 13.8098 26.4463 13.799C26.6754 13.645 26.9162 13.509 27.1663 13.3922C27.1663 13.3922 27.1951 13.3418 27.1663 13.3526Z" fill="#8E4F03"/>
<path d="M27.6449 13.5289C27.3551 13.6143 27.084 13.7536 26.8457 13.9393C26.8457 13.9645 26.8457 13.9393 26.8457 13.9393C27.0971 13.7887 27.3608 13.6598 27.6341 13.5541C27.6341 13.5541 27.6773 13.5181 27.6449 13.5289Z" fill="#8E4F03"/>
<path d="M28.0332 13.7522C27.8928 13.7954 27.756 13.8458 27.6192 13.8998C27.4824 13.9538 27.3888 14.0258 27.2592 14.0726C27.2592 14.0726 27.234 14.1014 27.2592 14.1014C27.3646 14.0696 27.466 14.0262 27.5616 13.9718C27.7128 13.907 27.8676 13.8566 28.0188 13.7882C28.0368 13.7846 28.08 13.7414 28.0332 13.7522Z" fill="#8E4F03"/>
<path d="M30.4746 16.7835C30.8762 16.8615 31.2701 16.9748 31.6518 17.1219C32.8722 17.6475 33.4518 17.6943 33.6066 17.6187C33.8381 17.4379 34.0018 17.1841 34.071 16.8987C34.071 16.8051 33.8478 16.6935 33.7362 16.6359C32.7478 16.2803 31.705 16.1 30.6546 16.1031C30.6244 16.3367 30.5639 16.5655 30.4746 16.7835Z" fill="#AA6102"/>
<path d="M34.0991 16.5816C34.1927 16.5564 34.3619 15.0552 34.3619 14.9256C34.3619 14.8644 34.2071 14.8464 34.0451 14.8428C32.7203 14.9688 31.0931 15.3 30.6143 15.4008C30.6776 15.6354 30.6911 15.8806 30.6539 16.1208C31.7042 16.1177 32.7471 16.298 33.7355 16.6536L33.6599 16.6212C33.6599 16.6212 34.0019 16.6032 34.0991 16.5816Z" fill="#864000"/>
<path d="M33.2174 13.2948C33.2174 13.2948 33.9734 13.1148 33.9374 12.9348C33.8401 12.6444 33.6353 12.4022 33.365 12.258C33.1418 12.204 32.1122 12.6828 31.1042 13.428C30.5749 13.8282 30.0219 14.1961 29.4482 14.5296C29.7036 14.5632 29.9489 14.6503 30.1682 14.7852C31.138 14.1351 32.1965 13.6283 33.311 13.2804L33.2174 13.2948Z" fill="#AA6102"/>
<path d="M34.3764 14.652C34.5204 14.0724 34.2468 13.2768 34.0884 13.2336C33.8246 13.2239 33.5605 13.2408 33.3 13.284C32.1855 13.6319 31.127 14.1387 30.1572 14.7888C30.3272 14.9011 30.463 15.0581 30.5496 15.2424C31.7811 14.8242 33.0762 14.6244 34.3764 14.652Z" fill="#864000"/>
<path d="M33.7001 14.8573C33.9372 14.8352 34.1674 14.7654 34.3769 14.6521C33.0781 14.6237 31.7842 14.8222 30.5537 15.2389C30.5772 15.2917 30.5977 15.3457 30.6149 15.4009C31.0937 15.3001 32.7209 14.9689 34.0457 14.8429C33.9303 14.8415 33.815 14.8463 33.7001 14.8573Z" fill="#AA6102"/>
<g style="mix-blend-mode:screen">
<path d="M33.189 12.3049C32.756 12.4852 32.3403 12.7045 31.947 12.9601C31.4756 13.2884 31.0335 13.657 30.6258 14.0617C30.6042 14.0869 30.6258 14.1265 30.6258 14.0977C31.0542 13.7377 31.4862 13.4029 31.9398 13.0861C32.1443 12.9412 32.3598 12.8125 32.5842 12.7009C32.7826 12.6252 32.9761 12.5375 33.1638 12.4381C33.2142 12.4165 33.2862 12.2617 33.189 12.3049Z" fill="#AA6102"/>
</g>
<g style="mix-blend-mode:multiply" opacity="0.5">
<path d="M31.8383 16.7224C31.7013 16.6474 31.5816 16.5446 31.4867 16.4207C31.3919 16.2967 31.324 16.1542 31.2875 16.0024C31.2518 15.711 31.1867 15.4239 31.0931 15.1456C30.9789 14.9112 30.8082 14.7089 30.5965 14.5569C30.3847 14.4048 30.1385 14.3077 29.8799 14.2744C29.6099 14.4472 29.4551 14.53 29.4551 14.53C29.7104 14.5636 29.9558 14.6507 30.1751 14.7856C30.3451 14.8979 30.4808 15.0548 30.5675 15.2392C30.591 15.292 30.6114 15.3461 30.6287 15.4012C30.692 15.6358 30.7055 15.8811 30.6683 16.1212C30.6369 16.35 30.5764 16.5738 30.4883 16.7872C30.8898 16.8653 31.2838 16.9785 31.6655 17.1256C32.8859 17.6512 33.4655 17.698 33.6203 17.6224C33.7367 17.5444 33.8339 17.441 33.9047 17.32C33.1765 17.2982 32.4657 17.0927 31.8383 16.7224Z" fill="#AA6102"/>
</g>
<path d="M12.3301 20.1602C12.3301 20.1602 14.5657 21.4562 15.9301 21.3158C17.0101 21.1358 16.7185 20.423 16.3945 20.2106C16.0705 19.9982 12.3301 20.1602 12.3301 20.1602Z" fill="#864000"/>
<g style="mix-blend-mode:multiply" opacity="0.5">
<path d="M15.6752 21.1824C15.3152 21.0024 14.912 20.844 14.5376 20.6641C14.1632 20.4841 13.6808 20.4048 13.3208 20.2104C13.3208 20.2104 13.2956 20.2104 13.3208 20.232C13.6649 20.4176 14.0267 20.5684 14.4008 20.682C14.804 20.8936 15.22 21.0799 15.6464 21.24C15.6464 21.24 15.6932 21.1932 15.6752 21.1824Z" fill="#864000"/>
<path d="M15.9778 21.1067C15.3802 20.8115 14.7682 20.5415 14.1778 20.2319C14.1778 20.2319 14.149 20.2319 14.1778 20.2535C14.7491 20.6078 15.3516 20.9091 15.9778 21.1535C15.9778 21.1535 15.9994 21.1175 15.9778 21.1067Z" fill="#864000"/>
<path d="M16.4346 20.8586C16.2263 20.7436 16.0083 20.6472 15.783 20.5706C15.5308 20.4377 15.2637 20.335 14.9874 20.2646C14.9874 20.2646 14.9586 20.2898 14.9874 20.2934C15.2249 20.3786 15.457 20.4784 15.6822 20.5922C15.9234 20.693 16.1718 20.7938 16.4022 20.9018C16.4166 20.909 16.449 20.8802 16.4346 20.8586Z" fill="#864000"/>
<path d="M16.5171 20.5633C16.3191 20.4589 16.0995 20.3977 15.9015 20.2969C15.8835 20.2969 15.8547 20.3221 15.8691 20.3329C15.9591 20.3869 16.0527 20.4193 16.1427 20.4625C16.2327 20.5057 16.3659 20.5705 16.4811 20.6137C16.5027 20.6173 16.5351 20.5741 16.5171 20.5633Z" fill="#864000"/>
</g>
<path d="M10.8467 12.3375C11.1284 12.1564 11.3924 11.9491 11.6351 11.7183C11.9375 11.4123 12.0419 11.2539 13.1759 10.9731C14.7641 10.6613 16.3895 10.5849 17.9999 10.7463C19.5731 10.9191 22.0895 11.6607 24.6059 13.0935C22.8959 12.6831 16.9559 10.9659 10.8467 12.3375Z" fill="#AA6102"/>
<g style="mix-blend-mode:multiply" opacity="0.5">
<path d="M23.465 12.485C23.1813 12.5085 22.8957 12.4866 22.619 12.4202C22.367 12.3554 22.1402 12.2258 21.899 12.1718C21.6578 12.1178 21.341 12.0422 21.0566 11.9882C20.4734 11.8766 19.8794 11.8478 19.2926 11.783C18.7058 11.7182 18.1802 11.5886 17.6222 11.5202C16.4533 11.4072 15.2747 11.4459 14.1158 11.6354C13.1216 11.7368 12.1345 11.8991 11.1602 12.1214C10.9874 12.2474 10.8506 12.3374 10.8506 12.3374C16.9706 10.9658 22.8998 12.6974 24.6206 13.0934C24.2318 12.8738 23.8466 12.6722 23.465 12.485Z" fill="#AA6102"/>
</g>
<path d="M25.0312 18.8284C25.0312 18.8284 26.5792 19.498 27.382 19.1884C28.1848 18.8788 28.3973 18.4216 27.9005 18.1732C27.6627 18.0625 27.4371 17.9274 27.2272 17.77L25.0312 18.8284Z" fill="#864000"/>
<path d="M9.36002 16.8409C9.45722 14.9437 8.11082 13.8565 7.45562 13.7773C4.70522 14.1625 2.55602 17.0173 2.55602 17.0173C2.55602 17.0173 2.21762 16.9813 2.32922 17.1937C2.44327 17.3422 2.60246 17.4496 2.78282 17.4997C2.67482 17.7481 2.88002 18.0001 3.26522 18.0253C3.71882 18.7849 4.74122 19.1953 6.96962 19.5265C8.24762 19.3753 9.27722 18.5329 9.36002 16.8409Z" fill="#C6862C"/>
<path d="M30.7765 15.0302C30.3373 14.3534 29.8477 14.3642 29.2789 14.4794C28.7101 14.5946 28.7785 14.5046 26.2873 13.7594C23.4073 12.6254 22.2193 12.0314 17.4205 11.6462C13.9634 11.3637 10.4994 12.1035 7.45933 13.7738C8.11453 13.853 9.46093 14.9402 9.36373 16.8374C9.27733 18.5294 8.24773 19.3574 6.96973 19.523C7.51693 19.6022 8.13613 19.6778 8.83813 19.7534C18.9181 21.1538 22.9429 19.6454 24.6781 19.0982C26.4133 18.551 28.1773 17.5718 29.0881 17.1722C29.9989 16.7726 30.0133 16.7258 30.3733 16.7798C30.8953 16.877 31.2193 15.7106 30.7765 15.0302Z" fill="#C17500"/>
<path d="M10.2422 18.4C10.899 16.9134 11.8199 15.5583 12.9602 14.4004C14.1122 13.2412 14.4614 12.9424 14.4614 12.9424C14.1934 13.8234 13.7308 14.633 13.1078 15.3112C12.0062 16.5604 11.135 17.6908 10.2422 18.4Z" fill="#E6B75F"/>
<path d="M13.374 18.3604C13.374 18.3604 15.3144 14.4688 17.838 13C16.2504 15.1564 14.1876 17.7052 13.374 18.3604Z" fill="#E6B75F"/>
<path d="M16.5098 18.1552C16.5098 18.1552 18.5402 14.5552 20.5238 13.1152C19.2818 15.1852 18.0002 16.996 16.5098 18.1552Z" fill="#E6B75F"/>
<path d="M19.8975 18C19.8975 18 21.5391 14.976 23.5947 13.9932C22.6407 15.5484 20.9235 17.5464 19.8975 18Z" fill="#E6B75F"/>
<path d="M23.7031 17.2802C23.7031 17.2802 25.1431 15.3686 26.1043 14.8682C25.3771 16.0166 24.7291 16.7582 23.7031 17.2802Z" fill="#E6B75F"/>
<g style="mix-blend-mode:multiply">
<path d="M12.449 15.4802C12.017 16.013 11.6246 16.5782 11.1782 17.0966C10.9602 17.3429 10.7547 17.6 10.5626 17.867C10.505 17.9498 10.4294 18.0434 10.3574 18.1406C10.2818 18.3026 10.2422 18.3962 10.2422 18.3962C11.135 17.6762 12.0062 16.5458 13.0898 15.3182C13.6309 14.7129 14.0567 14.0138 14.3462 13.2554C13.7126 14.0006 13.0646 14.7278 12.449 15.4802Z" fill="#BA842D"/>
<path d="M17.2152 13.7164C16.7688 14.2168 16.2432 14.638 15.8328 15.1564C15.4224 15.6748 14.9976 16.3264 14.544 16.888C14.3244 17.1616 14.1084 17.4424 13.8708 17.698C13.7736 17.8024 13.6548 17.9068 13.5504 18.0184C13.4352 18.2308 13.374 18.3568 13.374 18.3568C14.1516 17.7232 16.074 15.3616 17.6292 13.2808C17.4852 13.4284 17.3484 13.5688 17.2152 13.7164Z" fill="#BA842D"/>
<path d="M18.9292 15.1202C18.4936 15.6134 18.0976 16.1426 17.6836 16.6538C17.2696 17.165 16.8988 17.6402 16.5244 18.1334V18.155C17.842 17.1362 18.9904 15.6062 20.0956 13.835C19.7464 14.3174 19.3036 14.6954 18.9292 15.1202Z" fill="#BA842D"/>
<path d="M22.0176 15.6135C21.6408 16.0455 21.27 16.4847 20.9052 16.9311C20.718 17.1651 20.5452 17.4063 20.3292 17.6223C20.2212 17.7339 20.1132 17.8419 20.0088 17.9571C21.0384 17.4063 22.6656 15.5055 23.5836 13.9971C23.0297 14.504 22.5068 15.0438 22.0176 15.6135Z" fill="#BA842D"/>
<path d="M25.3482 15.6529C25.0494 15.9661 24.7614 16.2901 24.4446 16.5853C24.2034 16.8049 23.9586 17.0209 23.7246 17.2585C24.7002 16.7581 25.3374 16.0453 26.0286 14.9653C25.8054 15.1885 25.5606 15.4189 25.3482 15.6529Z" fill="#BA842D"/>
</g>
<g style="mix-blend-mode:multiply" opacity="0.5">
<path d="M30.7765 15.0303C30.3373 14.3535 29.8477 14.3643 29.2789 14.4795C29.3594 14.6477 29.3785 14.8387 29.3329 15.0195C29.1601 15.6315 28.3933 15.9087 27.8569 16.0995C26.6005 16.5243 25.4485 17.0535 24.1561 17.3343C22.7353 17.6849 21.2918 17.9363 19.8361 18.0867C18.3961 18.1839 16.9957 18.1227 15.5629 18.0867C14.2509 18.0504 12.9495 17.8397 11.6929 17.4603C11.1772 17.3027 10.7134 17.0092 10.3501 16.6107C10.0823 16.2796 9.85621 15.9169 9.67693 15.5307C9.26293 14.7675 8.59693 13.9071 7.72213 13.6299L7.45933 13.7739C8.11453 13.8531 9.46093 14.9403 9.36373 16.8375C9.27733 18.5295 8.24773 19.3575 6.96973 19.5231C7.51693 19.6023 8.13613 19.6779 8.83813 19.7535C18.9181 21.1539 22.9429 19.6455 24.6781 19.0983C26.4133 18.5511 28.1773 17.5719 29.0881 17.1723C29.9989 16.7727 30.0133 16.7259 30.3733 16.7799C30.8953 16.8771 31.2193 15.7107 30.7765 15.0303Z" fill="#C17500"/>
</g>
<g style="mix-blend-mode:multiply" opacity="0.5">
<path d="M8.38453 19.3608C8.70898 19.1859 8.9896 18.9397 9.20533 18.6408C9.43514 18.2679 9.55263 17.8367 9.54373 17.3988C9.58727 16.5216 9.42965 15.6461 9.08293 14.8392C8.91068 14.4353 8.60419 14.1034 8.21533 13.8996C8.02453 13.8204 7.82293 13.7628 7.63573 13.6836L7.45933 13.7808C8.11453 13.86 9.46093 14.9472 9.36373 16.8444C9.27733 18.5364 8.24773 19.3644 6.96973 19.53L7.85173 19.6488C8.03173 19.5588 8.21173 19.4652 8.38453 19.3608Z" fill="#C17500"/>
</g>
<path d="M12.8455 11.0991C12.4873 11.3684 12.1728 11.6914 11.9131 12.0567C12.1856 11.711 12.4973 11.3981 12.8419 11.1243C12.8779 11.1135 12.8743 11.0775 12.8455 11.0991Z" fill="#8E4F03"/>
<path d="M13.6588 10.8974C13.2165 11.1617 12.8261 11.5045 12.5068 11.909C12.5068 11.909 12.5068 11.9378 12.5068 11.909C12.8636 11.5434 13.2568 11.2153 13.6804 10.9298C13.6804 10.9298 13.6804 10.8794 13.6588 10.8974Z" fill="#8E4F03"/>
<path d="M14.4546 10.8003C13.9457 11.0606 13.4854 11.4064 13.0938 11.8227C13.0938 11.8227 13.0938 11.8515 13.0938 11.8227C13.5082 11.4394 13.9633 11.1026 14.451 10.8183C14.451 10.8183 14.4834 10.8003 14.4546 10.8003Z" fill="#8E4F03"/>
<path d="M15.261 10.7679C14.808 11.0268 14.3822 11.3307 13.9902 11.6751C13.9902 11.6751 13.9902 11.7255 13.9902 11.7039C14.3929 11.3743 14.8175 11.0724 15.261 10.8003C15.261 10.8003 15.2826 10.7535 15.261 10.7679Z" fill="#8E4F03"/>
<path d="M15.8759 10.7353C15.4522 10.9566 15.0679 11.2461 14.7383 11.5921C14.7383 11.5921 14.7383 11.6137 14.7383 11.5921C15.0879 11.2813 15.465 11.003 15.8651 10.7605C15.8651 10.7605 15.9047 10.7173 15.8759 10.7353Z" fill="#8E4F03"/>
<path d="M16.4989 10.7426C16.0937 10.9788 15.7159 11.2589 15.3721 11.5778C15.3721 11.5778 15.3721 11.6066 15.3721 11.5958C15.5485 11.477 15.7033 11.315 15.8797 11.1926C16.0561 11.0702 16.2973 10.9262 16.4989 10.7858C16.5205 10.7714 16.5349 10.721 16.4989 10.7426Z" fill="#8E4F03"/>
<path d="M17.1255 10.7175C16.7083 10.9351 16.327 11.2156 15.9951 11.5491C15.9951 11.5671 15.9951 11.5995 15.9951 11.5779C16.3526 11.2825 16.7264 11.0072 17.1147 10.7535C17.1147 10.7535 17.1543 10.6995 17.1255 10.7175Z" fill="#8E4F03"/>
<path d="M17.6762 10.8003C17.2783 10.9771 16.9206 11.2331 16.625 11.5527C16.7879 11.4109 16.9599 11.2798 17.1398 11.1603C17.309 11.0415 17.4998 10.9587 17.6726 10.8471C17.687 10.8507 17.7122 10.8003 17.6762 10.8003Z" fill="#8E4F03"/>
<path d="M18.2923 10.8254C17.8864 11.0092 17.515 11.2612 17.1943 11.5706C17.1943 11.5958 17.1943 11.5706 17.1943 11.5706C17.5338 11.3012 17.895 11.0603 18.2743 10.8506C18.2743 10.8506 18.3211 10.8002 18.2923 10.8254Z" fill="#8E4F03"/>
<path d="M19.0547 10.8901C18.6284 11.1104 18.2181 11.3606 17.8271 11.6389C17.8271 11.6389 17.8271 11.6641 17.8271 11.6569C18.0138 11.5473 18.1941 11.4271 18.3671 11.2969C18.5903 11.1601 18.8243 11.0377 19.0511 10.9081C19.0799 10.9189 19.0799 10.8829 19.0547 10.8901Z" fill="#8E4F03"/>
<path d="M19.5735 11.1207C19.3945 11.2117 19.2235 11.3176 19.0623 11.4375C18.9399 11.5275 18.8319 11.6571 18.7023 11.7363C18.7023 11.7363 18.6843 11.7615 18.7023 11.7579C18.8321 11.6803 18.9528 11.5885 19.0623 11.4843C19.2279 11.3691 19.4007 11.2647 19.5735 11.1603C19.5951 11.1603 19.6095 11.1027 19.5735 11.1207Z" fill="#8E4F03"/>
<path d="M20.3471 11.3188C20.1082 11.4675 19.8797 11.6323 19.6631 11.812C19.6631 11.812 19.6631 11.8624 19.6631 11.8444C19.8935 11.6896 20.1095 11.5168 20.3399 11.362C20.3651 11.3476 20.3795 11.2972 20.3471 11.3188Z" fill="#8E4F03"/>
<path d="M21.0101 11.4878C20.7923 11.6148 20.5895 11.7657 20.4053 11.9378C20.4053 11.9558 20.4053 11.9846 20.4053 11.9666C20.5961 11.8082 20.8013 11.6714 20.9993 11.5238C21.0281 11.5202 21.0425 11.4698 21.0101 11.4878Z" fill="#8E4F03"/>
<path d="M21.633 11.7038C21.4512 11.8086 21.2789 11.9291 21.1182 12.0638C21.1182 12.0638 21.1182 12.1034 21.1182 12.089C21.2874 11.9702 21.4602 11.8622 21.633 11.729C21.651 11.729 21.6618 11.6894 21.633 11.7038Z" fill="#8E4F03"/>
<path d="M21.9599 11.8804L21.7835 12.0064C21.7223 12.0532 21.6683 12.1108 21.6035 12.154C21.6035 12.154 21.6035 12.1792 21.6035 12.172C21.667 12.1321 21.7283 12.0888 21.7871 12.0424L21.9671 11.9128C21.9671 11.9128 21.9779 11.8804 21.9599 11.8804Z" fill="#8E4F03"/>
<g style="mix-blend-mode:multiply" opacity="0.5">
<path d="M26.9391 19.1594C26.5359 18.9905 26.1237 18.8439 25.7043 18.7202C25.7043 18.7202 25.6719 18.7454 25.6863 18.7526C26.0895 18.9182 26.5071 19.0478 26.9139 19.1918C26.9319 19.2026 26.9571 19.1666 26.9391 19.1594Z" fill="#864000"/>
<path d="M27.3175 19.0588C26.9143 18.8608 26.4607 18.7672 26.0431 18.6016C26.0431 18.6016 26.0143 18.6016 26.0431 18.6268C26.4558 18.8069 26.8775 18.9656 27.3067 19.102C27.3067 19.102 27.3355 19.0804 27.3175 19.0588Z" fill="#864000"/>
<path d="M27.8138 18.76C27.6086 18.688 27.4034 18.634 27.1946 18.5764C26.9858 18.5188 26.8022 18.436 26.6006 18.3892C26.7698 18.4396 26.9246 18.5224 27.0902 18.5764C27.3278 18.6556 27.5654 18.7132 27.8102 18.7816C27.8066 18.7996 27.8318 18.7672 27.8138 18.76Z" fill="#864000"/>
<path d="M28.1018 18.4898C27.7634 18.3602 27.407 18.263 27.0614 18.1514C27.3898 18.307 27.7337 18.4276 28.0874 18.5114C28.0802 18.5366 28.1234 18.497 28.1018 18.4898Z" fill="#864000"/>
</g>
<path d="M6.48006 15.9518C6.46794 16.1836 6.36459 16.4011 6.19259 16.557C6.02058 16.7128 5.7939 16.7942 5.56206 16.7834C5.44612 16.7967 5.32867 16.7854 5.21743 16.7501C5.10618 16.7148 5.00365 16.6564 4.91655 16.5788C4.82946 16.5011 4.75976 16.4059 4.71204 16.2994C4.66432 16.1929 4.63965 16.0775 4.63965 15.9608C4.63965 15.8441 4.66432 15.7287 4.71204 15.6222C4.75976 15.5157 4.82946 15.4205 4.91655 15.3429C5.00365 15.2652 5.10618 15.2068 5.21743 15.1715C5.32867 15.1363 5.44612 15.1249 5.56206 15.1382C5.79097 15.1273 6.01509 15.2062 6.1866 15.3582C6.3581 15.5102 6.46341 15.7232 6.48006 15.9518Z" fill="#8E4F03"/>
<path d="M6.11985 15.9556C6.12127 16.0719 6.08808 16.1861 6.02447 16.2835C5.96087 16.381 5.86973 16.4573 5.76264 16.5028C5.65555 16.5483 5.53734 16.561 5.42304 16.5392C5.30875 16.5174 5.20352 16.462 5.12073 16.3803C5.03794 16.2985 4.98133 16.194 4.9581 16.0799C4.93487 15.9659 4.94606 15.8476 4.99026 15.7399C5.03445 15.6323 5.10965 15.5402 5.2063 15.4754C5.30295 15.4106 5.41668 15.376 5.53305 15.376C5.60963 15.3755 5.68556 15.3901 5.7565 15.419C5.82744 15.4479 5.892 15.4904 5.94649 15.5443C6.00098 15.5981 6.04433 15.6621 6.07408 15.7327C6.10382 15.8033 6.11937 15.879 6.11985 15.9556Z" fill="#E6B75F"/>
<path d="M5.81426 16.1283C5.74099 16.0667 5.66272 16.0113 5.58026 15.9627C5.61692 15.9158 5.6566 15.8713 5.69906 15.8295C5.71706 15.8295 5.72426 15.7611 5.69906 15.7863C5.64254 15.8302 5.59175 15.881 5.54786 15.9375H5.52986C5.45111 15.8766 5.36211 15.8303 5.26706 15.8007C5.26706 15.8007 5.24186 15.8223 5.26706 15.8259C5.30589 15.8486 5.34318 15.8739 5.37866 15.9015L5.50826 15.9807L5.44706 16.0563C5.42354 16.091 5.39704 16.1235 5.36786 16.1535C5.36786 16.1535 5.34986 16.1859 5.36786 16.1787C5.38586 16.1715 5.45426 16.0959 5.49746 16.0527C5.51488 16.0377 5.53058 16.0208 5.54426 16.0023C5.62706 16.0563 5.70266 16.1103 5.78546 16.1607C5.79626 16.1715 5.82506 16.1427 5.81426 16.1283Z" fill="#8E4F03"/>
<path d="M5.569 14.8141C5.48064 14.8101 5.3925 14.8258 5.31095 14.8601C5.22939 14.8943 5.15646 14.9462 5.0974 15.0121C5.09384 15.0226 5.09384 15.034 5.0974 15.0445C5.0974 15.0445 5.0974 15.0445 5.119 15.0445C5.18553 15.029 5.25282 15.017 5.3206 15.0085C5.4243 15.0031 5.52826 15.0104 5.6302 15.0301C5.7094 15.0301 5.839 15.1381 5.9182 15.1093C5.9182 15.1093 5.9542 15.0805 5.9506 15.0625C5.9182 14.8969 5.7166 14.8321 5.569 14.8141Z" fill="#8E4F03"/>
<path d="M6.70305 16.4019C6.46909 16.424 6.24352 16.5005 6.04425 16.6251C5.85949 16.7297 5.71218 16.8896 5.62305 17.0823C5.62305 17.1039 5.64105 17.0823 5.64825 17.0823C5.7733 16.895 5.94273 16.7417 6.14145 16.6359C6.31724 16.5659 6.49767 16.5081 6.68145 16.4631C6.70305 16.4631 6.74625 16.4019 6.70305 16.4019Z" fill="#8E4F03"/>
<path d="M6.23174 17.8491C6.20654 17.8023 6.14534 17.7699 6.10574 17.7339C6.06203 17.6938 6.02973 17.6429 6.01214 17.5863C6.01214 17.5647 5.97254 17.5863 5.97254 17.6115C5.96505 17.6653 5.97651 17.72 6.00494 17.7663C5.77413 17.8231 5.5319 17.8131 5.30654 17.7375C5.06174 17.6763 4.78814 17.6907 4.53614 17.6475C3.96374 17.5503 3.36614 17.5539 2.79014 17.4639C2.79014 17.4639 2.76134 17.4855 2.79014 17.4927C3.07524 17.5692 3.36694 17.6187 3.66134 17.6403C3.98894 17.6943 4.32014 17.6907 4.64774 17.7519C4.97534 17.8131 5.22734 17.8203 5.51534 17.8779C5.69865 17.9308 5.89546 17.9088 6.06254 17.8167C6.07741 17.8422 6.09768 17.8641 6.12194 17.8809C6.1462 17.8977 6.17385 17.9089 6.20294 17.9139C6.20654 17.9139 6.24614 17.8707 6.23174 17.8491Z" fill="#8E4F03"/>
<g style="mix-blend-mode:multiply">
<path d="M11.8546 14.2239L11.7106 14.0115L11.8042 13.9287C11.8042 13.9287 11.8042 13.8891 11.8042 13.9071C11.8042 13.9251 11.7394 13.9611 11.7034 13.9899C11.6458 13.8999 11.5918 13.8099 11.5378 13.7199L11.7142 13.5759C11.7142 13.5759 11.7358 13.5219 11.7142 13.5399L11.5198 13.6803C11.4478 13.5579 11.3794 13.4319 11.311 13.3203C11.3506 13.2879 11.3938 13.2591 11.437 13.2303C11.4802 13.2015 11.473 13.1547 11.437 13.1799L11.2894 13.2771L11.1022 12.9171C11.1022 12.9171 11.0698 12.9171 11.0734 12.9387L11.257 13.2987L10.7998 13.5831C10.699 13.4319 10.5982 13.2735 10.501 13.1187C10.6486 13.0215 10.7962 12.9243 10.951 12.8307C10.951 12.8307 10.9798 12.7767 10.951 12.7947C10.7926 12.8847 10.6342 12.9819 10.483 13.0827L10.429 12.9927C10.429 12.9927 10.4038 12.9927 10.4074 13.0143L10.4542 13.1043C10.3102 13.1979 10.177 13.2987 10.0438 13.4031L9.95382 13.2159C9.95382 13.2159 9.92502 13.2159 9.92862 13.2375C9.93222 13.2591 9.98262 13.3635 10.015 13.4283C9.87822 13.5363 9.75222 13.6479 9.62622 13.7667L9.49302 13.4427C9.52141 13.5596 9.56245 13.6731 9.61542 13.7811C9.47862 13.9179 9.34542 14.0655 9.21582 14.2203C9.34165 14.0742 9.47504 13.9348 9.61542 13.8027L9.70902 14.0043C9.75222 14.1195 9.79902 14.2311 9.85302 14.3427C9.74309 14.4567 9.63972 14.5769 9.54342 14.7027C9.64113 14.5827 9.7457 14.4685 9.85662 14.3607C9.91782 14.4939 9.98262 14.6199 10.0546 14.7459C10.0546 14.7459 10.0798 14.7459 10.0546 14.7279C9.99702 14.5947 9.93222 14.4615 9.87102 14.3283C9.99342 14.2131 10.123 14.1015 10.2598 13.9935C10.3462 14.1699 10.4398 14.3535 10.5406 14.5083C10.4758 14.5803 10.4146 14.6523 10.3534 14.7279C10.3534 14.7459 10.3534 14.7639 10.3714 14.7279C10.3894 14.6919 10.4938 14.5875 10.5586 14.5227L10.6162 14.6163C10.6162 14.6163 10.663 14.5983 10.6522 14.5803L10.5982 14.4831C10.7375 14.3377 10.8841 14.1995 11.0374 14.0691L11.2318 14.3427C11.2318 14.3607 11.1958 14.3823 11.1742 14.4003C11.1526 14.4183 11.1742 14.4327 11.1742 14.4003L11.239 14.3427C11.2606 14.3787 11.2858 14.4111 11.311 14.4471C11.3362 14.4831 11.3434 14.4471 11.3362 14.4219L11.275 14.3103L11.6746 14.0403C11.725 14.1087 11.779 14.1771 11.833 14.2419C11.887 14.3067 11.8798 14.2311 11.8546 14.2239ZM9.87102 14.3319C9.78822 14.1555 9.70542 13.9719 9.62622 13.7991C9.75222 13.6839 9.88182 13.5723 10.015 13.4679C10.0918 13.6407 10.171 13.8135 10.2526 13.9863C10.1194 14.0979 9.98982 14.2131 9.87102 14.3319ZM10.0474 13.4427C10.1806 13.3383 10.3138 13.2375 10.4578 13.1403C10.5386 13.3084 10.6287 13.4719 10.7278 13.6299C10.5802 13.7307 10.4398 13.8351 10.2994 13.9467C10.213 13.7811 10.1302 13.6119 10.0474 13.4427ZM10.5946 14.5011C10.501 14.3331 10.411 14.1639 10.3246 13.9935C10.465 13.8819 10.609 13.7811 10.7566 13.6767C10.8394 13.8135 10.9294 13.9467 11.023 14.0799C10.8732 14.2129 10.7302 14.3535 10.5946 14.5011ZM10.8214 13.6335L11.2606 13.3203C11.3254 13.4463 11.3938 13.5759 11.4658 13.7019C11.3326 13.8027 11.203 13.9071 11.0806 14.0187L10.8214 13.6335ZM11.2822 14.3535C11.2282 14.2563 11.167 14.1591 11.1058 14.0655L11.4874 13.7451C11.5414 13.8351 11.599 13.9251 11.6566 14.0115C11.5198 14.1267 11.4046 14.2419 11.2822 14.3607V14.3535Z" fill="#C17500"/>
<path d="M17.3154 12.4996C17.108 12.6842 16.9109 12.8801 16.725 13.0864L16.329 12.8416C16.4802 12.7084 16.6314 12.5716 16.7718 12.4276C16.7934 12.406 16.7718 12.3736 16.7502 12.3988L16.2678 12.7984C16.1202 12.7048 15.9834 12.5932 15.843 12.4888C15.9186 12.4168 15.9906 12.3412 16.0626 12.2656C16.1346 12.19 16.0626 12.2044 16.0374 12.2332L15.7962 12.4528C15.7222 12.3971 15.6453 12.3454 15.5658 12.298C15.5658 12.298 15.5334 12.3196 15.5442 12.3268C15.6198 12.3772 15.6918 12.4312 15.7638 12.4852L15.3678 12.8452L15.2166 12.748L15.357 12.8524C15.2382 12.964 15.1266 13.072 14.997 13.1872L14.9142 13.1116C14.9142 13.1116 14.871 13.1332 14.8854 13.1476L14.9646 13.2196C14.8746 13.3096 14.7882 13.4032 14.709 13.4968L14.9862 13.2376C15.105 13.3456 15.2346 13.4464 15.3462 13.5472C15.2418 13.6408 15.1446 13.7344 15.0474 13.828L15.3678 13.558C15.519 13.6768 15.663 13.8064 15.8178 13.918L15.6774 14.0224C15.6774 14.0224 15.6594 14.0548 15.6774 14.044C15.733 14.011 15.786 13.9737 15.8358 13.9324L15.8754 13.9612C15.8754 13.9612 15.933 13.9288 15.915 13.9144L15.8826 13.8928C16.0122 13.7812 16.131 13.6588 16.2426 13.5328C16.3015 13.5766 16.3641 13.6152 16.4298 13.648C16.4298 13.648 16.4802 13.612 16.4622 13.6012C16.4024 13.5662 16.3447 13.5277 16.2894 13.486L16.3902 13.396C16.491 13.306 16.5882 13.2088 16.6818 13.1116C16.779 13.1728 16.8762 13.234 16.9698 13.2988C16.9914 13.2988 17.0274 13.27 17.0094 13.2556C16.9194 13.1872 16.8258 13.1224 16.7322 13.0612C16.9158 12.8632 17.0922 12.6616 17.2938 12.478C17.3478 12.514 17.3442 12.4744 17.3154 12.4996ZM15.4182 12.8596C15.5514 12.748 15.681 12.6328 15.807 12.4996C15.9366 12.604 16.0626 12.712 16.1958 12.8128L15.8358 13.1296C15.6954 13.0324 15.5478 12.9424 15.4038 12.8488L15.4182 12.8596ZM15.0222 13.2196C15.1374 13.108 15.2562 12.9964 15.3822 12.892L15.7962 13.1836C15.663 13.2952 15.5334 13.414 15.4074 13.5436C15.2742 13.4428 15.1446 13.342 15.0222 13.234V13.2196ZM15.8934 13.9108C15.7422 13.792 15.591 13.6732 15.4362 13.5508L15.8394 13.2376C15.9834 13.342 16.113 13.468 16.2534 13.576C16.1454 13.6984 16.023 13.8136 15.8934 13.9252V13.9108ZM16.311 13.5148C16.1706 13.4104 16.0374 13.288 15.897 13.1872L16.275 12.8704C16.4046 12.9604 16.5414 13.0432 16.6746 13.126C16.5594 13.27 16.4334 13.4032 16.311 13.5292V13.5148Z" fill="#C17500"/>
<path d="M19.3782 12.7947C19.2234 12.9027 19.0722 13.0215 18.9282 13.1547L18.7374 13.3347C18.731 13.3459 18.7224 13.3557 18.7122 13.3635L18.4818 13.0755L18.6654 12.9243C18.7293 13.0184 18.8003 13.1075 18.8778 13.1907C18.8778 13.1907 18.9102 13.1907 18.903 13.1619C18.8418 13.0683 18.777 12.9783 18.7122 12.8847C18.7986 12.8127 18.885 12.7443 18.9678 12.6687C18.9858 12.6687 18.9678 12.6147 18.9678 12.6399L18.705 12.8595C18.6258 12.7479 18.5466 12.6399 18.471 12.5283C18.471 12.5283 18.4494 12.5283 18.453 12.5283C18.5144 12.6522 18.5829 12.7724 18.6582 12.8883C18.6006 12.9423 18.5358 12.9927 18.4782 13.0431C18.399 12.9495 18.3234 12.8523 18.2442 12.7551C18.2442 12.7551 18.2226 12.7551 18.2442 12.7767L18.4638 13.0683C18.3126 13.2015 18.1938 13.3635 18.0498 13.5039C18.201 13.3743 18.3306 13.2195 18.4782 13.0863L18.7158 13.3779C18.6658 13.4588 18.6025 13.5306 18.5286 13.5903C18.5286 13.5903 18.5286 13.6155 18.5286 13.6119C18.5553 13.5994 18.5787 13.581 18.597 13.5579L18.7374 13.4031L18.813 13.4931C18.813 13.4931 18.8382 13.4931 18.831 13.4715L18.759 13.3779C18.7986 13.3419 18.8346 13.3023 18.8778 13.2663C19.047 13.1079 19.2378 12.9819 19.4106 12.8199C19.3962 12.8127 19.4034 12.7767 19.3782 12.7947Z" fill="#C17500"/>
<path d="M22.8277 13.7776C22.7017 13.864 22.5757 13.9612 22.4677 14.062L22.0681 13.7236L22.2121 13.6084C22.2337 13.6084 22.2373 13.5436 22.2121 13.5652C22.1524 13.6042 22.0947 13.6463 22.0393 13.6912L21.7189 13.4176L21.8161 13.3204C21.8161 13.3204 21.8377 13.27 21.8161 13.288C21.7945 13.306 21.7153 13.36 21.6685 13.396C21.5389 13.2916 21.4057 13.1908 21.2689 13.0972C21.3949 13.198 21.5137 13.306 21.6289 13.414C21.4744 13.5444 21.3266 13.6826 21.1861 13.828C21.0637 13.7236 20.9377 13.6192 20.8261 13.5076C20.8261 13.5076 20.8009 13.5076 20.8261 13.5292C20.9341 13.6444 21.0529 13.756 21.1861 13.864L21.0421 14.008C20.9197 14.1304 20.7901 14.2492 20.6641 14.368C20.5592 14.2751 20.4594 14.1765 20.3653 14.0728C20.449 14.1834 20.5417 14.287 20.6425 14.3824L20.5777 14.44C20.4613 14.5696 20.3349 14.69 20.1997 14.8C20.1997 14.8 20.1745 14.8432 20.1997 14.8288C20.2644 14.793 20.3208 14.7439 20.3653 14.6848C20.4625 14.584 20.5633 14.4904 20.6641 14.3968C20.7757 14.5084 20.8945 14.6164 21.0241 14.7208L20.7541 15.0484C20.7541 15.0664 20.7541 15.0772 20.7541 15.0484L21.0421 14.7316L21.2977 14.9656C21.2977 14.9656 21.3409 14.944 21.3301 14.9332C21.2506 14.8482 21.1664 14.7677 21.0781 14.692C21.2437 14.512 21.4093 14.332 21.5785 14.1592L21.9781 14.5192C21.8681 14.6332 21.7647 14.7534 21.6685 14.8792C21.6685 14.9008 21.6685 14.9044 21.6685 14.8792C21.7693 14.7568 21.8809 14.6416 21.9961 14.5192C22.0047 14.5297 22.0144 14.5393 22.0249 14.548C22.0249 14.548 22.0717 14.5228 22.0609 14.5084L22.0321 14.4832C22.1797 14.3356 22.3345 14.1988 22.4929 14.062L22.5865 14.134C22.5865 14.134 22.6369 14.1052 22.6189 14.0944L22.5397 14.0224L22.8781 13.7344C22.8781 13.7344 22.8601 13.756 22.8277 13.7776ZM20.9917 14.7136L20.6317 14.404L20.8441 14.2096L21.1645 13.9036L21.4705 14.1736C21.3085 14.3464 21.1465 14.53 20.9917 14.7136ZM21.2077 13.8676C21.3553 13.7272 21.4993 13.5904 21.6505 13.4572L21.9565 13.7344C21.8056 13.8574 21.6614 13.9884 21.5245 14.1268C21.4201 14.0404 21.3157 13.954 21.2077 13.8676ZM21.9601 14.5228C21.8363 14.3954 21.7052 14.2752 21.5677 14.1628C21.7045 14.026 21.8485 13.8928 21.9961 13.7668C22.1293 13.8856 22.2625 13.9972 22.4029 14.1052C22.2467 14.235 22.0988 14.3744 21.9601 14.5228Z" fill="#C17500"/>
<path d="M24.9552 14.5766L24.8184 14.6846C24.7104 14.6054 24.5916 14.537 24.48 14.4614L24.588 14.3822C24.6096 14.3642 24.6276 14.303 24.588 14.3282L24.4404 14.429C24.3654 14.377 24.2966 14.3166 24.2352 14.249C24.2352 14.249 24.1956 14.2706 24.2064 14.285C24.2634 14.3504 24.3261 14.4106 24.3936 14.465C24.2964 14.537 24.2028 14.6198 24.1092 14.7026C24.0372 14.6414 23.9616 14.5838 23.8896 14.519C23.8896 14.519 23.8572 14.537 23.868 14.5442C23.9364 14.609 24.0048 14.6738 24.0768 14.7314C23.7996 14.987 23.5548 15.275 23.292 15.545C23.5728 15.2822 23.8284 15.005 24.1056 14.7494C24.2064 14.8358 24.3108 14.9186 24.4152 14.9978C24.2845 15.121 24.1641 15.2546 24.0552 15.3974C24.0552 15.419 24.0552 15.4334 24.0552 15.3974C24.1842 15.2702 24.32 15.15 24.462 15.0374L24.6096 15.1454C24.6276 15.1454 24.6564 15.1202 24.642 15.1058L24.5052 14.9978L24.8076 14.7422L24.9084 14.8142C24.9264 14.8142 24.9588 14.789 24.9408 14.7746C24.9228 14.7602 24.8832 14.7278 24.8544 14.7026L24.966 14.6018C24.9984 14.5946 24.9948 14.5478 24.9552 14.5766ZM24.48 14.9762L24.1668 14.735C24.258 14.6534 24.3516 14.5742 24.4476 14.4974C24.5556 14.5766 24.6708 14.6486 24.7824 14.7242C24.6636 14.807 24.5628 14.8898 24.48 14.9762Z" fill="#C17500"/>
<path d="M28.8003 15.4446L28.5303 15.7146L28.0443 15.3546L28.2927 15.1062C28.2927 15.1062 28.2927 15.0594 28.2927 15.0774C28.1941 15.1518 28.1003 15.2323 28.0119 15.3186C27.8427 15.1998 27.6807 15.081 27.5223 14.9586C27.5822 14.8937 27.6364 14.8239 27.6843 14.7498C27.7059 14.7246 27.6843 14.721 27.6591 14.7498L27.4827 14.9406C27.4071 14.8794 27.3315 14.8182 27.2595 14.7498C27.2595 14.7498 27.2199 14.7498 27.2307 14.7822L27.4503 14.9766C27.3243 15.117 27.1947 15.2538 27.0651 15.3942C26.9175 15.2898 26.7735 15.1818 26.6295 15.0738L27.0507 15.405C26.9401 15.5285 26.8368 15.6583 26.7411 15.7938L26.2875 15.4338C26.2875 15.4338 26.2479 15.459 26.2587 15.4662L26.7051 15.8262C26.5986 15.9775 26.478 16.1186 26.3451 16.2474C26.4905 16.1262 26.6199 15.9871 26.7303 15.8334L27.1875 16.1934C27.1176 16.2922 27.0367 16.3828 26.9463 16.4634C26.9247 16.4634 26.9463 16.5138 26.9463 16.4922C27.0439 16.4126 27.1331 16.3233 27.2127 16.2258C27.4035 16.377 27.5979 16.5318 27.7887 16.6902C27.7887 16.6902 27.8463 16.6578 27.8283 16.6434C27.6447 16.4778 27.4683 16.323 27.2559 16.1718C27.3459 16.0602 27.4323 15.9486 27.5223 15.8514L27.5943 15.7794L28.0875 16.1394C27.9687 16.2582 27.8463 16.3986 27.8571 16.4598H27.8247C27.8247 16.485 27.8499 16.4598 27.8571 16.4598C27.9267 16.3694 28.0012 16.2828 28.0803 16.2006L28.1595 16.2582C28.1595 16.2582 28.1847 16.2582 28.1595 16.2366L28.0803 16.2006C28.2099 16.0602 28.3467 15.927 28.4835 15.7974L28.5159 15.819C28.5159 15.819 28.5735 15.7866 28.5555 15.7722H28.5267C28.6203 15.6858 28.7067 15.5994 28.7931 15.513C28.8291 15.4554 28.8003 15.4194 28.8003 15.4446ZM27.2811 16.0854L27.1803 16.2006L26.7195 15.8406C26.8023 15.7326 26.8815 15.6282 26.9607 15.531L27.0435 15.441L27.5223 15.801C27.4359 15.8946 27.3603 15.9882 27.2667 16.0854H27.2811ZM27.0831 15.4086C27.2127 15.2718 27.3495 15.1422 27.4755 15.0018C27.6303 15.1314 27.7887 15.2538 27.9543 15.3618C27.8535 15.4626 27.7599 15.5634 27.6627 15.657L27.5727 15.7542L27.0831 15.4086ZM28.2315 16.0242L28.0875 16.1646C27.9327 16.0386 27.7743 15.9126 27.6087 15.8046C27.7383 15.6714 27.8679 15.5454 28.0011 15.4194L28.4871 15.7794C28.3863 15.8406 28.2999 15.9342 28.2171 16.0242H28.2315Z" fill="#C17500"/>
</g>
<path d="M11.2684 18.4574C11.2684 18.3494 11.1244 18.3638 11.0596 18.4034C11.0281 18.4218 11.0025 18.4489 10.9859 18.4815C10.9693 18.514 10.9624 18.5506 10.966 18.587C10.9645 18.5965 10.9645 18.6063 10.966 18.6158C10.966 18.6842 11.0272 18.7094 11.0848 18.6914C11.1058 18.6842 11.1253 18.6732 11.1424 18.659C11.1613 18.6486 11.1773 18.6338 11.1892 18.6158C11.214 18.5976 11.2341 18.5737 11.2479 18.5461C11.2617 18.5186 11.2687 18.4882 11.2684 18.4574Z" fill="#461800"/>
<path d="M12.2978 17.5756C12.2869 17.5692 12.2744 17.5659 12.2618 17.5659C12.2492 17.5659 12.2367 17.5692 12.2258 17.5756C12.2006 17.5737 12.1754 17.5789 12.153 17.5905C12.1306 17.6021 12.1118 17.6197 12.0988 17.6413C12.0857 17.6629 12.0789 17.6877 12.0791 17.713C12.0793 17.7382 12.0865 17.7629 12.0998 17.7844C12.1133 17.7991 12.1297 17.8109 12.148 17.8189C12.1663 17.827 12.186 17.8311 12.206 17.8311C12.226 17.8311 12.2457 17.827 12.264 17.8189C12.2823 17.8109 12.2987 17.7991 12.3122 17.7844C12.3662 17.7376 12.3806 17.6152 12.2978 17.5756Z" fill="#461800"/>
<path d="M12.2761 18.8856L12.2401 18.8676C12.1537 18.8388 12.1069 18.9468 12.1249 19.0152C12.1303 19.0291 12.1385 19.0416 12.1491 19.0521C12.1598 19.0625 12.1725 19.0706 12.1865 19.0757C12.2004 19.0808 12.2153 19.0828 12.2302 19.0817C12.245 19.0806 12.2595 19.0763 12.2725 19.0692C12.291 19.0602 12.3068 19.0465 12.3181 19.0294C12.3295 19.0123 12.3362 18.9925 12.3373 18.972C12.3361 18.9533 12.3298 18.9353 12.319 18.9201C12.3082 18.9048 12.2933 18.8929 12.2761 18.8856Z" fill="#461800"/>
<path d="M12.7662 16.6071C12.7456 16.6159 12.7278 16.6304 12.7151 16.6489C12.7024 16.6673 12.6951 16.689 12.6942 16.7115C12.6925 16.7282 12.6925 16.7451 12.6942 16.7619C12.68 16.7822 12.6679 16.8039 12.6582 16.8267C12.6582 16.8591 12.6582 16.9095 12.6942 16.9167C12.7302 16.9239 12.8274 16.8231 12.8382 16.7583C12.849 16.6935 12.8526 16.5783 12.7662 16.6071Z" fill="#461800"/>
<path d="M13.842 19.0584C13.8153 19.036 13.7826 19.022 13.748 19.0182C13.7134 19.0143 13.6785 19.0208 13.6476 19.0368C13.6238 19.0538 13.6038 19.0755 13.5887 19.1005C13.5736 19.1256 13.5637 19.1534 13.5597 19.1823C13.5557 19.2113 13.5575 19.2407 13.5652 19.2689C13.5729 19.2971 13.5862 19.3235 13.6044 19.3464C13.6193 19.3768 13.6431 19.4019 13.6728 19.4184C13.77 19.4796 13.9248 19.3356 13.914 19.2384C13.9109 19.172 13.8855 19.1086 13.842 19.0584Z" fill="#461800"/>
<path d="M15.5161 18.0939C15.5068 18.0902 15.4965 18.0902 15.4873 18.0939C15.4477 18.0687 15.4045 18.1227 15.3901 18.1623C15.3757 18.2019 15.3901 18.2847 15.4405 18.2775C15.4909 18.2703 15.5305 18.2127 15.5341 18.1587C15.5355 18.1472 15.5347 18.1356 15.5316 18.1244C15.5285 18.1133 15.5232 18.1029 15.5161 18.0939Z" fill="#461800"/>
<path d="M15.6207 19.1665C15.6167 19.1619 15.6117 19.1582 15.6061 19.1557C15.6005 19.1532 15.5944 19.1519 15.5883 19.1519C15.5822 19.1519 15.5761 19.1532 15.5705 19.1557C15.565 19.1582 15.56 19.1619 15.5559 19.1665C15.5488 19.1624 15.5407 19.1602 15.5325 19.1602C15.5243 19.1602 15.5162 19.1624 15.5091 19.1665C15.5003 19.1745 15.4936 19.1845 15.4895 19.1957C15.4855 19.2069 15.4844 19.219 15.4862 19.2307C15.4879 19.2425 15.4926 19.2536 15.4998 19.2632C15.5069 19.2727 15.5163 19.2803 15.5271 19.2853C15.5308 19.2898 15.5355 19.2934 15.5408 19.2959C15.5461 19.2984 15.5519 19.2997 15.5577 19.2997C15.5636 19.2997 15.5694 19.2984 15.5746 19.2959C15.5799 19.2934 15.5846 19.2898 15.5883 19.2853C15.6055 19.272 15.6171 19.2527 15.6207 19.2313C15.6261 19.2213 15.6289 19.2102 15.6289 19.1989C15.6289 19.1876 15.6261 19.1764 15.6207 19.1665Z" fill="#461800"/>
<path d="M16.3336 17.0176C16.3336 17.0176 16.3336 17.0176 16.3048 17.0176C16.276 17.0176 16.2508 17.0716 16.2472 17.1112C16.2436 17.1508 16.3012 17.1616 16.33 17.1292C16.3588 17.0968 16.3696 17.0392 16.3336 17.0176Z" fill="#461800"/>
<path d="M18.2093 18.5474L18.1805 18.5222C18.1628 18.4993 18.1371 18.4838 18.1085 18.479C18.0077 18.479 17.9357 18.6158 17.9429 18.695C17.9437 18.7165 17.9506 18.7374 17.9627 18.7552C17.9748 18.773 17.9916 18.7871 18.0113 18.7958C18.0416 18.8065 18.0746 18.8065 18.1049 18.7958H18.1337C18.1606 18.7854 18.1842 18.768 18.2021 18.7454C18.2284 18.7196 18.2438 18.6847 18.2451 18.6478C18.2465 18.611 18.2336 18.5751 18.2093 18.5474Z" fill="#461800"/>
<path d="M19.1667 19.08C19.1536 19.0689 19.137 19.0625 19.1199 19.062C19.0695 19.062 19.0155 19.116 19.0119 19.1628C19.0083 19.2096 19.0767 19.3032 19.1415 19.2492C19.1549 19.2403 19.1663 19.2287 19.1749 19.215C19.1836 19.2014 19.1893 19.1862 19.1917 19.1702C19.194 19.1543 19.193 19.138 19.1887 19.1225C19.1844 19.1069 19.1769 19.0925 19.1667 19.08Z" fill="#461800"/>
<path d="M20.5493 18.1621C20.4845 18.0865 20.4125 18.1981 20.3909 18.2557C20.3786 18.2843 20.3713 18.3147 20.3693 18.3457C20.3668 18.3601 20.3685 18.3749 20.3743 18.3883C20.38 18.4017 20.3895 18.4132 20.4017 18.4213C20.4377 18.4429 20.4737 18.4213 20.5025 18.3961C20.5375 18.3696 20.5616 18.3311 20.5702 18.288C20.5788 18.2449 20.5714 18.2001 20.5493 18.1621Z" fill="#461800"/>
<path d="M21.96 18.9038C21.9514 18.8984 21.9414 18.8955 21.9312 18.8955C21.921 18.8955 21.9111 18.8984 21.9024 18.9038C21.8869 18.9061 21.8721 18.9122 21.8595 18.9216C21.8469 18.931 21.8369 18.9435 21.8304 18.9578C21.8196 18.9741 21.8125 18.9924 21.8094 19.0117C21.8063 19.0309 21.8073 19.0506 21.8124 19.0694C21.834 19.1594 21.924 19.1522 21.978 19.0946C21.9927 19.0827 22.0043 19.0673 22.0116 19.0498C22.0189 19.0323 22.0218 19.0133 22.0201 18.9944C22.0183 18.9755 22.0119 18.9574 22.0014 18.9416C21.9909 18.9258 21.9767 18.9128 21.96 18.9038Z" fill="#461800"/>
<path d="M22.8637 18.0003C22.8559 17.9911 22.8463 17.9838 22.8354 17.9788C22.8245 17.9738 22.8127 17.9712 22.8007 17.9712C22.7887 17.9712 22.7769 17.9738 22.766 17.9788C22.7552 17.9838 22.7455 17.9911 22.7377 18.0003C22.7229 18.0187 22.7123 18.0403 22.7067 18.0633C22.7011 18.0863 22.7007 18.1102 22.7053 18.1335C22.7066 18.1433 22.7099 18.1528 22.715 18.1613C22.7202 18.1699 22.727 18.1772 22.7351 18.183C22.7432 18.1887 22.7525 18.1928 22.7622 18.1948C22.7719 18.1968 22.782 18.1967 22.7917 18.1947C22.8096 18.1909 22.8263 18.1827 22.8402 18.1707C22.854 18.1587 22.8646 18.1434 22.8709 18.1263C22.8817 18.1067 22.8867 18.0845 22.8854 18.0622C22.8842 18.0399 22.8766 18.0185 22.8637 18.0003Z" fill="#461800"/>
<path d="M22.1296 17.111C22.1187 17.0905 22.1035 17.0727 22.085 17.0588C22.0665 17.0448 22.0452 17.0351 22.0225 17.0303C21.9999 17.0255 21.9764 17.0257 21.9539 17.0309C21.9313 17.0362 21.9102 17.0463 21.892 17.0606C21.8618 17.0864 21.8427 17.1229 21.8387 17.1625C21.8347 17.202 21.846 17.2416 21.8704 17.273C21.8859 17.2926 21.9056 17.3085 21.928 17.3198H21.9568C21.9681 17.325 21.9803 17.3276 21.9928 17.3276C22.0052 17.3276 22.0175 17.325 22.0288 17.3198C22.0525 17.3127 22.0738 17.299 22.09 17.2802C22.1061 17.2589 22.1171 17.2342 22.1221 17.208C22.1271 17.1817 22.126 17.1547 22.1188 17.129C22.1188 17.129 22.1332 17.1182 22.1296 17.111Z" fill="#461800"/>
<path d="M19.4907 16.9202C19.4907 16.8806 19.4547 16.859 19.4187 16.8446C19.41 16.8396 19.4 16.8369 19.3899 16.8369C19.3798 16.8369 19.3699 16.8396 19.3611 16.8446C19.3462 16.8443 19.3315 16.8491 19.3197 16.8583C19.3079 16.8674 19.2996 16.8804 19.2963 16.895C19.291 16.9051 19.2879 16.9161 19.2872 16.9274C19.2866 16.9388 19.2884 16.9501 19.2924 16.9607C19.2965 16.9713 19.3029 16.9809 19.311 16.9888C19.3191 16.9967 19.3288 17.0028 19.3395 17.0066C19.3489 17.0136 19.3602 17.0174 19.3719 17.0174C19.3836 17.0174 19.395 17.0136 19.4043 17.0066C19.4403 16.9922 19.4943 16.9526 19.4907 16.9202Z" fill="#461800"/>
<path d="M18.9798 16.9202C18.9621 16.9213 18.945 16.9273 18.9304 16.9374C18.9158 16.9476 18.9043 16.9615 18.897 16.9778C18.895 16.9873 18.895 16.9971 18.897 17.0066C18.897 17.0318 18.897 17.057 18.9294 17.057C18.9618 17.057 19.0122 17.003 19.0194 16.9634C19.0206 16.9578 19.0205 16.952 19.019 16.9464C19.0174 16.9409 19.0146 16.9358 19.0108 16.9316C19.0069 16.9274 19.0021 16.9241 18.9967 16.9221C18.9913 16.9202 18.9855 16.9195 18.9798 16.9202Z" fill="#461800"/>
<path d="M23.4511 18C23.4511 18 23.4511 17.9568 23.4115 17.9532C23.3719 17.9496 23.3539 17.9532 23.3359 17.9964C23.3256 18.0051 23.3176 18.0163 23.3126 18.0288C23.3075 18.0414 23.3057 18.055 23.3071 18.0684C23.3071 18.1332 23.3899 18.1152 23.4259 18.0684C23.4365 18.0608 23.4445 18.0503 23.449 18.0381C23.4535 18.0259 23.4543 18.0126 23.4511 18Z" fill="#461800"/>
<path d="M23.9723 17.4531C23.9363 17.4531 23.8859 17.5395 23.9363 17.5395C23.9867 17.5395 24.0227 17.4531 23.9723 17.4531Z" fill="#461800"/>
<path d="M26.0032 17.0247C25.9914 17.0211 25.9789 17.0211 25.9672 17.0247C25.946 17.0312 25.9276 17.0447 25.9152 17.063C25.9028 17.0814 25.897 17.1034 25.8988 17.1255C25.8984 17.1357 25.9004 17.146 25.9047 17.1553C25.909 17.1646 25.9155 17.1727 25.9236 17.1791C25.9317 17.1854 25.9411 17.1897 25.9512 17.1917C25.9613 17.1936 25.9717 17.1931 25.9816 17.1903C26.0057 17.1859 26.0274 17.1729 26.0427 17.1537C26.0579 17.1345 26.0656 17.1104 26.0644 17.0859C26.0635 17.0699 26.0568 17.0549 26.0455 17.0436C26.0342 17.0323 26.0191 17.0255 26.0032 17.0247Z" fill="#461800"/>
<path d="M27.3603 17.1613C27.3629 17.1466 27.3623 17.1316 27.3585 17.1172C27.3546 17.1028 27.3476 17.0894 27.338 17.0781C27.3283 17.0667 27.3163 17.0576 27.3027 17.0515C27.2891 17.0453 27.2744 17.0423 27.2595 17.0425C27.2238 17.0504 27.1918 17.0699 27.1684 17.0979C27.1449 17.1259 27.1314 17.1608 27.1299 17.1973C27.1299 17.2657 27.2055 17.2873 27.2631 17.2585C27.2881 17.242 27.31 17.2213 27.3279 17.1973C27.3279 17.1973 27.3603 17.1721 27.3603 17.1613Z" fill="#461800"/>
<path d="M9.42135 18.6014C9.42135 18.569 9.36375 18.623 9.36735 18.6446C9.36703 18.6535 9.36923 18.6622 9.37369 18.6699C9.37816 18.6775 9.38469 18.6837 9.39255 18.6878C9.39255 18.6878 9.42855 18.6878 9.43935 18.6878C9.44003 18.6794 9.44003 18.671 9.43935 18.6626C9.43935 18.6626 9.42855 18.6194 9.42135 18.6014Z" fill="#461800"/>
<path d="M9.00036 19.1196C8.97516 19.1196 8.93916 19.1808 8.97516 19.1808C9.01116 19.1808 9.03996 19.1196 9.00036 19.1196Z" fill="#461800"/>
<path d="M12.6001 13.1978C12.5605 13.1978 12.5029 13.295 12.5605 13.295C12.6181 13.295 12.6505 13.1978 12.6001 13.1978Z" fill="#461800"/>
<path d="M14.537 12.4346C14.4902 12.4346 14.4254 12.5498 14.4902 12.5498C14.555 12.5498 14.6054 12.4346 14.537 12.4346Z" fill="#461800"/>
<g style="mix-blend-mode:screen" opacity="0.5">
<path d="M18.9 12.0315C18.507 11.9007 18.0972 11.8267 17.6832 11.8119C17.298 11.7723 16.9056 11.7543 16.5168 11.7471C15.6754 11.7392 14.8341 11.7777 13.9968 11.8623C12.5568 11.9955 10.8972 12.2007 9.61924 12.9423C9.59404 12.9423 9.55444 13.0359 9.61924 13.0215C10.2852 12.8487 10.9224 12.5859 11.5956 12.4347C12.3436 12.2992 13.1004 12.2174 13.86 12.1899C14.655 12.1233 15.4529 12.0981 16.2504 12.1143C16.6968 12.1143 17.1432 12.1539 17.5896 12.1971C17.9783 12.2594 18.3701 12.3003 18.7632 12.3195C18.846 12.3339 19.044 12.0891 18.9 12.0315Z" fill="white"/>
<path d="M22.6152 12.6217C22.1026 12.4456 21.5747 12.3178 21.0384 12.2401C20.5287 12.1145 20.0042 12.06 19.4796 12.0781C19.4364 12.0781 19.332 12.2113 19.4076 12.2221C19.89 12.2977 20.3688 12.4453 20.8476 12.5461C21.3949 12.6715 21.9509 12.7557 22.5108 12.7981C22.572 12.7945 22.7088 12.6577 22.6152 12.6217Z" fill="white"/>
</g>
<g style="mix-blend-mode:screen">
<path d="M5.81468 14.4938C5.31646 14.7489 4.83544 15.0363 4.37468 15.3542C4.14665 15.509 3.92899 15.6785 3.72308 15.8618C3.49628 16.0706 3.31268 16.3118 3.09668 16.5278C3.09668 16.5278 3.09668 16.571 3.09668 16.553C3.49933 16.1586 3.92486 15.7884 4.37108 15.4442C4.83908 15.113 5.33588 14.861 5.81108 14.5694C5.85788 14.5478 5.88308 14.4578 5.81468 14.4938Z" fill="#C6862C"/>
</g>
<g style="mix-blend-mode:screen">
<path d="M7.42316 13.9932C7.23417 14.0026 7.04749 14.039 6.86876 14.1012C6.64218 14.1902 6.42205 14.2949 6.20996 14.4144C6.38636 14.4144 6.53756 14.2776 6.70316 14.2344C6.93943 14.1966 7.17279 14.1425 7.40156 14.0724C7.41956 14.0724 7.48076 13.9932 7.42316 13.9932Z" fill="#C6862C"/>
</g>
</g>
<defs>
<clipPath id="clip0_35_596">
<rect width="36" height="36" fill="white"/>
</clipPath>
</defs>
</svg>
