<svg xmlns="http://www.w3.org/2000/svg" aria-hidden="true" style="position:absolute;width:0;height:0;overflow:hidden"><defs><symbol id="icon-Frame" viewBox="0 0 1200 160"><path fill="none" stroke="#e3ffa8" stroke-linecap="round" stroke-linejoin="round" stroke-width="16" d="M32 80h64M64 112V48"/><path fill="#e3ffa8" d="m224.832 120-17.92-31.136h-9.744V120H184.4V42.16h26.88c5.974 0 11.014 1.045 15.12 3.136 4.182 2.091 7.28 4.891 9.296 8.4 2.09 3.509 3.136 7.429 3.136 11.76 0 5.077-1.494 9.707-4.48 13.888-2.912 4.106-7.43 6.906-13.552 8.4L240.064 120h-15.232zm-27.664-41.328h14.112c4.778 0 8.362-1.195 10.752-3.584 2.464-2.389 3.696-5.6 3.696-9.632s-1.194-7.168-3.584-9.408c-2.39-2.315-6.01-3.472-10.864-3.472h-14.112v26.096zm114.558 8.96c0 2.314-.15 4.406-.448 6.272h-47.152c.374 4.928 2.202 8.886 5.488 11.872s7.318 4.48 12.096 4.48c6.87 0 11.722-2.874 14.56-8.624h13.776c-1.866 5.674-5.264 10.342-10.192 14-4.854 3.584-10.902 5.376-18.144 5.376-5.898 0-11.2-1.306-15.904-3.92-4.63-2.688-8.288-6.422-10.976-11.2-2.614-4.854-3.92-10.454-3.92-16.8s1.27-11.909 3.808-16.688c2.614-4.853 6.234-8.587 10.864-11.2 4.704-2.613 10.08-3.92 16.128-3.92 5.824 0 11.014 1.269 15.568 3.808s8.102 6.123 10.64 10.752c2.538 4.555 3.808 9.818 3.808 15.792zM298.398 83.6c-.074-4.704-1.754-8.475-5.04-11.312s-7.354-4.256-12.208-4.256c-4.406 0-8.176 1.419-11.312 4.256-3.136 2.763-5.002 6.533-5.6 11.312h34.16zm21.636 5.488c0-6.346 1.27-11.909 3.808-16.688 2.614-4.853 6.198-8.587 10.752-11.2s9.782-3.92 15.68-3.92c7.467 0 13.627 1.792 18.48 5.376 4.928 3.509 8.251 8.549 9.968 15.12h-13.776c-1.12-3.061-2.912-5.451-5.376-7.168s-5.562-2.576-9.296-2.576c-5.226 0-9.408 1.867-12.544 5.6-3.061 3.659-4.592 8.81-4.592 15.456s1.531 11.834 4.592 15.568c3.136 3.734 7.318 5.6 12.544 5.6 7.392 0 12.283-3.248 14.672-9.744h13.776c-1.792 6.272-5.152 11.274-10.08 15.008-4.928 3.658-11.05 5.488-18.368 5.488-5.898 0-11.125-1.306-15.68-3.92-4.554-2.688-8.138-6.422-10.752-11.2-2.538-4.854-3.808-10.454-3.808-16.8zm98.181 31.92c-5.824 0-11.088-1.306-15.792-3.92-4.704-2.688-8.4-6.422-11.088-11.2-2.688-4.854-4.032-10.454-4.032-16.8 0-6.272 1.381-11.835 4.144-16.688s6.533-8.587 11.312-11.2c4.778-2.613 10.117-3.92 16.016-3.92s11.237 1.307 16.016 3.92c4.778 2.613 8.549 6.347 11.312 11.2s4.144 10.416 4.144 16.688-1.419 11.834-4.256 16.688c-2.838 4.854-6.72 8.624-11.648 11.312-4.854 2.614-10.23 3.92-16.128 3.92zm0-11.088c3.285 0 6.346-.784 9.184-2.352 2.912-1.568 5.264-3.92 7.056-7.056s2.688-6.944 2.688-11.424c0-4.48-.859-8.25-2.576-11.312-1.718-3.136-3.995-5.488-6.832-7.056s-5.899-2.352-9.184-2.352c-3.286 0-6.347.784-9.184 2.352-2.763 1.568-4.966 3.92-6.608 7.056-1.643 3.062-2.464 6.832-2.464 11.312 0 6.646 1.68 11.798 5.04 15.456 3.434 3.584 7.728 5.376 12.88 5.376zm57.422-42.672c1.866-3.136 4.33-5.563 7.392-7.28 3.136-1.792 6.832-2.688 11.088-2.688v13.216h-3.248c-5.002 0-8.81 1.269-11.424 3.808-2.538 2.539-3.808 6.944-3.808 13.216V120h-12.768V58.288h12.768v8.96zm25.96 21.616c0-6.198 1.27-11.685 3.808-16.464 2.614-4.779 6.123-8.475 10.528-11.088 4.48-2.688 9.446-4.032 14.896-4.032 4.032 0 7.99.896 11.872 2.688 3.958 1.717 7.094 4.032 9.408 6.944V37.12h12.88V120h-12.88v-9.296c-2.09 2.986-5.002 5.45-8.736 7.392-3.658 1.942-7.877 2.912-12.656 2.912-5.376 0-10.304-1.344-14.784-4.032-4.405-2.762-7.914-6.57-10.528-11.424-2.538-4.928-3.808-10.49-3.808-16.688zm50.512.224c0-4.256-.896-7.952-2.688-11.088-1.717-3.136-3.994-5.525-6.832-7.168s-5.898-2.464-9.184-2.464a18.02 18.02 0 0 0-9.184 2.464c-2.837 1.568-5.152 3.92-6.944 7.056-1.717 3.062-2.576 6.72-2.576 10.976s.859 7.99 2.576 11.2c1.792 3.21 4.107 5.674 6.944 7.392 2.912 1.642 5.974 2.464 9.184 2.464 3.286 0 6.347-.822 9.184-2.464s5.115-4.032 6.832-7.168c1.792-3.21 2.688-6.944 2.688-11.2zm114.296-30.8-37.856 90.72h-13.216l12.544-30.016-24.304-60.704h14.224l17.36 47.04 18.032-47.04h13.216zm36.404 62.72c-5.824 0-11.088-1.306-15.792-3.92-4.704-2.688-8.4-6.422-11.088-11.2-2.688-4.854-4.032-10.454-4.032-16.8 0-6.272 1.381-11.835 4.144-16.688s6.533-8.587 11.312-11.2c4.778-2.613 10.117-3.92 16.016-3.92s11.237 1.307 16.016 3.92c4.778 2.613 8.549 6.347 11.312 11.2s4.144 10.416 4.144 16.688-1.419 11.834-4.256 16.688c-2.838 4.854-6.72 8.624-11.648 11.312-4.854 2.614-10.23 3.92-16.128 3.92zm0-11.088c3.285 0 6.346-.784 9.184-2.352 2.912-1.568 5.264-3.92 7.056-7.056s2.688-6.944 2.688-11.424c0-4.48-.859-8.25-2.576-11.312-1.718-3.136-3.995-5.488-6.832-7.056s-5.899-2.352-9.184-2.352c-3.286 0-6.347.784-9.184 2.352-2.763 1.568-4.966 3.92-6.608 7.056-1.643 3.062-2.464 6.832-2.464 11.312 0 6.646 1.68 11.798 5.04 15.456 3.434 3.584 7.728 5.376 12.88 5.376zm100.543-51.632V120h-12.77v-7.28c-2.016 2.538-4.666 4.554-7.952 6.048-3.21 1.418-6.646 2.128-10.304 2.128-4.854 0-9.222-1.008-13.104-3.024-3.808-2.016-6.832-5.002-9.072-8.96-2.166-3.958-3.248-8.736-3.248-14.336V58.288h12.656v34.384c0 5.526 1.382 9.782 4.144 12.768 2.762 2.912 6.534 4.368 11.312 4.368s8.55-1.456 11.312-4.368c2.838-2.986 4.256-7.242 4.256-12.768V58.288h12.77zm29.616 8.96c1.864-3.136 4.328-5.563 7.392-7.28 3.136-1.792 6.832-2.688 11.088-2.688v13.216H848.2c-5.008 0-8.816 1.269-11.424 3.808-2.544 2.539-3.808 6.944-3.808 13.216V120H820.2V58.288h12.768v8.96zm134.008-9.968c4.856 0 9.184 1.008 12.992 3.024 3.888 2.016 6.912 5.003 9.072 8.96 2.24 3.957 3.36 8.736 3.36 14.336V120h-12.656V85.504c0-5.525-1.376-9.744-4.144-12.656-2.76-2.987-6.528-4.48-11.312-4.48-4.776 0-8.584 1.493-11.424 4.48-2.76 2.912-4.144 7.131-4.144 12.656V120h-12.656V85.504c0-5.525-1.376-9.744-4.144-12.656-2.76-2.987-6.528-4.48-11.312-4.48-4.776 0-8.584 1.493-11.424 4.48-2.76 2.912-4.144 7.131-4.144 12.656V120h-12.768V58.288h12.768v7.056c2.096-2.539 4.744-4.517 7.952-5.936 3.216-1.419 6.648-2.128 10.304-2.128 4.928 0 9.336 1.045 13.216 3.136 3.888 2.091 6.872 5.115 8.96 9.072 1.872-3.733 4.784-6.683 8.736-8.848 3.96-2.24 8.216-3.36 12.768-3.36zm98.232 30.352c0 2.314-.144 4.406-.448 6.272h-47.152c.376 4.928 2.208 8.886 5.488 11.872 3.288 2.986 7.32 4.48 12.096 4.48 6.872 0 11.728-2.874 14.56-8.624h13.776c-1.864 5.674-5.264 10.342-10.192 14-4.848 3.584-10.896 5.376-18.144 5.376-5.896 0-11.2-1.306-15.904-3.92-4.624-2.688-8.288-6.422-10.976-11.2-2.608-4.854-3.92-10.454-3.92-16.8s1.272-11.909 3.808-16.688c2.616-4.853 6.24-8.587 10.864-11.2 4.704-2.613 10.08-3.92 16.128-3.92 5.824 0 11.016 1.269 15.568 3.808 4.56 2.539 8.104 6.123 10.64 10.752 2.544 4.555 3.808 9.818 3.808 15.792zM1051.88 83.6c-.072-4.704-1.752-8.475-5.04-11.312-3.28-2.837-7.352-4.256-12.208-4.256-4.4 0-8.176 1.419-11.312 4.256-3.136 2.763-5 6.533-5.6 11.312h34.16zm21.64 5.264c0-6.198 1.272-11.685 3.808-16.464 2.616-4.779 6.12-8.475 10.528-11.088 4.48-2.688 9.408-4.032 14.784-4.032 4.856 0 9.072.971 12.656 2.912 3.656 1.867 6.568 4.219 8.736 7.056v-8.96h12.88V120h-12.88v-9.184c-2.168 2.912-5.112 5.338-8.848 7.28s-7.992 2.912-12.768 2.912c-5.304 0-10.152-1.344-14.56-4.032-4.408-2.762-7.912-6.57-10.528-11.424-2.536-4.928-3.808-10.49-3.808-16.688zm50.512.224c0-4.256-.896-7.952-2.688-11.088-1.72-3.136-3.992-5.525-6.832-7.168s-5.896-2.464-9.184-2.464c-3.288 0-6.344.821-9.184 2.464-2.84 1.568-5.152 3.92-6.944 7.056-1.72 3.062-2.576 6.72-2.576 10.976s.856 7.99 2.576 11.2c1.792 3.21 4.104 5.674 6.944 7.392 2.912 1.642 5.976 2.464 9.184 2.464 3.288 0 6.344-.822 9.184-2.464s5.112-4.032 6.832-7.168c1.792-3.21 2.688-6.944 2.688-11.2zm42.416-51.968V120h-12.768V37.12h12.768z"/></symbol><symbol id="icon-arrow-right" viewBox="0 0 160 160"><path fill="none" stroke="#b6b6b6" stroke-linecap="round" stroke-linejoin="round" stroke-miterlimit="10" stroke-width="6.667" d="M63.8 39.535 23.333 80.002 63.8 120.469M136.667 80h-112.2"/></symbol><symbol id="icon-edit-2" viewBox="0 0 160 160"><path fill="none" stroke="#b6b6b6" stroke-linecap="round" stroke-linejoin="round" stroke-miterlimit="10" stroke-width="10" d="M88.401 23.998 33.668 81.931c-2.067 2.2-4.067 6.533-4.467 9.533l-2.467 21.6c-.867 7.8 4.733 13.133 12.467 11.8l21.467-3.667c3-.533 7.2-2.733 9.267-5l54.733-57.933c9.467-10 13.734-21.4-1-35.333-14.666-13.8-25.8-8.933-35.266 1.067z"/><path fill="none" stroke="#b6b6b6" stroke-linecap="round" stroke-linejoin="round" stroke-miterlimit="10" stroke-width="10" d="M79.268 33.667c2.867 18.4 17.8 32.467 36.333 34.333M20 146.665h120"/></symbol><symbol id="icon-bubble" viewBox="0 0 160 160"><path fill="none" stroke="#45ffbc" stroke-miterlimit="10" stroke-width="4" d="M103.932 81.733c18.888 0 34.2-15.312 34.2-34.2s-15.312-34.2-34.2-34.2c-18.888 0-34.2 15.312-34.2 34.2s15.312 34.2 34.2 34.2zM42.4 129.6c11.34 0 20.533-9.193 20.533-20.533S53.74 88.534 42.4 88.534c-11.34 0-20.533 9.193-20.533 20.533S31.06 129.6 42.4 129.6zM110.799 146.667c9.426 0 17.067-7.641 17.067-17.067s-7.641-17.067-17.067-17.067-17.067 7.641-17.067 17.067 7.641 17.067 17.067 17.067z"/></symbol><symbol id="icon-milk" viewBox="0 0 160 160"><path fill="none" stroke="#b6c3ff" stroke-linecap="round" stroke-linejoin="round" stroke-width="4" d="M120 100v26.667c0 11-9 20-20 20H60c-11 0-20-9-20-20V93.2l25.933.133c4.867 0 9.667 1.133 14.067 3.333s9.2 3.333 14.133 3.333H120z"/><path fill="none" stroke="#b6c3ff" stroke-linecap="round" stroke-linejoin="round" stroke-width="4" d="M120 72.2V100H94.133C89.2 100 84.4 98.867 80 96.667s-9.2-3.333-14.067-3.333L40 93.201v-21c0-3.067 1.734-7.267 3.934-9.467l14.133-14.133A6.724 6.724 0 0 0 60 43.934v-10.6h40v10.6c0 1.733.733 3.467 1.933 4.667l14.133 14.133c2.2 2.2 3.934 6.4 3.934 9.467z"/><path fill="none" stroke="#b6c3ff" stroke-linecap="round" stroke-linejoin="round" stroke-width="3" d="M120 106.667V100M40 99.867V93.2"/><path fill="none" stroke="#b6c3ff" stroke-linecap="round" stroke-linejoin="round" stroke-width="4" d="M96.667 33.333H63.334c-5.533 0-10-4.533-10-10s4.467-10 10-10h33.333c5.533 0 10 4.533 10 10s-4.467 10-10 10z"/></symbol><symbol id="icon-profile-circle" viewBox="0 0 160 160"><path fill="none" stroke="#fff" stroke-linecap="round" stroke-linejoin="round" stroke-width="8.571" d="M80.797 85.2a6.387 6.387 0 0 0-1.6 0c-11.733-.4-21.066-10-21.066-21.8 0-12.067 9.733-21.867 21.866-21.867 12.067 0 21.867 9.8 21.867 21.867-.067 11.8-9.333 21.4-21.067 21.8zM124.934 129.201c-11.867 10.866-27.6 17.466-44.933 17.466s-33.067-6.6-44.934-17.466c.667-6.267 4.667-12.4 11.8-17.2 18.267-12.134 48.134-12.134 66.267 0 7.133 4.8 11.133 10.933 11.8 17.2z"/><path fill="none" stroke="#fff" stroke-linecap="round" stroke-linejoin="round" stroke-width="8.571" d="M79.998 146.666c36.819 0 66.666-29.848 66.666-66.667s-29.848-66.667-66.666-66.667c-36.819 0-66.667 29.848-66.667 66.667s29.848 66.667 66.667 66.667z"/></symbol><symbol id="icon-trash-03" viewBox="0 0 160 160"><path fill="none" stroke="#e3ffa8" stroke-linecap="round" stroke-linejoin="round" stroke-width="12" d="M60 20h40M66.667 70v33.334M93.334 70v33.334M20 40h120m-13.334 0-4.675 70.129c-.702 10.522-1.052 15.782-3.325 19.771a19.997 19.997 0 0 1-8.655 8.098C105.88 140 100.607 140 90.062 140H69.937c-10.545 0-15.817 0-19.949-2.002a20 20 0 0 1-8.656-8.098c-2.273-3.989-2.623-9.25-3.325-19.771L33.332 40"/></symbol></defs></svg>